<ttFont>
<head>
    <!-- Most of this table will be recalculated by the compiler -->
    <tableVersion value="1.0"/>
    <fontRevision value="1.19999694824"/>
    <checkSumAdjustment value="0x78bacbf6"/>
    <magicNumber value="0x5f0f3cf5"/>
    <flags value="00000000 00001111"/>
    <unitsPerEm value="2048"/>
    <created value="Fri Oct 12 14:06:12 2001"/>
    <modified value="Fri Oct 12 11:04:28 2001"/>
    <xMin value="-441"/>
    <yMin value="-432"/>
    <xMax value="2024"/>
    <yMax value="2033"/>
    <macStyle value="00000000 00000000"/>
    <lowestRecPPEM value="12"/>
    <fontDirectionHint value="2"/>
    <indexToLocFormat value="0"/>
    <glyphDataFormat value="0"/>
  </head>
    <TTGlyph name=".notdef" xMin="57" yMin="0" xMax="512" yMax="1480">
      <contour>
        <pt x="57" y="0" on="1"/>
        <pt x="57" y="1480" on="1"/>
        <pt x="512" y="1480" on="1"/>
        <pt x="512" y="0" on="1"/>
      </contour>
      <contour>
        <pt x="455" y="57" on="1"/>
        <pt x="455" y="1423" on="1"/>
        <pt x="114" y="1423" on="1"/>
        <pt x="114" y="57" on="1"/>
      </contour>
    </TTGlyph>
    <TTGlyph name="A" xMin="19" yMin="0" xMax="1342" yMax="1480">
      <contour>
        <pt x="19" y="0" on="1"/>
        <pt x="581" y="1480" on="1"/>
        <pt x="789" y="1480" on="1"/>
        <pt x="1342" y="0" on="1"/>
        <pt x="1116" y="0" on="1"/>
        <pt x="962" y="410" on="1"/>
        <pt x="368" y="410" on="1"/>
        <pt x="214" y="0" on="1"/>
      </contour>
      <contour>
        <pt x="428" y="566" on="1"/>
        <pt x="904" y="566" on="1"/>
        <pt x="667" y="1200" on="1"/>
      </contour>
    </TTGlyph>
    <TTGlyph name="AE" xMin="19" yMin="0" xMax="1990" yMax="1480">
      <contour>
        <pt x="597" y="569" on="1"/>
        <pt x="1015" y="569" on="1"/>
        <pt x="1015" y="1227" on="1"/>
      </contour>
      <contour>
        <pt x="19" y="0" on="1"/>
        <pt x="959" y="1480" on="1"/>
        <pt x="1947" y="1480" on="1"/>
        <pt x="1947" y="1323" on="1"/>
        <pt x="1225" y="1323" on="1"/>
        <pt x="1225" y="848" on="1"/>
        <pt x="1847" y="848" on="1"/>
        <pt x="1847" y="693" on="1"/>
        <pt x="1225" y="693" on="1"/>
        <pt x="1225" y="157" on="1"/>
        <pt x="1990" y="157" on="1"/>
        <pt x="1990" y="0" on="1"/>
        <pt x="1015" y="0" on="1"/>
        <pt x="1015" y="414" on="1"/>
        <pt x="498" y="414" on="1"/>
        <pt x="236" y="0" on="1"/>
      </contour>
    </TTGlyph>
    <TTGlyph name="Aacute" xMin="19" yMin="0" xMax="1342" yMax="1925">
      <contour>
        <pt x="19" y="0" on="1"/>
        <pt x="581" y="1480" on="1"/>
        <pt x="789" y="1480" on="1"/>
        <pt x="1342" y="0" on="1"/>
        <pt x="1116" y="0" on="1"/>
        <pt x="962" y="410" on="1"/>
        <pt x="368" y="410" on="1"/>
        <pt x="214" y="0" on="1"/>
      </contour>
      <contour>
        <pt x="428" y="566" on="1"/>
        <pt x="904" y="566" on="1"/>
        <pt x="667" y="1200" on="1"/>
      </contour>
      <contour>
        <pt x="537" y="1604" on="1"/>
        <pt x="778" y="1925" on="1"/>
        <pt x="1006" y="1925" on="1"/>
        <pt x="685" y="1604" on="1"/>
      </contour>
    </TTGlyph>
    <TTGlyph name="Abreve" xMin="21" yMin="0" xMax="1344" yMax="1925">
      <contour>
        <pt x="21" y="0" on="1"/>
        <pt x="583" y="1480" on="1"/>
        <pt x="791" y="1480" on="1"/>
        <pt x="1344" y="0" on="1"/>
        <pt x="1118" y="0" on="1"/>
        <pt x="964" y="410" on="1"/>
        <pt x="370" y="410" on="1"/>
        <pt x="216" y="0" on="1"/>
      </contour>
      <contour>
        <pt x="430" y="566" on="1"/>
        <pt x="906" y="566" on="1"/>
        <pt x="669" y="1200" on="1"/>
      </contour>
      <contour>
        <pt x="354" y="1925" on="1"/>
        <pt x="477" y="1925" on="1"/>
        <pt x="498" y="1831" on="0"/>
        <pt x="552" y="1791" on="1"/>
        <pt x="604" y="1752" on="0"/>
        <pt x="687" y="1752" on="1"/>
        <pt x="781" y="1752" on="0"/>
        <pt x="835" y="1801" on="1"/>
        <pt x="878" y="1841" on="0"/>
        <pt x="897" y="1925" on="1"/>
        <pt x="1020" y="1925" on="1"/>
        <pt x="1004" y="1791" on="0"/>
        <pt x="931" y="1710" on="1"/>
        <pt x="837" y="1604" on="0"/>
        <pt x="687" y="1604" on="1"/>
        <pt x="530" y="1604" on="0"/>
        <pt x="435" y="1719" on="1"/>
        <pt x="370" y="1797" on="0"/>
      </contour>
    </TTGlyph>
    <TTGlyph name="Acircumflex" xMin="19" yMin="0" xMax="1342" yMax="1925">
      <contour>
        <pt x="19" y="0" on="1"/>
        <pt x="581" y="1480" on="1"/>
        <pt x="789" y="1480" on="1"/>
        <pt x="1342" y="0" on="1"/>
        <pt x="1116" y="0" on="1"/>
        <pt x="962" y="410" on="1"/>
        <pt x="368" y="410" on="1"/>
        <pt x="214" y="0" on="1"/>
      </contour>
      <contour>
        <pt x="428" y="566" on="1"/>
        <pt x="904" y="566" on="1"/>
        <pt x="667" y="1200" on="1"/>
      </contour>
      <contour>
        <pt x="335" y="1604" on="1"/>
        <pt x="576" y="1925" on="1"/>
        <pt x="794" y="1925" on="1"/>
        <pt x="1035" y="1604" on="1"/>
        <pt x="887" y="1604" on="1"/>
        <pt x="686" y="1806" on="1"/>
        <pt x="684" y="1806" on="1"/>
        <pt x="483" y="1604" on="1"/>
      </contour>
    </TTGlyph>
    <TTGlyph name="Adieresis" xMin="19" yMin="0" xMax="1342" yMax="1777">
      <contour>
        <pt x="19" y="0" on="1"/>
        <pt x="581" y="1480" on="1"/>
        <pt x="789" y="1480" on="1"/>
        <pt x="1342" y="0" on="1"/>
        <pt x="1116" y="0" on="1"/>
        <pt x="962" y="410" on="1"/>
        <pt x="368" y="410" on="1"/>
        <pt x="214" y="0" on="1"/>
      </contour>
      <contour>
        <pt x="428" y="566" on="1"/>
        <pt x="904" y="566" on="1"/>
        <pt x="667" y="1200" on="1"/>
      </contour>
      <contour>
        <pt x="401" y="1604" on="1"/>
        <pt x="401" y="1777" on="1"/>
        <pt x="574" y="1777" on="1"/>
        <pt x="574" y="1604" on="1"/>
      </contour>
      <contour>
        <pt x="796" y="1604" on="1"/>
        <pt x="796" y="1777" on="1"/>
        <pt x="969" y="1777" on="1"/>
        <pt x="969" y="1604" on="1"/>
      </contour>
    </TTGlyph>
    <TTGlyph name="Agrave" xMin="19" yMin="0" xMax="1342" yMax="1925">
      <contour>
        <pt x="19" y="0" on="1"/>
        <pt x="581" y="1480" on="1"/>
        <pt x="789" y="1480" on="1"/>
        <pt x="1342" y="0" on="1"/>
        <pt x="1116" y="0" on="1"/>
        <pt x="962" y="410" on="1"/>
        <pt x="368" y="410" on="1"/>
        <pt x="214" y="0" on="1"/>
      </contour>
      <contour>
        <pt x="428" y="566" on="1"/>
        <pt x="904" y="566" on="1"/>
        <pt x="667" y="1200" on="1"/>
      </contour>
      <contour>
        <pt x="833" y="1604" on="1"/>
        <pt x="685" y="1604" on="1"/>
        <pt x="364" y="1925" on="1"/>
        <pt x="592" y="1925" on="1"/>
      </contour>
    </TTGlyph>
    <TTGlyph name="Amacron" xMin="21" yMin="0" xMax="1344" yMax="1752">
      <contour>
        <pt x="21" y="0" on="1"/>
        <pt x="583" y="1480" on="1"/>
        <pt x="791" y="1480" on="1"/>
        <pt x="1344" y="0" on="1"/>
        <pt x="1118" y="0" on="1"/>
        <pt x="964" y="410" on="1"/>
        <pt x="370" y="410" on="1"/>
        <pt x="216" y="0" on="1"/>
      </contour>
      <contour>
        <pt x="430" y="566" on="1"/>
        <pt x="906" y="566" on="1"/>
        <pt x="669" y="1200" on="1"/>
      </contour>
      <contour>
        <pt x="366" y="1604" on="1"/>
        <pt x="366" y="1752" on="1"/>
        <pt x="1008" y="1752" on="1"/>
        <pt x="1008" y="1604" on="1"/>
      </contour>
    </TTGlyph>
    <TTGlyph name="Aogonek" xMin="19" yMin="-370" xMax="1342" yMax="1480">
      <contour>
        <pt x="19" y="0" on="1"/>
        <pt x="581" y="1480" on="1"/>
        <pt x="789" y="1480" on="1"/>
        <pt x="1342" y="0" on="1"/>
        <pt x="1116" y="0" on="1"/>
        <pt x="962" y="410" on="1"/>
        <pt x="368" y="410" on="1"/>
        <pt x="214" y="0" on="1"/>
      </contour>
      <contour>
        <pt x="428" y="566" on="1"/>
        <pt x="904" y="566" on="1"/>
        <pt x="667" y="1200" on="1"/>
      </contour>
      <contour>
        <pt x="1116" y="0" on="1"/>
        <pt x="1223" y="0" on="1"/>
        <pt x="1095" y="-81" on="0"/>
        <pt x="1095" y="-179" on="1"/>
        <pt x="1095" y="-275" on="0"/>
        <pt x="1210" y="-275" on="1"/>
        <pt x="1263" y="-275" on="0"/>
        <pt x="1300" y="-260" on="1"/>
        <pt x="1300" y="-341" on="1"/>
        <pt x="1238" y="-370" on="0"/>
        <pt x="1161" y="-370" on="1"/>
        <pt x="958" y="-370" on="0"/>
        <pt x="958" y="-212" on="1"/>
        <pt x="958" y="-90" on="0"/>
      </contour>
    </TTGlyph>
    <TTGlyph name="Aring" xMin="19" yMin="0" xMax="1342" yMax="1935">
      <contour>
        <pt x="19" y="0" on="1"/>
        <pt x="581" y="1480" on="1"/>
        <pt x="789" y="1480" on="1"/>
        <pt x="1342" y="0" on="1"/>
        <pt x="1116" y="0" on="1"/>
        <pt x="962" y="410" on="1"/>
        <pt x="368" y="410" on="1"/>
        <pt x="214" y="0" on="1"/>
      </contour>
      <contour>
        <pt x="428" y="566" on="1"/>
        <pt x="904" y="566" on="1"/>
        <pt x="667" y="1200" on="1"/>
      </contour>
      <contour>
        <pt x="685" y="1935" on="1"/>
        <pt x="779" y="1935" on="0"/>
        <pt x="845" y="1869" on="1"/>
        <pt x="912" y="1803" on="0"/>
        <pt x="912" y="1709" on="1"/>
        <pt x="912" y="1614" on="0"/>
        <pt x="845" y="1547" on="1"/>
        <pt x="778" y="1481" on="0"/>
        <pt x="683" y="1481" on="1"/>
        <pt x="600" y="1481" on="0"/>
        <pt x="538" y="1535" on="1"/>
        <pt x="458" y="1604" on="0"/>
        <pt x="458" y="1708" on="1"/>
        <pt x="458" y="1802" on="0"/>
        <pt x="524" y="1868" on="1"/>
        <pt x="591" y="1935" on="0"/>
      </contour>
      <contour>
        <pt x="685" y="1848" on="1"/>
        <pt x="626" y="1848" on="0"/>
        <pt x="585" y="1808" on="1"/>
        <pt x="544" y="1767" on="0"/>
        <pt x="544" y="1708" on="1"/>
        <pt x="544" y="1650" on="0"/>
        <pt x="585" y="1609" on="1"/>
        <pt x="627" y="1567" on="0"/>
        <pt x="683" y="1567" on="1"/>
        <pt x="737" y="1567" on="0"/>
        <pt x="776" y="1600" on="1"/>
        <pt x="826" y="1643" on="0"/>
        <pt x="826" y="1709" on="1"/>
        <pt x="826" y="1767" on="0"/>
        <pt x="784" y="1808" on="1"/>
        <pt x="743" y="1848" on="0"/>
      </contour>
    </TTGlyph>
    <TTGlyph name="Atilde" xMin="19" yMin="0" xMax="1342" yMax="1838">
      <contour>
        <pt x="19" y="0" on="1"/>
        <pt x="581" y="1480" on="1"/>
        <pt x="789" y="1480" on="1"/>
        <pt x="1342" y="0" on="1"/>
        <pt x="1116" y="0" on="1"/>
        <pt x="962" y="410" on="1"/>
        <pt x="368" y="410" on="1"/>
        <pt x="214" y="0" on="1"/>
      </contour>
      <contour>
        <pt x="428" y="566" on="1"/>
        <pt x="904" y="566" on="1"/>
        <pt x="667" y="1200" on="1"/>
      </contour>
      <contour>
        <pt x="352" y="1604" on="1"/>
        <pt x="359" y="1697" on="0"/>
        <pt x="384" y="1748" on="1"/>
        <pt x="430" y="1838" on="0"/>
        <pt x="539" y="1838" on="1"/>
        <pt x="611" y="1838" on="0"/>
        <pt x="672" y="1800" on="1"/>
        <pt x="732" y="1763" on="1"/>
        <pt x="789" y="1728" on="0"/>
        <pt x="819" y="1728" on="1"/>
        <pt x="884" y="1728" on="0"/>
        <pt x="895" y="1838" on="1"/>
        <pt x="1018" y="1838" on="1"/>
        <pt x="1011" y="1744" on="0"/>
        <pt x="986" y="1694" on="1"/>
        <pt x="941" y="1604" on="0"/>
        <pt x="833" y="1604" on="1"/>
        <pt x="761" y="1604" on="0"/>
        <pt x="698" y="1643" on="1"/>
        <pt x="638" y="1680" on="1"/>
        <pt x="583" y="1714" on="0"/>
        <pt x="551" y="1714" on="1"/>
        <pt x="486" y="1714" on="0"/>
        <pt x="475" y="1604" on="1"/>
      </contour>
    </TTGlyph>
    <TTGlyph name="B" xMin="165" yMin="0" xMax="1231" yMax="1480">
      <contour>
        <pt x="165" y="0" on="1"/>
        <pt x="165" y="1480" on="1"/>
        <pt x="639" y="1480" on="1"/>
        <pt x="931" y="1480" on="0"/>
        <pt x="1051" y="1405" on="1"/>
        <pt x="1172" y="1329" on="0"/>
        <pt x="1172" y="1149" on="1"/>
        <pt x="1172" y="983" on="0"/>
        <pt x="1053" y="880" on="1"/>
        <pt x="981" y="818" on="0"/>
        <pt x="844" y="771" on="1"/>
        <pt x="1018" y="719" on="0"/>
        <pt x="1106" y="644" on="1"/>
        <pt x="1231" y="538" on="0"/>
        <pt x="1231" y="369" on="1"/>
        <pt x="1231" y="212" on="0"/>
        <pt x="1129" y="108" on="1"/>
        <pt x="1057" y="34" on="0"/>
        <pt x="940" y="15" on="1"/>
        <pt x="847" y="0" on="0"/>
        <pt x="691" y="0" on="1"/>
      </contour>
      <contour>
        <pt x="375" y="157" on="1"/>
        <pt x="530" y="157" on="1"/>
        <pt x="824" y="157" on="0"/>
        <pt x="917" y="201" on="1"/>
        <pt x="1009" y="244" on="0"/>
        <pt x="1009" y="383" on="1"/>
        <pt x="1009" y="536" on="0"/>
        <pt x="890" y="616" on="1"/>
        <pt x="771" y="697" on="0"/>
        <pt x="546" y="697" on="1"/>
        <pt x="375" y="697" on="1"/>
      </contour>
      <contour>
        <pt x="375" y="830" on="1"/>
        <pt x="554" y="830" on="1"/>
        <pt x="956" y="830" on="0"/>
        <pt x="956" y="1113" on="1"/>
        <pt x="956" y="1256" on="0"/>
        <pt x="841" y="1294" on="1"/>
        <pt x="753" y="1323" on="0"/>
        <pt x="569" y="1323" on="1"/>
        <pt x="375" y="1323" on="1"/>
      </contour>
    </TTGlyph>
    <TTGlyph name="C" xMin="116" yMin="-37" xMax="1352" yMax="1517">
      <contour>
        <pt x="1352" y="76" on="1"/>
        <pt x="1123" y="-37" on="0"/>
        <pt x="862" y="-37" on="1"/>
        <pt x="497" y="-37" on="0"/>
        <pt x="307" y="161" on="1"/>
        <pt x="116" y="359" on="0"/>
        <pt x="116" y="738" on="1"/>
        <pt x="116" y="1116" on="0"/>
        <pt x="310" y="1317" on="1"/>
        <pt x="504" y="1517" on="0"/>
        <pt x="871" y="1517" on="1"/>
        <pt x="1076" y="1517" on="0"/>
        <pt x="1350" y="1452" on="1"/>
        <pt x="1350" y="1255" on="1"/>
        <pt x="1039" y="1360" on="0"/>
        <pt x="860" y="1360" on="1"/>
        <pt x="609" y="1360" on="0"/>
        <pt x="475" y="1200" on="1"/>
        <pt x="341" y="1041" on="0"/>
        <pt x="341" y="740" on="1"/>
        <pt x="341" y="446" on="0"/>
        <pt x="484" y="287" on="1"/>
        <pt x="627" y="127" on="0"/>
        <pt x="886" y="127" on="1"/>
        <pt x="1103" y="127" on="0"/>
        <pt x="1352" y="256" on="1"/>
      </contour>
    </TTGlyph>
    <TTGlyph name="Cacute" xMin="116" yMin="-37" xMax="1352" yMax="1925">
      <contour>
        <pt x="1352" y="76" on="1"/>
        <pt x="1123" y="-37" on="0"/>
        <pt x="862" y="-37" on="1"/>
        <pt x="497" y="-37" on="0"/>
        <pt x="307" y="161" on="1"/>
        <pt x="116" y="359" on="0"/>
        <pt x="116" y="738" on="1"/>
        <pt x="116" y="1116" on="0"/>
        <pt x="310" y="1317" on="1"/>
        <pt x="504" y="1517" on="0"/>
        <pt x="871" y="1517" on="1"/>
        <pt x="1076" y="1517" on="0"/>
        <pt x="1350" y="1452" on="1"/>
        <pt x="1350" y="1255" on="1"/>
        <pt x="1039" y="1360" on="0"/>
        <pt x="860" y="1360" on="1"/>
        <pt x="609" y="1360" on="0"/>
        <pt x="475" y="1200" on="1"/>
        <pt x="341" y="1041" on="0"/>
        <pt x="341" y="740" on="1"/>
        <pt x="341" y="446" on="0"/>
        <pt x="484" y="287" on="1"/>
        <pt x="627" y="127" on="0"/>
        <pt x="886" y="127" on="1"/>
        <pt x="1103" y="127" on="0"/>
        <pt x="1352" y="256" on="1"/>
      </contour>
      <contour>
        <pt x="705" y="1604" on="1"/>
        <pt x="946" y="1925" on="1"/>
        <pt x="1174" y="1925" on="1"/>
        <pt x="853" y="1604" on="1"/>
      </contour>
    </TTGlyph>
    <TTGlyph name="Ccaron" xMin="116" yMin="-37" xMax="1352" yMax="1925">
      <contour>
        <pt x="1352" y="76" on="1"/>
        <pt x="1123" y="-37" on="0"/>
        <pt x="862" y="-37" on="1"/>
        <pt x="497" y="-37" on="0"/>
        <pt x="307" y="161" on="1"/>
        <pt x="116" y="359" on="0"/>
        <pt x="116" y="738" on="1"/>
        <pt x="116" y="1116" on="0"/>
        <pt x="310" y="1317" on="1"/>
        <pt x="504" y="1517" on="0"/>
        <pt x="871" y="1517" on="1"/>
        <pt x="1076" y="1517" on="0"/>
        <pt x="1350" y="1452" on="1"/>
        <pt x="1350" y="1255" on="1"/>
        <pt x="1039" y="1360" on="0"/>
        <pt x="860" y="1360" on="1"/>
        <pt x="609" y="1360" on="0"/>
        <pt x="475" y="1200" on="1"/>
        <pt x="341" y="1041" on="0"/>
        <pt x="341" y="740" on="1"/>
        <pt x="341" y="446" on="0"/>
        <pt x="484" y="287" on="1"/>
        <pt x="627" y="127" on="0"/>
        <pt x="886" y="127" on="1"/>
        <pt x="1103" y="127" on="0"/>
        <pt x="1352" y="256" on="1"/>
      </contour>
      <contour>
        <pt x="1203" y="1925" on="1"/>
        <pt x="962" y="1604" on="1"/>
        <pt x="744" y="1604" on="1"/>
        <pt x="503" y="1925" on="1"/>
        <pt x="651" y="1925" on="1"/>
        <pt x="852" y="1723" on="1"/>
        <pt x="854" y="1723" on="1"/>
        <pt x="1055" y="1925" on="1"/>
      </contour>
    </TTGlyph>
    <TTGlyph name="Ccedilla" xMin="116" yMin="-432" xMax="1352" yMax="1517">
      <contour>
        <pt x="1352" y="76" on="1"/>
        <pt x="1123" y="-37" on="0"/>
        <pt x="862" y="-37" on="1"/>
        <pt x="497" y="-37" on="0"/>
        <pt x="307" y="161" on="1"/>
        <pt x="116" y="359" on="0"/>
        <pt x="116" y="738" on="1"/>
        <pt x="116" y="1116" on="0"/>
        <pt x="310" y="1317" on="1"/>
        <pt x="504" y="1517" on="0"/>
        <pt x="871" y="1517" on="1"/>
        <pt x="1076" y="1517" on="0"/>
        <pt x="1350" y="1452" on="1"/>
        <pt x="1350" y="1255" on="1"/>
        <pt x="1039" y="1360" on="0"/>
        <pt x="860" y="1360" on="1"/>
        <pt x="609" y="1360" on="0"/>
        <pt x="475" y="1200" on="1"/>
        <pt x="341" y="1041" on="0"/>
        <pt x="341" y="740" on="1"/>
        <pt x="341" y="446" on="0"/>
        <pt x="484" y="287" on="1"/>
        <pt x="627" y="127" on="0"/>
        <pt x="886" y="127" on="1"/>
        <pt x="1103" y="127" on="0"/>
        <pt x="1352" y="256" on="1"/>
      </contour>
      <contour>
        <pt x="767" y="0" on="1"/>
        <pt x="864" y="0" on="1"/>
        <pt x="804" y="-109" on="1"/>
        <pt x="876" y="-111" on="0"/>
        <pt x="928" y="-148" on="1"/>
        <pt x="998" y="-197" on="0"/>
        <pt x="998" y="-269" on="1"/>
        <pt x="998" y="-337" on="0"/>
        <pt x="939" y="-384" on="1"/>
        <pt x="880" y="-432" on="0"/>
        <pt x="795" y="-432" on="1"/>
        <pt x="728" y="-432" on="0"/>
        <pt x="651" y="-411" on="1"/>
        <pt x="651" y="-330" on="1"/>
        <pt x="701" y="-345" on="0"/>
        <pt x="755" y="-345" on="1"/>
        <pt x="859" y="-345" on="0"/>
        <pt x="859" y="-271" on="1"/>
        <pt x="859" y="-178" on="0"/>
        <pt x="672" y="-175" on="1"/>
      </contour>
    </TTGlyph>
    <TTGlyph name="Ccircumflex" xMin="116" yMin="-37" xMax="1352" yMax="1925">
      <contour>
        <pt x="1352" y="76" on="1"/>
        <pt x="1123" y="-37" on="0"/>
        <pt x="862" y="-37" on="1"/>
        <pt x="497" y="-37" on="0"/>
        <pt x="307" y="161" on="1"/>
        <pt x="116" y="359" on="0"/>
        <pt x="116" y="738" on="1"/>
        <pt x="116" y="1116" on="0"/>
        <pt x="310" y="1317" on="1"/>
        <pt x="504" y="1517" on="0"/>
        <pt x="871" y="1517" on="1"/>
        <pt x="1076" y="1517" on="0"/>
        <pt x="1350" y="1452" on="1"/>
        <pt x="1350" y="1255" on="1"/>
        <pt x="1039" y="1360" on="0"/>
        <pt x="860" y="1360" on="1"/>
        <pt x="609" y="1360" on="0"/>
        <pt x="475" y="1200" on="1"/>
        <pt x="341" y="1041" on="0"/>
        <pt x="341" y="740" on="1"/>
        <pt x="341" y="446" on="0"/>
        <pt x="484" y="287" on="1"/>
        <pt x="627" y="127" on="0"/>
        <pt x="886" y="127" on="1"/>
        <pt x="1103" y="127" on="0"/>
        <pt x="1352" y="256" on="1"/>
      </contour>
      <contour>
        <pt x="503" y="1604" on="1"/>
        <pt x="744" y="1925" on="1"/>
        <pt x="962" y="1925" on="1"/>
        <pt x="1203" y="1604" on="1"/>
        <pt x="1055" y="1604" on="1"/>
        <pt x="854" y="1806" on="1"/>
        <pt x="852" y="1806" on="1"/>
        <pt x="651" y="1604" on="1"/>
      </contour>
    </TTGlyph>
    <TTGlyph name="Cdotaccent" xMin="116" yMin="-37" xMax="1352" yMax="1801">
      <contour>
        <pt x="1352" y="76" on="1"/>
        <pt x="1123" y="-37" on="0"/>
        <pt x="862" y="-37" on="1"/>
        <pt x="497" y="-37" on="0"/>
        <pt x="307" y="161" on="1"/>
        <pt x="116" y="359" on="0"/>
        <pt x="116" y="738" on="1"/>
        <pt x="116" y="1116" on="0"/>
        <pt x="310" y="1317" on="1"/>
        <pt x="504" y="1517" on="0"/>
        <pt x="871" y="1517" on="1"/>
        <pt x="1076" y="1517" on="0"/>
        <pt x="1350" y="1452" on="1"/>
        <pt x="1350" y="1255" on="1"/>
        <pt x="1039" y="1360" on="0"/>
        <pt x="860" y="1360" on="1"/>
        <pt x="609" y="1360" on="0"/>
        <pt x="475" y="1200" on="1"/>
        <pt x="341" y="1041" on="0"/>
        <pt x="341" y="740" on="1"/>
        <pt x="341" y="446" on="0"/>
        <pt x="484" y="287" on="1"/>
        <pt x="627" y="127" on="0"/>
        <pt x="886" y="127" on="1"/>
        <pt x="1103" y="127" on="0"/>
        <pt x="1352" y="256" on="1"/>
      </contour>
      <contour>
        <pt x="754" y="1604" on="1"/>
        <pt x="754" y="1801" on="1"/>
        <pt x="951" y="1801" on="1"/>
        <pt x="951" y="1604" on="1"/>
      </contour>
    </TTGlyph>
    <TTGlyph name="D" xMin="165" yMin="0" xMax="1386" yMax="1480">
      <contour>
        <pt x="165" y="0" on="1"/>
        <pt x="165" y="1480" on="1"/>
        <pt x="639" y="1480" on="1"/>
        <pt x="1386" y="1480" on="0"/>
        <pt x="1386" y="774" on="1"/>
        <pt x="1386" y="406" on="0"/>
        <pt x="1191" y="203" on="1"/>
        <pt x="997" y="0" on="0"/>
        <pt x="642" y="0" on="1"/>
      </contour>
      <contour>
        <pt x="375" y="157" on="1"/>
        <pt x="627" y="157" on="1"/>
        <pt x="1161" y="157" on="0"/>
        <pt x="1161" y="750" on="1"/>
        <pt x="1161" y="1099" on="0"/>
        <pt x="950" y="1242" on="1"/>
        <pt x="888" y="1284" on="0"/>
        <pt x="803" y="1302" on="1"/>
        <pt x="700" y="1323" on="0"/>
        <pt x="530" y="1323" on="1"/>
        <pt x="375" y="1323" on="1"/>
      </contour>
    </TTGlyph>
    <TTGlyph name="Dcaron" xMin="165" yMin="0" xMax="1386" yMax="1925">
      <contour>
        <pt x="165" y="0" on="1"/>
        <pt x="165" y="1480" on="1"/>
        <pt x="639" y="1480" on="1"/>
        <pt x="1386" y="1480" on="0"/>
        <pt x="1386" y="774" on="1"/>
        <pt x="1386" y="406" on="0"/>
        <pt x="1191" y="203" on="1"/>
        <pt x="997" y="0" on="0"/>
        <pt x="642" y="0" on="1"/>
      </contour>
      <contour>
        <pt x="375" y="157" on="1"/>
        <pt x="627" y="157" on="1"/>
        <pt x="1161" y="157" on="0"/>
        <pt x="1161" y="750" on="1"/>
        <pt x="1161" y="1099" on="0"/>
        <pt x="950" y="1242" on="1"/>
        <pt x="888" y="1284" on="0"/>
        <pt x="803" y="1302" on="1"/>
        <pt x="700" y="1323" on="0"/>
        <pt x="530" y="1323" on="1"/>
        <pt x="375" y="1323" on="1"/>
      </contour>
      <contour>
        <pt x="1032" y="1925" on="1"/>
        <pt x="791" y="1604" on="1"/>
        <pt x="573" y="1604" on="1"/>
        <pt x="332" y="1925" on="1"/>
        <pt x="480" y="1925" on="1"/>
        <pt x="681" y="1723" on="1"/>
        <pt x="683" y="1723" on="1"/>
        <pt x="884" y="1925" on="1"/>
      </contour>
    </TTGlyph>
    <TTGlyph name="Dcroat" xMin="5" yMin="0" xMax="1386" yMax="1480">
      <contour>
        <pt x="165" y="0" on="1"/>
        <pt x="165" y="679" on="1"/>
        <pt x="5" y="679" on="1"/>
        <pt x="5" y="836" on="1"/>
        <pt x="165" y="836" on="1"/>
        <pt x="165" y="1480" on="1"/>
        <pt x="639" y="1480" on="1"/>
        <pt x="1386" y="1480" on="0"/>
        <pt x="1386" y="774" on="1"/>
        <pt x="1386" y="406" on="0"/>
        <pt x="1191" y="203" on="1"/>
        <pt x="996" y="0" on="0"/>
        <pt x="642" y="0" on="1"/>
      </contour>
      <contour>
        <pt x="375" y="157" on="1"/>
        <pt x="627" y="157" on="1"/>
        <pt x="1161" y="157" on="0"/>
        <pt x="1161" y="750" on="1"/>
        <pt x="1161" y="1099" on="0"/>
        <pt x="950" y="1242" on="1"/>
        <pt x="888" y="1284" on="0"/>
        <pt x="803" y="1302" on="1"/>
        <pt x="700" y="1323" on="0"/>
        <pt x="530" y="1323" on="1"/>
        <pt x="375" y="1323" on="1"/>
        <pt x="375" y="836" on="1"/>
        <pt x="708" y="836" on="1"/>
        <pt x="708" y="679" on="1"/>
        <pt x="375" y="679" on="1"/>
      </contour>
    </TTGlyph>
    <TTGlyph name="E" xMin="191" yMin="0" xMax="1308" yMax="1480">
      <contour>
        <pt x="191" y="0" on="1"/>
        <pt x="191" y="1480" on="1"/>
        <pt x="1264" y="1480" on="1"/>
        <pt x="1264" y="1323" on="1"/>
        <pt x="401" y="1323" on="1"/>
        <pt x="401" y="848" on="1"/>
        <pt x="1165" y="848" on="1"/>
        <pt x="1165" y="693" on="1"/>
        <pt x="401" y="693" on="1"/>
        <pt x="401" y="157" on="1"/>
        <pt x="1308" y="157" on="1"/>
        <pt x="1308" y="0" on="1"/>
      </contour>
    </TTGlyph>
    <TTGlyph name="Eacute" xMin="191" yMin="0" xMax="1308" yMax="1925">
      <contour>
        <pt x="191" y="0" on="1"/>
        <pt x="191" y="1480" on="1"/>
        <pt x="1264" y="1480" on="1"/>
        <pt x="1264" y="1323" on="1"/>
        <pt x="401" y="1323" on="1"/>
        <pt x="401" y="848" on="1"/>
        <pt x="1165" y="848" on="1"/>
        <pt x="1165" y="693" on="1"/>
        <pt x="401" y="693" on="1"/>
        <pt x="401" y="157" on="1"/>
        <pt x="1308" y="157" on="1"/>
        <pt x="1308" y="0" on="1"/>
      </contour>
      <contour>
        <pt x="598" y="1604" on="1"/>
        <pt x="839" y="1925" on="1"/>
        <pt x="1067" y="1925" on="1"/>
        <pt x="746" y="1604" on="1"/>
      </contour>
    </TTGlyph>
    <TTGlyph name="Ebreve" xMin="191" yMin="0" xMax="1308" yMax="1925">
      <contour>
        <pt x="191" y="0" on="1"/>
        <pt x="191" y="1480" on="1"/>
        <pt x="1264" y="1480" on="1"/>
        <pt x="1264" y="1323" on="1"/>
        <pt x="401" y="1323" on="1"/>
        <pt x="401" y="848" on="1"/>
        <pt x="1165" y="848" on="1"/>
        <pt x="1165" y="693" on="1"/>
        <pt x="401" y="693" on="1"/>
        <pt x="401" y="157" on="1"/>
        <pt x="1308" y="157" on="1"/>
        <pt x="1308" y="0" on="1"/>
      </contour>
      <contour>
        <pt x="404" y="1925" on="1"/>
        <pt x="527" y="1925" on="1"/>
        <pt x="548" y="1831" on="0"/>
        <pt x="602" y="1791" on="1"/>
        <pt x="654" y="1752" on="0"/>
        <pt x="737" y="1752" on="1"/>
        <pt x="831" y="1752" on="0"/>
        <pt x="885" y="1801" on="1"/>
        <pt x="928" y="1841" on="0"/>
        <pt x="947" y="1925" on="1"/>
        <pt x="1070" y="1925" on="1"/>
        <pt x="1054" y="1791" on="0"/>
        <pt x="981" y="1710" on="1"/>
        <pt x="887" y="1604" on="0"/>
        <pt x="737" y="1604" on="1"/>
        <pt x="580" y="1604" on="0"/>
        <pt x="485" y="1719" on="1"/>
        <pt x="420" y="1797" on="0"/>
      </contour>
    </TTGlyph>
    <TTGlyph name="Ecaron" xMin="191" yMin="0" xMax="1308" yMax="1925">
      <contour>
        <pt x="191" y="0" on="1"/>
        <pt x="191" y="1480" on="1"/>
        <pt x="1264" y="1480" on="1"/>
        <pt x="1264" y="1323" on="1"/>
        <pt x="401" y="1323" on="1"/>
        <pt x="401" y="848" on="1"/>
        <pt x="1165" y="848" on="1"/>
        <pt x="1165" y="693" on="1"/>
        <pt x="401" y="693" on="1"/>
        <pt x="401" y="157" on="1"/>
        <pt x="1308" y="157" on="1"/>
        <pt x="1308" y="0" on="1"/>
      </contour>
      <contour>
        <pt x="1082" y="1925" on="1"/>
        <pt x="841" y="1604" on="1"/>
        <pt x="623" y="1604" on="1"/>
        <pt x="382" y="1925" on="1"/>
        <pt x="530" y="1925" on="1"/>
        <pt x="731" y="1723" on="1"/>
        <pt x="733" y="1723" on="1"/>
        <pt x="934" y="1925" on="1"/>
      </contour>
    </TTGlyph>
    <TTGlyph name="Ecircumflex" xMin="191" yMin="0" xMax="1308" yMax="1925">
      <contour>
        <pt x="191" y="0" on="1"/>
        <pt x="191" y="1480" on="1"/>
        <pt x="1264" y="1480" on="1"/>
        <pt x="1264" y="1323" on="1"/>
        <pt x="401" y="1323" on="1"/>
        <pt x="401" y="848" on="1"/>
        <pt x="1165" y="848" on="1"/>
        <pt x="1165" y="693" on="1"/>
        <pt x="401" y="693" on="1"/>
        <pt x="401" y="157" on="1"/>
        <pt x="1308" y="157" on="1"/>
        <pt x="1308" y="0" on="1"/>
      </contour>
      <contour>
        <pt x="399" y="1604" on="1"/>
        <pt x="640" y="1925" on="1"/>
        <pt x="858" y="1925" on="1"/>
        <pt x="1099" y="1604" on="1"/>
        <pt x="951" y="1604" on="1"/>
        <pt x="750" y="1806" on="1"/>
        <pt x="748" y="1806" on="1"/>
        <pt x="547" y="1604" on="1"/>
      </contour>
    </TTGlyph>
    <TTGlyph name="Edieresis" xMin="191" yMin="0" xMax="1308" yMax="1777">
      <contour>
        <pt x="191" y="0" on="1"/>
        <pt x="191" y="1480" on="1"/>
        <pt x="1264" y="1480" on="1"/>
        <pt x="1264" y="1323" on="1"/>
        <pt x="401" y="1323" on="1"/>
        <pt x="401" y="848" on="1"/>
        <pt x="1165" y="848" on="1"/>
        <pt x="1165" y="693" on="1"/>
        <pt x="401" y="693" on="1"/>
        <pt x="401" y="157" on="1"/>
        <pt x="1308" y="157" on="1"/>
        <pt x="1308" y="0" on="1"/>
      </contour>
      <contour>
        <pt x="450" y="1604" on="1"/>
        <pt x="450" y="1777" on="1"/>
        <pt x="623" y="1777" on="1"/>
        <pt x="623" y="1604" on="1"/>
      </contour>
      <contour>
        <pt x="845" y="1604" on="1"/>
        <pt x="845" y="1777" on="1"/>
        <pt x="1018" y="1777" on="1"/>
        <pt x="1018" y="1604" on="1"/>
      </contour>
    </TTGlyph>
    <TTGlyph name="Edotaccent" xMin="191" yMin="0" xMax="1308" yMax="1801">
      <contour>
        <pt x="191" y="0" on="1"/>
        <pt x="191" y="1480" on="1"/>
        <pt x="1264" y="1480" on="1"/>
        <pt x="1264" y="1323" on="1"/>
        <pt x="401" y="1323" on="1"/>
        <pt x="401" y="848" on="1"/>
        <pt x="1165" y="848" on="1"/>
        <pt x="1165" y="693" on="1"/>
        <pt x="401" y="693" on="1"/>
        <pt x="401" y="157" on="1"/>
        <pt x="1308" y="157" on="1"/>
        <pt x="1308" y="0" on="1"/>
      </contour>
      <contour>
        <pt x="635" y="1604" on="1"/>
        <pt x="635" y="1801" on="1"/>
        <pt x="832" y="1801" on="1"/>
        <pt x="832" y="1604" on="1"/>
      </contour>
    </TTGlyph>
    <TTGlyph name="Egrave" xMin="191" yMin="0" xMax="1308" yMax="1925">
      <contour>
        <pt x="191" y="0" on="1"/>
        <pt x="191" y="1480" on="1"/>
        <pt x="1264" y="1480" on="1"/>
        <pt x="1264" y="1323" on="1"/>
        <pt x="401" y="1323" on="1"/>
        <pt x="401" y="848" on="1"/>
        <pt x="1165" y="848" on="1"/>
        <pt x="1165" y="693" on="1"/>
        <pt x="401" y="693" on="1"/>
        <pt x="401" y="157" on="1"/>
        <pt x="1308" y="157" on="1"/>
        <pt x="1308" y="0" on="1"/>
      </contour>
      <contour>
        <pt x="894" y="1604" on="1"/>
        <pt x="746" y="1604" on="1"/>
        <pt x="425" y="1925" on="1"/>
        <pt x="653" y="1925" on="1"/>
      </contour>
    </TTGlyph>
    <TTGlyph name="Emacron" xMin="191" yMin="0" xMax="1308" yMax="1752">
      <contour>
        <pt x="191" y="0" on="1"/>
        <pt x="191" y="1480" on="1"/>
        <pt x="1264" y="1480" on="1"/>
        <pt x="1264" y="1323" on="1"/>
        <pt x="401" y="1323" on="1"/>
        <pt x="401" y="848" on="1"/>
        <pt x="1165" y="848" on="1"/>
        <pt x="1165" y="693" on="1"/>
        <pt x="401" y="693" on="1"/>
        <pt x="401" y="157" on="1"/>
        <pt x="1308" y="157" on="1"/>
        <pt x="1308" y="0" on="1"/>
      </contour>
      <contour>
        <pt x="401" y="1604" on="1"/>
        <pt x="401" y="1752" on="1"/>
        <pt x="1043" y="1752" on="1"/>
        <pt x="1043" y="1604" on="1"/>
      </contour>
    </TTGlyph>
    <TTGlyph name="Eng" xMin="165" yMin="-420" xMax="1313" yMax="1480">
      <contour>
        <pt x="165" y="0" on="1"/>
        <pt x="165" y="1480" on="1"/>
        <pt x="370" y="1480" on="1"/>
        <pt x="1133" y="337" on="1"/>
        <pt x="1133" y="1480" on="1"/>
        <pt x="1313" y="1480" on="1"/>
        <pt x="1313" y="-92" on="1"/>
        <pt x="1313" y="-420" on="0"/>
        <pt x="995" y="-420" on="1"/>
        <pt x="921" y="-420" on="0"/>
        <pt x="844" y="-399" on="1"/>
        <pt x="844" y="-245" on="1"/>
        <pt x="910" y="-272" on="0"/>
        <pt x="985" y="-272" on="1"/>
        <pt x="1133" y="-272" on="0"/>
        <pt x="1133" y="-55" on="1"/>
        <pt x="1133" y="-40" on="1"/>
        <pt x="345" y="1143" on="1"/>
        <pt x="345" y="0" on="1"/>
      </contour>
    </TTGlyph>
    <TTGlyph name="Eogonek" xMin="191" yMin="-370" xMax="1308" yMax="1480">
      <contour>
        <pt x="191" y="0" on="1"/>
        <pt x="191" y="1480" on="1"/>
        <pt x="1264" y="1480" on="1"/>
        <pt x="1264" y="1323" on="1"/>
        <pt x="401" y="1323" on="1"/>
        <pt x="401" y="848" on="1"/>
        <pt x="1165" y="848" on="1"/>
        <pt x="1165" y="693" on="1"/>
        <pt x="401" y="693" on="1"/>
        <pt x="401" y="157" on="1"/>
        <pt x="1308" y="157" on="1"/>
        <pt x="1308" y="0" on="1"/>
      </contour>
      <contour>
        <pt x="1075" y="0" on="1"/>
        <pt x="1182" y="0" on="1"/>
        <pt x="1054" y="-81" on="0"/>
        <pt x="1054" y="-179" on="1"/>
        <pt x="1054" y="-275" on="0"/>
        <pt x="1169" y="-275" on="1"/>
        <pt x="1222" y="-275" on="0"/>
        <pt x="1259" y="-260" on="1"/>
        <pt x="1259" y="-341" on="1"/>
        <pt x="1197" y="-370" on="0"/>
        <pt x="1120" y="-370" on="1"/>
        <pt x="917" y="-370" on="0"/>
        <pt x="917" y="-212" on="1"/>
        <pt x="917" y="-90" on="0"/>
      </contour>
    </TTGlyph>
    <TTGlyph name="Eth" xMin="5" yMin="0" xMax="1386" yMax="1480">
      <contour>
        <pt x="165" y="0" on="1"/>
        <pt x="165" y="679" on="1"/>
        <pt x="5" y="679" on="1"/>
        <pt x="5" y="836" on="1"/>
        <pt x="165" y="836" on="1"/>
        <pt x="165" y="1480" on="1"/>
        <pt x="639" y="1480" on="1"/>
        <pt x="1386" y="1480" on="0"/>
        <pt x="1386" y="774" on="1"/>
        <pt x="1386" y="406" on="0"/>
        <pt x="1191" y="203" on="1"/>
        <pt x="996" y="0" on="0"/>
        <pt x="642" y="0" on="1"/>
      </contour>
      <contour>
        <pt x="375" y="157" on="1"/>
        <pt x="627" y="157" on="1"/>
        <pt x="1161" y="157" on="0"/>
        <pt x="1161" y="750" on="1"/>
        <pt x="1161" y="1099" on="0"/>
        <pt x="950" y="1242" on="1"/>
        <pt x="888" y="1284" on="0"/>
        <pt x="803" y="1302" on="1"/>
        <pt x="700" y="1323" on="0"/>
        <pt x="530" y="1323" on="1"/>
        <pt x="375" y="1323" on="1"/>
        <pt x="375" y="836" on="1"/>
        <pt x="708" y="836" on="1"/>
        <pt x="708" y="679" on="1"/>
        <pt x="375" y="679" on="1"/>
      </contour>
    </TTGlyph>
    <TTGlyph name="Euro" xMin="0" yMin="-37" xMax="1080" yMax="1515">
      <contour>
        <pt x="377" y="537" on="1"/>
        <pt x="416" y="376" on="0"/>
        <pt x="475" y="288" on="1"/>
        <pt x="582" y="127" on="0"/>
        <pt x="773" y="127" on="1"/>
        <pt x="898" y="127" on="0"/>
        <pt x="1080" y="199" on="1"/>
        <pt x="1080" y="27" on="1"/>
        <pt x="884" y="-37" on="0"/>
        <pt x="748" y="-37" on="1"/>
        <pt x="516" y="-37" on="0"/>
        <pt x="372" y="100" on="1"/>
        <pt x="270" y="197" on="0"/>
        <pt x="219" y="357" on="1"/>
        <pt x="200" y="415" on="0"/>
        <pt x="177" y="537" on="1"/>
        <pt x="0" y="537" on="1"/>
        <pt x="51" y="660" on="1"/>
        <pt x="162" y="660" on="1"/>
        <pt x="160" y="735" on="1"/>
        <pt x="160" y="739" on="0"/>
        <pt x="161" y="758" on="1"/>
        <pt x="162" y="801" on="0"/>
        <pt x="165" y="857" on="1"/>
        <pt x="0" y="857" on="1"/>
        <pt x="51" y="981" on="1"/>
        <pt x="183" y="981" on="1"/>
        <pt x="223" y="1147" on="0"/>
        <pt x="271" y="1232" on="1"/>
        <pt x="429" y="1515" on="0"/>
        <pt x="782" y="1515" on="1"/>
        <pt x="908" y="1515" on="0"/>
        <pt x="1079" y="1471" on="1"/>
        <pt x="1079" y="1289" on="1"/>
        <pt x="911" y="1360" on="0"/>
        <pt x="784" y="1360" on="1"/>
        <pt x="607" y="1360" on="0"/>
        <pt x="502" y="1232" on="1"/>
        <pt x="442" y="1158" on="0"/>
        <pt x="410" y="1066" on="1"/>
        <pt x="397" y="1030" on="0"/>
        <pt x="383" y="981" on="1"/>
        <pt x="950" y="981" on="1"/>
        <pt x="899" y="857" on="1"/>
        <pt x="362" y="857" on="1"/>
        <pt x="358" y="783" on="0"/>
        <pt x="357" y="736" on="1"/>
        <pt x="359" y="660" on="1"/>
        <pt x="818" y="660" on="1"/>
        <pt x="767" y="537" on="1"/>
      </contour>
    </TTGlyph>
    <TTGlyph name="Euro#1" xMin="0" yMin="-37" xMax="1080" yMax="1515">
      <contour>
        <pt x="377" y="537" on="1"/>
        <pt x="416" y="376" on="0"/>
        <pt x="475" y="288" on="1"/>
        <pt x="582" y="127" on="0"/>
        <pt x="773" y="127" on="1"/>
        <pt x="898" y="127" on="0"/>
        <pt x="1080" y="199" on="1"/>
        <pt x="1080" y="27" on="1"/>
        <pt x="884" y="-37" on="0"/>
        <pt x="748" y="-37" on="1"/>
        <pt x="516" y="-37" on="0"/>
        <pt x="372" y="100" on="1"/>
        <pt x="270" y="197" on="0"/>
        <pt x="219" y="357" on="1"/>
        <pt x="200" y="415" on="0"/>
        <pt x="177" y="537" on="1"/>
        <pt x="0" y="537" on="1"/>
        <pt x="51" y="660" on="1"/>
        <pt x="162" y="660" on="1"/>
        <pt x="160" y="735" on="1"/>
        <pt x="160" y="739" on="0"/>
        <pt x="161" y="758" on="1"/>
        <pt x="162" y="801" on="0"/>
        <pt x="165" y="857" on="1"/>
        <pt x="0" y="857" on="1"/>
        <pt x="51" y="981" on="1"/>
        <pt x="183" y="981" on="1"/>
        <pt x="223" y="1147" on="0"/>
        <pt x="271" y="1232" on="1"/>
        <pt x="429" y="1515" on="0"/>
        <pt x="782" y="1515" on="1"/>
        <pt x="908" y="1515" on="0"/>
        <pt x="1079" y="1471" on="1"/>
        <pt x="1079" y="1289" on="1"/>
        <pt x="911" y="1360" on="0"/>
        <pt x="784" y="1360" on="1"/>
        <pt x="607" y="1360" on="0"/>
        <pt x="502" y="1232" on="1"/>
        <pt x="442" y="1158" on="0"/>
        <pt x="410" y="1066" on="1"/>
        <pt x="397" y="1030" on="0"/>
        <pt x="383" y="981" on="1"/>
        <pt x="950" y="981" on="1"/>
        <pt x="899" y="857" on="1"/>
        <pt x="362" y="857" on="1"/>
        <pt x="358" y="783" on="0"/>
        <pt x="357" y="736" on="1"/>
        <pt x="359" y="660" on="1"/>
        <pt x="818" y="660" on="1"/>
        <pt x="767" y="537" on="1"/>
      </contour>
    </TTGlyph>
    <TTGlyph name="F" xMin="191" yMin="0" xMax="1196" yMax="1480">
      <contour>
        <pt x="191" y="0" on="1"/>
        <pt x="191" y="1480" on="1"/>
        <pt x="1196" y="1480" on="1"/>
        <pt x="1196" y="1323" on="1"/>
        <pt x="401" y="1323" on="1"/>
        <pt x="401" y="827" on="1"/>
        <pt x="1096" y="827" on="1"/>
        <pt x="1096" y="672" on="1"/>
        <pt x="401" y="672" on="1"/>
        <pt x="401" y="0" on="1"/>
      </contour>
    </TTGlyph>
    <TTGlyph name="G" xMin="93" yMin="-37" xMax="1405" yMax="1517">
      <contour>
        <pt x="1405" y="688" on="1"/>
        <pt x="1405" y="40" on="1"/>
        <pt x="1131" y="-37" on="0"/>
        <pt x="871" y="-37" on="1"/>
        <pt x="93" y="-37" on="0"/>
        <pt x="93" y="735" on="1"/>
        <pt x="93" y="1113" on="0"/>
        <pt x="294" y="1315" on="1"/>
        <pt x="496" y="1517" on="0"/>
        <pt x="877" y="1517" on="1"/>
        <pt x="1123" y="1517" on="0"/>
        <pt x="1403" y="1450" on="1"/>
        <pt x="1403" y="1256" on="1"/>
        <pt x="1082" y="1360" on="0"/>
        <pt x="868" y="1360" on="1"/>
        <pt x="318" y="1360" on="0"/>
        <pt x="318" y="744" on="1"/>
        <pt x="318" y="440" on="0"/>
        <pt x="470" y="280" on="1"/>
        <pt x="621" y="120" on="0"/>
        <pt x="900" y="120" on="1"/>
        <pt x="1015" y="120" on="0"/>
        <pt x="1196" y="157" on="1"/>
        <pt x="1196" y="534" on="1"/>
        <pt x="949" y="534" on="1"/>
        <pt x="949" y="688" on="1"/>
      </contour>
    </TTGlyph>
    <TTGlyph name="Gbreve" xMin="93" yMin="-37" xMax="1405" yMax="1925">
      <contour>
        <pt x="1405" y="688" on="1"/>
        <pt x="1405" y="40" on="1"/>
        <pt x="1131" y="-37" on="0"/>
        <pt x="871" y="-37" on="1"/>
        <pt x="93" y="-37" on="0"/>
        <pt x="93" y="735" on="1"/>
        <pt x="93" y="1113" on="0"/>
        <pt x="294" y="1315" on="1"/>
        <pt x="496" y="1517" on="0"/>
        <pt x="877" y="1517" on="1"/>
        <pt x="1123" y="1517" on="0"/>
        <pt x="1403" y="1450" on="1"/>
        <pt x="1403" y="1256" on="1"/>
        <pt x="1082" y="1360" on="0"/>
        <pt x="868" y="1360" on="1"/>
        <pt x="318" y="1360" on="0"/>
        <pt x="318" y="744" on="1"/>
        <pt x="318" y="440" on="0"/>
        <pt x="470" y="280" on="1"/>
        <pt x="621" y="120" on="0"/>
        <pt x="900" y="120" on="1"/>
        <pt x="1015" y="120" on="0"/>
        <pt x="1196" y="157" on="1"/>
        <pt x="1196" y="534" on="1"/>
        <pt x="949" y="534" on="1"/>
        <pt x="949" y="688" on="1"/>
      </contour>
      <contour>
        <pt x="534" y="1925" on="1"/>
        <pt x="657" y="1925" on="1"/>
        <pt x="678" y="1831" on="0"/>
        <pt x="732" y="1791" on="1"/>
        <pt x="784" y="1752" on="0"/>
        <pt x="867" y="1752" on="1"/>
        <pt x="961" y="1752" on="0"/>
        <pt x="1015" y="1801" on="1"/>
        <pt x="1058" y="1841" on="0"/>
        <pt x="1077" y="1925" on="1"/>
        <pt x="1200" y="1925" on="1"/>
        <pt x="1184" y="1791" on="0"/>
        <pt x="1111" y="1710" on="1"/>
        <pt x="1017" y="1604" on="0"/>
        <pt x="867" y="1604" on="1"/>
        <pt x="710" y="1604" on="0"/>
        <pt x="615" y="1719" on="1"/>
        <pt x="550" y="1797" on="0"/>
      </contour>
    </TTGlyph>
    <TTGlyph name="Gcircumflex" xMin="93" yMin="-37" xMax="1405" yMax="1925">
      <contour>
        <pt x="1405" y="688" on="1"/>
        <pt x="1405" y="40" on="1"/>
        <pt x="1131" y="-37" on="0"/>
        <pt x="871" y="-37" on="1"/>
        <pt x="93" y="-37" on="0"/>
        <pt x="93" y="735" on="1"/>
        <pt x="93" y="1113" on="0"/>
        <pt x="294" y="1315" on="1"/>
        <pt x="496" y="1517" on="0"/>
        <pt x="877" y="1517" on="1"/>
        <pt x="1123" y="1517" on="0"/>
        <pt x="1403" y="1450" on="1"/>
        <pt x="1403" y="1256" on="1"/>
        <pt x="1082" y="1360" on="0"/>
        <pt x="868" y="1360" on="1"/>
        <pt x="318" y="1360" on="0"/>
        <pt x="318" y="744" on="1"/>
        <pt x="318" y="440" on="0"/>
        <pt x="470" y="280" on="1"/>
        <pt x="621" y="120" on="0"/>
        <pt x="900" y="120" on="1"/>
        <pt x="1015" y="120" on="0"/>
        <pt x="1196" y="157" on="1"/>
        <pt x="1196" y="534" on="1"/>
        <pt x="949" y="534" on="1"/>
        <pt x="949" y="688" on="1"/>
      </contour>
      <contour>
        <pt x="517" y="1604" on="1"/>
        <pt x="758" y="1925" on="1"/>
        <pt x="976" y="1925" on="1"/>
        <pt x="1217" y="1604" on="1"/>
        <pt x="1069" y="1604" on="1"/>
        <pt x="868" y="1806" on="1"/>
        <pt x="866" y="1806" on="1"/>
        <pt x="665" y="1604" on="1"/>
      </contour>
    </TTGlyph>
    <TTGlyph name="Gcommaaccent" xMin="93" yMin="-432" xMax="1405" yMax="1517">
      <contour>
        <pt x="1405" y="688" on="1"/>
        <pt x="1405" y="40" on="1"/>
        <pt x="1128" y="-37" on="0"/>
        <pt x="871" y="-37" on="1"/>
        <pt x="93" y="-37" on="0"/>
        <pt x="93" y="735" on="1"/>
        <pt x="93" y="1113" on="0"/>
        <pt x="294" y="1315" on="1"/>
        <pt x="496" y="1517" on="0"/>
        <pt x="877" y="1517" on="1"/>
        <pt x="1123" y="1517" on="0"/>
        <pt x="1403" y="1450" on="1"/>
        <pt x="1403" y="1256" on="1"/>
        <pt x="1082" y="1360" on="0"/>
        <pt x="868" y="1360" on="1"/>
        <pt x="318" y="1360" on="0"/>
        <pt x="318" y="744" on="1"/>
        <pt x="318" y="440" on="0"/>
        <pt x="470" y="280" on="1"/>
        <pt x="621" y="120" on="0"/>
        <pt x="900" y="120" on="1"/>
        <pt x="1016" y="120" on="0"/>
        <pt x="1196" y="157" on="1"/>
        <pt x="1196" y="534" on="1"/>
        <pt x="949" y="534" on="1"/>
        <pt x="949" y="688" on="1"/>
      </contour>
      <contour>
        <pt x="700" y="-421" on="1"/>
        <pt x="700" y="-336" on="1"/>
        <pt x="757" y="-345" on="0"/>
        <pt x="798" y="-345" on="1"/>
        <pt x="907" y="-345" on="0"/>
        <pt x="907" y="-278" on="1"/>
        <pt x="907" y="-204" on="0"/>
        <pt x="749" y="-188" on="1"/>
        <pt x="749" y="-111" on="1"/>
        <pt x="883" y="-114" on="0"/>
        <pt x="949" y="-143" on="1"/>
        <pt x="1042" y="-185" on="0"/>
        <pt x="1042" y="-280" on="1"/>
        <pt x="1042" y="-432" on="0"/>
        <pt x="825" y="-432" on="1"/>
        <pt x="765" y="-432" on="0"/>
      </contour>
    </TTGlyph>
    <TTGlyph name="Gdotaccent" xMin="93" yMin="-37" xMax="1405" yMax="1801">
      <contour>
        <pt x="1405" y="688" on="1"/>
        <pt x="1405" y="40" on="1"/>
        <pt x="1131" y="-37" on="0"/>
        <pt x="871" y="-37" on="1"/>
        <pt x="93" y="-37" on="0"/>
        <pt x="93" y="735" on="1"/>
        <pt x="93" y="1113" on="0"/>
        <pt x="294" y="1315" on="1"/>
        <pt x="496" y="1517" on="0"/>
        <pt x="877" y="1517" on="1"/>
        <pt x="1123" y="1517" on="0"/>
        <pt x="1403" y="1450" on="1"/>
        <pt x="1403" y="1256" on="1"/>
        <pt x="1082" y="1360" on="0"/>
        <pt x="868" y="1360" on="1"/>
        <pt x="318" y="1360" on="0"/>
        <pt x="318" y="744" on="1"/>
        <pt x="318" y="440" on="0"/>
        <pt x="470" y="280" on="1"/>
        <pt x="621" y="120" on="0"/>
        <pt x="900" y="120" on="1"/>
        <pt x="1015" y="120" on="0"/>
        <pt x="1196" y="157" on="1"/>
        <pt x="1196" y="534" on="1"/>
        <pt x="949" y="534" on="1"/>
        <pt x="949" y="688" on="1"/>
      </contour>
      <contour>
        <pt x="768" y="1604" on="1"/>
        <pt x="768" y="1801" on="1"/>
        <pt x="965" y="1801" on="1"/>
        <pt x="965" y="1604" on="1"/>
      </contour>
    </TTGlyph>
    <TTGlyph name="H" xMin="165" yMin="0" xMax="1313" yMax="1480">
      <contour>
        <pt x="165" y="0" on="1"/>
        <pt x="165" y="1480" on="1"/>
        <pt x="375" y="1480" on="1"/>
        <pt x="375" y="856" on="1"/>
        <pt x="1104" y="856" on="1"/>
        <pt x="1104" y="1480" on="1"/>
        <pt x="1313" y="1480" on="1"/>
        <pt x="1313" y="0" on="1"/>
        <pt x="1104" y="0" on="1"/>
        <pt x="1104" y="699" on="1"/>
        <pt x="375" y="699" on="1"/>
        <pt x="375" y="0" on="1"/>
      </contour>
    </TTGlyph>
    <TTGlyph name="Hbar" xMin="17" yMin="0" xMax="1461" yMax="1480">
      <contour>
        <pt x="375" y="856" on="1"/>
        <pt x="1104" y="856" on="1"/>
        <pt x="1104" y="1110" on="1"/>
        <pt x="375" y="1110" on="1"/>
      </contour>
      <contour>
        <pt x="165" y="0" on="1"/>
        <pt x="165" y="1110" on="1"/>
        <pt x="17" y="1110" on="1"/>
        <pt x="17" y="1234" on="1"/>
        <pt x="165" y="1234" on="1"/>
        <pt x="165" y="1480" on="1"/>
        <pt x="375" y="1480" on="1"/>
        <pt x="375" y="1234" on="1"/>
        <pt x="1104" y="1234" on="1"/>
        <pt x="1104" y="1480" on="1"/>
        <pt x="1313" y="1480" on="1"/>
        <pt x="1313" y="1234" on="1"/>
        <pt x="1461" y="1234" on="1"/>
        <pt x="1461" y="1110" on="1"/>
        <pt x="1313" y="1110" on="1"/>
        <pt x="1313" y="0" on="1"/>
        <pt x="1104" y="0" on="1"/>
        <pt x="1104" y="699" on="1"/>
        <pt x="375" y="699" on="1"/>
        <pt x="375" y="0" on="1"/>
      </contour>
    </TTGlyph>
    <TTGlyph name="Hcircumflex" xMin="165" yMin="0" xMax="1313" yMax="1925">
      <contour>
        <pt x="165" y="0" on="1"/>
        <pt x="165" y="1480" on="1"/>
        <pt x="375" y="1480" on="1"/>
        <pt x="375" y="856" on="1"/>
        <pt x="1104" y="856" on="1"/>
        <pt x="1104" y="1480" on="1"/>
        <pt x="1313" y="1480" on="1"/>
        <pt x="1313" y="0" on="1"/>
        <pt x="1104" y="0" on="1"/>
        <pt x="1104" y="699" on="1"/>
        <pt x="375" y="699" on="1"/>
        <pt x="375" y="0" on="1"/>
      </contour>
      <contour>
        <pt x="389" y="1604" on="1"/>
        <pt x="630" y="1925" on="1"/>
        <pt x="848" y="1925" on="1"/>
        <pt x="1089" y="1604" on="1"/>
        <pt x="941" y="1604" on="1"/>
        <pt x="740" y="1806" on="1"/>
        <pt x="738" y="1806" on="1"/>
        <pt x="537" y="1604" on="1"/>
      </contour>
    </TTGlyph>
    <TTGlyph name="I" xMin="180" yMin="0" xMax="390" yMax="1480">
      <contour>
        <pt x="180" y="0" on="1"/>
        <pt x="180" y="1480" on="1"/>
        <pt x="390" y="1480" on="1"/>
        <pt x="390" y="0" on="1"/>
      </contour>
    </TTGlyph>
    <TTGlyph name="IJ" xMin="180" yMin="-296" xMax="1322" yMax="1480">
      <component glyphName="I" x="0" y="0" flags="0x4"/>
      <component glyphName="J" x="482" y="0" flags="0x4"/>
    </TTGlyph>
    <TTGlyph name="Iacute" xMin="137" yMin="0" xMax="606" yMax="1925">
      <contour>
        <pt x="180" y="0" on="1"/>
        <pt x="180" y="1480" on="1"/>
        <pt x="390" y="1480" on="1"/>
        <pt x="390" y="0" on="1"/>
      </contour>
      <contour>
        <pt x="137" y="1604" on="1"/>
        <pt x="378" y="1925" on="1"/>
        <pt x="606" y="1925" on="1"/>
        <pt x="285" y="1604" on="1"/>
      </contour>
    </TTGlyph>
    <TTGlyph name="Ibreve" xMin="-48" yMin="0" xMax="618" yMax="1925">
      <contour>
        <pt x="180" y="0" on="1"/>
        <pt x="180" y="1480" on="1"/>
        <pt x="390" y="1480" on="1"/>
        <pt x="390" y="0" on="1"/>
      </contour>
      <contour>
        <pt x="-48" y="1925" on="1"/>
        <pt x="75" y="1925" on="1"/>
        <pt x="96" y="1831" on="0"/>
        <pt x="150" y="1791" on="1"/>
        <pt x="202" y="1752" on="0"/>
        <pt x="285" y="1752" on="1"/>
        <pt x="379" y="1752" on="0"/>
        <pt x="433" y="1801" on="1"/>
        <pt x="476" y="1841" on="0"/>
        <pt x="495" y="1925" on="1"/>
        <pt x="618" y="1925" on="1"/>
        <pt x="602" y="1791" on="0"/>
        <pt x="529" y="1710" on="1"/>
        <pt x="435" y="1604" on="0"/>
        <pt x="285" y="1604" on="1"/>
        <pt x="128" y="1604" on="0"/>
        <pt x="33" y="1719" on="1"/>
        <pt x="-32" y="1797" on="0"/>
      </contour>
    </TTGlyph>
    <TTGlyph name="Icircumflex" xMin="-65" yMin="0" xMax="635" yMax="1925">
      <contour>
        <pt x="180" y="0" on="1"/>
        <pt x="180" y="1480" on="1"/>
        <pt x="390" y="1480" on="1"/>
        <pt x="390" y="0" on="1"/>
      </contour>
      <contour>
        <pt x="-65" y="1604" on="1"/>
        <pt x="176" y="1925" on="1"/>
        <pt x="394" y="1925" on="1"/>
        <pt x="635" y="1604" on="1"/>
        <pt x="487" y="1604" on="1"/>
        <pt x="286" y="1806" on="1"/>
        <pt x="284" y="1806" on="1"/>
        <pt x="83" y="1604" on="1"/>
      </contour>
    </TTGlyph>
    <TTGlyph name="Idieresis" xMin="1" yMin="0" xMax="569" yMax="1777">
      <contour>
        <pt x="180" y="0" on="1"/>
        <pt x="180" y="1480" on="1"/>
        <pt x="390" y="1480" on="1"/>
        <pt x="390" y="0" on="1"/>
      </contour>
      <contour>
        <pt x="1" y="1604" on="1"/>
        <pt x="1" y="1777" on="1"/>
        <pt x="174" y="1777" on="1"/>
        <pt x="174" y="1604" on="1"/>
      </contour>
      <contour>
        <pt x="396" y="1604" on="1"/>
        <pt x="396" y="1777" on="1"/>
        <pt x="569" y="1777" on="1"/>
        <pt x="569" y="1604" on="1"/>
      </contour>
    </TTGlyph>
    <TTGlyph name="Idotaccent" xMin="180" yMin="0" xMax="390" yMax="1801">
      <contour>
        <pt x="180" y="0" on="1"/>
        <pt x="180" y="1480" on="1"/>
        <pt x="390" y="1480" on="1"/>
        <pt x="390" y="0" on="1"/>
      </contour>
      <contour>
        <pt x="186" y="1604" on="1"/>
        <pt x="186" y="1801" on="1"/>
        <pt x="383" y="1801" on="1"/>
        <pt x="383" y="1604" on="1"/>
      </contour>
    </TTGlyph>
    <TTGlyph name="Igrave" xMin="-36" yMin="0" xMax="433" yMax="1925">
      <contour>
        <pt x="180" y="0" on="1"/>
        <pt x="180" y="1480" on="1"/>
        <pt x="390" y="1480" on="1"/>
        <pt x="390" y="0" on="1"/>
      </contour>
      <contour>
        <pt x="433" y="1604" on="1"/>
        <pt x="285" y="1604" on="1"/>
        <pt x="-36" y="1925" on="1"/>
        <pt x="192" y="1925" on="1"/>
      </contour>
    </TTGlyph>
    <TTGlyph name="Imacron" xMin="-36" yMin="0" xMax="606" yMax="1752">
      <contour>
        <pt x="180" y="0" on="1"/>
        <pt x="180" y="1480" on="1"/>
        <pt x="390" y="1480" on="1"/>
        <pt x="390" y="0" on="1"/>
      </contour>
      <contour>
        <pt x="-36" y="1604" on="1"/>
        <pt x="-36" y="1752" on="1"/>
        <pt x="606" y="1752" on="1"/>
        <pt x="606" y="1604" on="1"/>
      </contour>
    </TTGlyph>
    <TTGlyph name="Iogonek" xMin="120" yMin="-370" xMax="462" yMax="1480">
      <contour>
        <pt x="180" y="0" on="1"/>
        <pt x="180" y="1480" on="1"/>
        <pt x="390" y="1480" on="1"/>
        <pt x="390" y="0" on="1"/>
      </contour>
      <contour>
        <pt x="278" y="0" on="1"/>
        <pt x="385" y="0" on="1"/>
        <pt x="257" y="-80" on="0"/>
        <pt x="257" y="-179" on="1"/>
        <pt x="257" y="-275" on="0"/>
        <pt x="372" y="-275" on="1"/>
        <pt x="425" y="-275" on="0"/>
        <pt x="462" y="-260" on="1"/>
        <pt x="462" y="-341" on="1"/>
        <pt x="400" y="-370" on="0"/>
        <pt x="322" y="-370" on="1"/>
        <pt x="120" y="-370" on="0"/>
        <pt x="120" y="-212" on="1"/>
        <pt x="120" y="-90" on="0"/>
      </contour>
    </TTGlyph>
    <TTGlyph name="Itilde" xMin="-48" yMin="0" xMax="618" yMax="1838">
      <contour>
        <pt x="180" y="0" on="1"/>
        <pt x="180" y="1480" on="1"/>
        <pt x="390" y="1480" on="1"/>
        <pt x="390" y="0" on="1"/>
      </contour>
      <contour>
        <pt x="-48" y="1604" on="1"/>
        <pt x="-41" y="1697" on="0"/>
        <pt x="-16" y="1748" on="1"/>
        <pt x="30" y="1838" on="0"/>
        <pt x="139" y="1838" on="1"/>
        <pt x="211" y="1838" on="0"/>
        <pt x="272" y="1800" on="1"/>
        <pt x="332" y="1763" on="1"/>
        <pt x="389" y="1728" on="0"/>
        <pt x="419" y="1728" on="1"/>
        <pt x="484" y="1728" on="0"/>
        <pt x="495" y="1838" on="1"/>
        <pt x="618" y="1838" on="1"/>
        <pt x="611" y="1744" on="0"/>
        <pt x="586" y="1694" on="1"/>
        <pt x="541" y="1604" on="0"/>
        <pt x="433" y="1604" on="1"/>
        <pt x="361" y="1604" on="0"/>
        <pt x="298" y="1643" on="1"/>
        <pt x="238" y="1680" on="1"/>
        <pt x="183" y="1714" on="0"/>
        <pt x="151" y="1714" on="1"/>
        <pt x="86" y="1714" on="0"/>
        <pt x="75" y="1604" on="1"/>
      </contour>
    </TTGlyph>
    <TTGlyph name="J" xMin="49" yMin="-296" xMax="840" yMax="1480">
      <contour>
        <pt x="49" y="-232" on="1"/>
        <pt x="49" y="-51" on="1"/>
        <pt x="220" y="-128" on="0"/>
        <pt x="369" y="-128" on="1"/>
        <pt x="540" y="-128" on="0"/>
        <pt x="589" y="-49" on="1"/>
        <pt x="630" y="19" on="0"/>
        <pt x="630" y="180" on="1"/>
        <pt x="630" y="1480" on="1"/>
        <pt x="840" y="1480" on="1"/>
        <pt x="840" y="187" on="1"/>
        <pt x="840" y="-296" on="0"/>
        <pt x="359" y="-296" on="1"/>
        <pt x="197" y="-296" on="0"/>
      </contour>
    </TTGlyph>
    <TTGlyph name="Jcircumflex" xMin="49" yMin="-296" xMax="1061" yMax="1925">
      <contour>
        <pt x="49" y="-232" on="1"/>
        <pt x="49" y="-51" on="1"/>
        <pt x="220" y="-128" on="0"/>
        <pt x="369" y="-128" on="1"/>
        <pt x="540" y="-128" on="0"/>
        <pt x="589" y="-49" on="1"/>
        <pt x="630" y="19" on="0"/>
        <pt x="630" y="180" on="1"/>
        <pt x="630" y="1480" on="1"/>
        <pt x="840" y="1480" on="1"/>
        <pt x="840" y="187" on="1"/>
        <pt x="840" y="-296" on="0"/>
        <pt x="359" y="-296" on="1"/>
        <pt x="197" y="-296" on="0"/>
      </contour>
      <contour>
        <pt x="361" y="1604" on="1"/>
        <pt x="602" y="1925" on="1"/>
        <pt x="820" y="1925" on="1"/>
        <pt x="1061" y="1604" on="1"/>
        <pt x="913" y="1604" on="1"/>
        <pt x="712" y="1806" on="1"/>
        <pt x="710" y="1806" on="1"/>
        <pt x="509" y="1604" on="1"/>
      </contour>
    </TTGlyph>
    <TTGlyph name="K" xMin="191" yMin="0" xMax="1317" yMax="1480">
      <contour>
        <pt x="191" y="0" on="1"/>
        <pt x="191" y="1480" on="1"/>
        <pt x="388" y="1480" on="1"/>
        <pt x="388" y="752" on="1"/>
        <pt x="1003" y="1480" on="1"/>
        <pt x="1214" y="1480" on="1"/>
        <pt x="618" y="774" on="1"/>
        <pt x="1317" y="0" on="1"/>
        <pt x="1051" y="0" on="1"/>
        <pt x="388" y="750" on="1"/>
        <pt x="388" y="0" on="1"/>
      </contour>
    </TTGlyph>
    <TTGlyph name="Kcommaaccent" xMin="191" yMin="-432" xMax="1317" yMax="1480">
      <contour>
        <pt x="191" y="0" on="1"/>
        <pt x="191" y="1480" on="1"/>
        <pt x="388" y="1480" on="1"/>
        <pt x="388" y="752" on="1"/>
        <pt x="1003" y="1480" on="1"/>
        <pt x="1214" y="1480" on="1"/>
        <pt x="618" y="774" on="1"/>
        <pt x="1317" y="0" on="1"/>
        <pt x="1051" y="0" on="1"/>
        <pt x="388" y="750" on="1"/>
        <pt x="388" y="0" on="1"/>
      </contour>
      <contour>
        <pt x="487" y="-421" on="1"/>
        <pt x="487" y="-336" on="1"/>
        <pt x="544" y="-345" on="0"/>
        <pt x="584" y="-345" on="1"/>
        <pt x="694" y="-345" on="0"/>
        <pt x="694" y="-278" on="1"/>
        <pt x="694" y="-204" on="0"/>
        <pt x="536" y="-188" on="1"/>
        <pt x="536" y="-111" on="1"/>
        <pt x="670" y="-114" on="0"/>
        <pt x="736" y="-143" on="1"/>
        <pt x="829" y="-185" on="0"/>
        <pt x="829" y="-280" on="1"/>
        <pt x="829" y="-432" on="0"/>
        <pt x="612" y="-432" on="1"/>
        <pt x="553" y="-432" on="0"/>
      </contour>
    </TTGlyph>
    <TTGlyph name="L" xMin="165" yMin="0" xMax="1101" yMax="1480">
      <contour>
        <pt x="165" y="0" on="1"/>
        <pt x="165" y="1480" on="1"/>
        <pt x="375" y="1480" on="1"/>
        <pt x="375" y="157" on="1"/>
        <pt x="1101" y="157" on="1"/>
        <pt x="1101" y="0" on="1"/>
      </contour>
    </TTGlyph>
    <TTGlyph name="Lacute" xMin="165" yMin="0" xMax="1101" yMax="1925">
      <contour>
        <pt x="165" y="0" on="1"/>
        <pt x="165" y="1480" on="1"/>
        <pt x="375" y="1480" on="1"/>
        <pt x="375" y="157" on="1"/>
        <pt x="1101" y="157" on="1"/>
        <pt x="1101" y="0" on="1"/>
      </contour>
      <contour>
        <pt x="177" y="1604" on="1"/>
        <pt x="418" y="1925" on="1"/>
        <pt x="646" y="1925" on="1"/>
        <pt x="325" y="1604" on="1"/>
      </contour>
    </TTGlyph>
    <TTGlyph name="Lcaron" xMin="165" yMin="0" xMax="1101" yMax="1480">
      <contour>
        <pt x="165" y="0" on="1"/>
        <pt x="165" y="1480" on="1"/>
        <pt x="375" y="1480" on="1"/>
        <pt x="375" y="157" on="1"/>
        <pt x="1101" y="157" on="1"/>
        <pt x="1101" y="0" on="1"/>
      </contour>
      <contour>
        <pt x="671" y="1026" on="1"/>
        <pt x="671" y="1085" on="1"/>
        <pt x="747" y="1106" on="0"/>
        <pt x="747" y="1266" on="1"/>
        <pt x="747" y="1283" on="1"/>
        <pt x="671" y="1283" on="1"/>
        <pt x="671" y="1480" on="1"/>
        <pt x="868" y="1480" on="1"/>
        <pt x="868" y="1309" on="1"/>
        <pt x="867" y="1047" on="0"/>
      </contour>
    </TTGlyph>
    <TTGlyph name="Lcommaaccent" xMin="165" yMin="-432" xMax="1101" yMax="1480">
      <contour>
        <pt x="165" y="0" on="1"/>
        <pt x="165" y="1480" on="1"/>
        <pt x="375" y="1480" on="1"/>
        <pt x="375" y="157" on="1"/>
        <pt x="1101" y="157" on="1"/>
        <pt x="1101" y="0" on="1"/>
      </contour>
      <contour>
        <pt x="449" y="-421" on="1"/>
        <pt x="449" y="-336" on="1"/>
        <pt x="506" y="-345" on="0"/>
        <pt x="546" y="-345" on="1"/>
        <pt x="656" y="-345" on="0"/>
        <pt x="656" y="-278" on="1"/>
        <pt x="656" y="-204" on="0"/>
        <pt x="498" y="-188" on="1"/>
        <pt x="498" y="-111" on="1"/>
        <pt x="632" y="-114" on="0"/>
        <pt x="698" y="-143" on="1"/>
        <pt x="791" y="-185" on="0"/>
        <pt x="791" y="-280" on="1"/>
        <pt x="791" y="-432" on="0"/>
        <pt x="574" y="-432" on="1"/>
        <pt x="515" y="-432" on="0"/>
      </contour>
    </TTGlyph>
    <TTGlyph name="Ldot" xMin="165" yMin="0" xMax="1101" yMax="1480">
      <contour>
        <pt x="165" y="0" on="1"/>
        <pt x="165" y="1480" on="1"/>
        <pt x="375" y="1480" on="1"/>
        <pt x="375" y="157" on="1"/>
        <pt x="1101" y="157" on="1"/>
        <pt x="1101" y="0" on="1"/>
      </contour>
      <contour>
        <pt x="743" y="642" on="1"/>
        <pt x="743" y="839" on="1"/>
        <pt x="940" y="839" on="1"/>
        <pt x="940" y="642" on="1"/>
      </contour>
    </TTGlyph>
    <TTGlyph name="Lslash" xMin="17" yMin="0" xMax="1100" yMax="1480">
      <contour>
        <pt x="165" y="0" on="1"/>
        <pt x="165" y="692" on="1"/>
        <pt x="17" y="612" on="1"/>
        <pt x="17" y="780" on="1"/>
        <pt x="165" y="862" on="1"/>
        <pt x="165" y="1480" on="1"/>
        <pt x="375" y="1480" on="1"/>
        <pt x="375" y="976" on="1"/>
        <pt x="621" y="1110" on="1"/>
        <pt x="621" y="941" on="1"/>
        <pt x="375" y="807" on="1"/>
        <pt x="375" y="157" on="1"/>
        <pt x="1100" y="157" on="1"/>
        <pt x="1100" y="0" on="1"/>
      </contour>
    </TTGlyph>
    <TTGlyph name="M" xMin="165" yMin="0" xMax="1541" yMax="1480">
      <contour>
        <pt x="165" y="0" on="1"/>
        <pt x="165" y="1480" on="1"/>
        <pt x="456" y="1480" on="1"/>
        <pt x="863" y="335" on="1"/>
        <pt x="1281" y="1480" on="1"/>
        <pt x="1541" y="1480" on="1"/>
        <pt x="1541" y="0" on="1"/>
        <pt x="1345" y="0" on="1"/>
        <pt x="1345" y="1203" on="1"/>
        <pt x="941" y="99" on="1"/>
        <pt x="738" y="99" on="1"/>
        <pt x="346" y="1207" on="1"/>
        <pt x="346" y="0" on="1"/>
      </contour>
    </TTGlyph>
    <TTGlyph name="N" xMin="165" yMin="0" xMax="1313" yMax="1480">
      <contour>
        <pt x="165" y="0" on="1"/>
        <pt x="165" y="1480" on="1"/>
        <pt x="370" y="1480" on="1"/>
        <pt x="1133" y="337" on="1"/>
        <pt x="1133" y="1480" on="1"/>
        <pt x="1313" y="1480" on="1"/>
        <pt x="1313" y="0" on="1"/>
        <pt x="1107" y="0" on="1"/>
        <pt x="345" y="1143" on="1"/>
        <pt x="345" y="0" on="1"/>
      </contour>
    </TTGlyph>
    <TTGlyph name="Nacute" xMin="165" yMin="0" xMax="1313" yMax="1925">
      <contour>
        <pt x="165" y="0" on="1"/>
        <pt x="165" y="1480" on="1"/>
        <pt x="370" y="1480" on="1"/>
        <pt x="1133" y="337" on="1"/>
        <pt x="1133" y="1480" on="1"/>
        <pt x="1313" y="1480" on="1"/>
        <pt x="1313" y="0" on="1"/>
        <pt x="1107" y="0" on="1"/>
        <pt x="345" y="1143" on="1"/>
        <pt x="345" y="0" on="1"/>
      </contour>
      <contour>
        <pt x="591" y="1604" on="1"/>
        <pt x="832" y="1925" on="1"/>
        <pt x="1060" y="1925" on="1"/>
        <pt x="739" y="1604" on="1"/>
      </contour>
    </TTGlyph>
    <TTGlyph name="Ncaron" xMin="165" yMin="0" xMax="1313" yMax="1925">
      <contour>
        <pt x="165" y="0" on="1"/>
        <pt x="165" y="1480" on="1"/>
        <pt x="370" y="1480" on="1"/>
        <pt x="1133" y="337" on="1"/>
        <pt x="1133" y="1480" on="1"/>
        <pt x="1313" y="1480" on="1"/>
        <pt x="1313" y="0" on="1"/>
        <pt x="1107" y="0" on="1"/>
        <pt x="345" y="1143" on="1"/>
        <pt x="345" y="0" on="1"/>
      </contour>
      <contour>
        <pt x="1089" y="1925" on="1"/>
        <pt x="848" y="1604" on="1"/>
        <pt x="630" y="1604" on="1"/>
        <pt x="389" y="1925" on="1"/>
        <pt x="537" y="1925" on="1"/>
        <pt x="738" y="1723" on="1"/>
        <pt x="740" y="1723" on="1"/>
        <pt x="941" y="1925" on="1"/>
      </contour>
    </TTGlyph>
    <TTGlyph name="Ncommaaccent" xMin="165" yMin="-432" xMax="1313" yMax="1480">
      <contour>
        <pt x="165" y="0" on="1"/>
        <pt x="165" y="1480" on="1"/>
        <pt x="370" y="1480" on="1"/>
        <pt x="1133" y="337" on="1"/>
        <pt x="1133" y="1480" on="1"/>
        <pt x="1313" y="1480" on="1"/>
        <pt x="1313" y="0" on="1"/>
        <pt x="1107" y="0" on="1"/>
        <pt x="345" y="1143" on="1"/>
        <pt x="345" y="0" on="1"/>
      </contour>
      <contour>
        <pt x="518" y="-421" on="1"/>
        <pt x="518" y="-336" on="1"/>
        <pt x="575" y="-345" on="0"/>
        <pt x="615" y="-345" on="1"/>
        <pt x="725" y="-345" on="0"/>
        <pt x="725" y="-278" on="1"/>
        <pt x="725" y="-205" on="0"/>
        <pt x="567" y="-188" on="1"/>
        <pt x="567" y="-111" on="1"/>
        <pt x="702" y="-114" on="0"/>
        <pt x="767" y="-143" on="1"/>
        <pt x="860" y="-185" on="0"/>
        <pt x="860" y="-280" on="1"/>
        <pt x="860" y="-432" on="0"/>
        <pt x="643" y="-432" on="1"/>
        <pt x="584" y="-432" on="0"/>
      </contour>
    </TTGlyph>
    <TTGlyph name="Ntilde" xMin="165" yMin="0" xMax="1313" yMax="1838">
      <contour>
        <pt x="165" y="0" on="1"/>
        <pt x="165" y="1480" on="1"/>
        <pt x="370" y="1480" on="1"/>
        <pt x="1133" y="337" on="1"/>
        <pt x="1133" y="1480" on="1"/>
        <pt x="1313" y="1480" on="1"/>
        <pt x="1313" y="0" on="1"/>
        <pt x="1107" y="0" on="1"/>
        <pt x="345" y="1143" on="1"/>
        <pt x="345" y="0" on="1"/>
      </contour>
      <contour>
        <pt x="432" y="1604" on="1"/>
        <pt x="439" y="1698" on="0"/>
        <pt x="464" y="1748" on="1"/>
        <pt x="510" y="1838" on="0"/>
        <pt x="619" y="1838" on="1"/>
        <pt x="690" y="1838" on="0"/>
        <pt x="752" y="1800" on="1"/>
        <pt x="812" y="1763" on="1"/>
        <pt x="869" y="1728" on="0"/>
        <pt x="899" y="1728" on="1"/>
        <pt x="964" y="1728" on="0"/>
        <pt x="975" y="1838" on="1"/>
        <pt x="1098" y="1838" on="1"/>
        <pt x="1091" y="1744" on="0"/>
        <pt x="1066" y="1694" on="1"/>
        <pt x="1021" y="1604" on="0"/>
        <pt x="913" y="1604" on="1"/>
        <pt x="841" y="1604" on="0"/>
        <pt x="778" y="1643" on="1"/>
        <pt x="718" y="1680" on="1"/>
        <pt x="663" y="1714" on="0"/>
        <pt x="631" y="1714" on="1"/>
        <pt x="566" y="1714" on="0"/>
        <pt x="555" y="1604" on="1"/>
      </contour>
    </TTGlyph>
    <TTGlyph name="O" xMin="93" yMin="-37" xMax="1501" yMax="1517">
      <contour>
        <pt x="797" y="1517" on="1"/>
        <pt x="1116" y="1517" on="0"/>
        <pt x="1309" y="1306" on="1"/>
        <pt x="1501" y="1094" on="0"/>
        <pt x="1501" y="742" on="1"/>
        <pt x="1501" y="383" on="0"/>
        <pt x="1309" y="173" on="1"/>
        <pt x="1116" y="-37" on="0"/>
        <pt x="787" y="-37" on="1"/>
        <pt x="505" y="-37" on="0"/>
        <pt x="322" y="136" on="1"/>
        <pt x="93" y="353" on="0"/>
        <pt x="93" y="740" on="1"/>
        <pt x="93" y="1095" on="0"/>
        <pt x="285" y="1306" on="1"/>
        <pt x="477" y="1517" on="0"/>
      </contour>
      <contour>
        <pt x="797" y="1360" on="1"/>
        <pt x="570" y="1360" on="0"/>
        <pt x="444" y="1197" on="1"/>
        <pt x="318" y="1034" on="0"/>
        <pt x="318" y="741" on="1"/>
        <pt x="318" y="450" on="0"/>
        <pt x="444" y="285" on="1"/>
        <pt x="569" y="120" on="0"/>
        <pt x="792" y="120" on="1"/>
        <pt x="999" y="120" on="0"/>
        <pt x="1122" y="252" on="1"/>
        <pt x="1276" y="415" on="0"/>
        <pt x="1276" y="742" on="1"/>
        <pt x="1276" y="1034" on="0"/>
        <pt x="1149" y="1197" on="1"/>
        <pt x="1022" y="1360" on="0"/>
      </contour>
    </TTGlyph>
    <TTGlyph name="OE" xMin="93" yMin="-37" xMax="1991" yMax="1517">
      <contour>
        <pt x="1129" y="0" on="1"/>
        <pt x="1129" y="58" on="1"/>
        <pt x="965" y="-37" on="0"/>
        <pt x="775" y="-37" on="1"/>
        <pt x="469" y="-37" on="0"/>
        <pt x="281" y="177" on="1"/>
        <pt x="93" y="391" on="0"/>
        <pt x="93" y="740" on="1"/>
        <pt x="93" y="1095" on="0"/>
        <pt x="282" y="1306" on="1"/>
        <pt x="471" y="1517" on="0"/>
        <pt x="785" y="1517" on="1"/>
        <pt x="967" y="1517" on="0"/>
        <pt x="1129" y="1423" on="1"/>
        <pt x="1129" y="1480" on="1"/>
        <pt x="1947" y="1480" on="1"/>
        <pt x="1947" y="1323" on="1"/>
        <pt x="1339" y="1323" on="1"/>
        <pt x="1339" y="848" on="1"/>
        <pt x="1848" y="848" on="1"/>
        <pt x="1848" y="693" on="1"/>
        <pt x="1339" y="693" on="1"/>
        <pt x="1339" y="157" on="1"/>
        <pt x="1991" y="157" on="1"/>
        <pt x="1991" y="0" on="1"/>
      </contour>
      <contour>
        <pt x="1129" y="569" on="1"/>
        <pt x="1129" y="911" on="1"/>
        <pt x="1129" y="1147" on="0"/>
        <pt x="1048" y="1253" on="1"/>
        <pt x="967" y="1360" on="0"/>
        <pt x="788" y="1360" on="1"/>
        <pt x="565" y="1360" on="0"/>
        <pt x="441" y="1197" on="1"/>
        <pt x="316" y="1034" on="0"/>
        <pt x="316" y="740" on="1"/>
        <pt x="316" y="446" on="0"/>
        <pt x="441" y="283" on="1"/>
        <pt x="567" y="120" on="0"/>
        <pt x="789" y="120" on="1"/>
        <pt x="1129" y="120" on="0"/>
      </contour>
    </TTGlyph>
    <TTGlyph name="Oacute" xMin="92" yMin="-37" xMax="1500" yMax="1925">
      <contour>
        <pt x="796" y="1517" on="1"/>
        <pt x="1115" y="1517" on="0"/>
        <pt x="1308" y="1306" on="1"/>
        <pt x="1500" y="1094" on="0"/>
        <pt x="1500" y="742" on="1"/>
        <pt x="1500" y="383" on="0"/>
        <pt x="1308" y="173" on="1"/>
        <pt x="1115" y="-37" on="0"/>
        <pt x="786" y="-37" on="1"/>
        <pt x="504" y="-37" on="0"/>
        <pt x="321" y="136" on="1"/>
        <pt x="92" y="353" on="0"/>
        <pt x="92" y="740" on="1"/>
        <pt x="92" y="1095" on="0"/>
        <pt x="284" y="1306" on="1"/>
        <pt x="476" y="1517" on="0"/>
      </contour>
      <contour>
        <pt x="796" y="1360" on="1"/>
        <pt x="569" y="1360" on="0"/>
        <pt x="443" y="1197" on="1"/>
        <pt x="317" y="1034" on="0"/>
        <pt x="317" y="741" on="1"/>
        <pt x="317" y="450" on="0"/>
        <pt x="443" y="285" on="1"/>
        <pt x="568" y="120" on="0"/>
        <pt x="791" y="120" on="1"/>
        <pt x="998" y="120" on="0"/>
        <pt x="1121" y="252" on="1"/>
        <pt x="1275" y="415" on="0"/>
        <pt x="1275" y="742" on="1"/>
        <pt x="1275" y="1034" on="0"/>
        <pt x="1148" y="1197" on="1"/>
        <pt x="1021" y="1360" on="0"/>
      </contour>
      <contour>
        <pt x="648" y="1604" on="1"/>
        <pt x="889" y="1925" on="1"/>
        <pt x="1117" y="1925" on="1"/>
        <pt x="796" y="1604" on="1"/>
      </contour>
    </TTGlyph>
    <TTGlyph name="Obreve" xMin="93" yMin="-37" xMax="1501" yMax="1925">
      <contour>
        <pt x="797" y="1517" on="1"/>
        <pt x="1116" y="1517" on="0"/>
        <pt x="1309" y="1306" on="1"/>
        <pt x="1501" y="1094" on="0"/>
        <pt x="1501" y="742" on="1"/>
        <pt x="1501" y="383" on="0"/>
        <pt x="1309" y="173" on="1"/>
        <pt x="1116" y="-37" on="0"/>
        <pt x="787" y="-37" on="1"/>
        <pt x="505" y="-37" on="0"/>
        <pt x="322" y="136" on="1"/>
        <pt x="93" y="353" on="0"/>
        <pt x="93" y="740" on="1"/>
        <pt x="93" y="1095" on="0"/>
        <pt x="285" y="1306" on="1"/>
        <pt x="477" y="1517" on="0"/>
      </contour>
      <contour>
        <pt x="797" y="1360" on="1"/>
        <pt x="570" y="1360" on="0"/>
        <pt x="444" y="1197" on="1"/>
        <pt x="318" y="1034" on="0"/>
        <pt x="318" y="741" on="1"/>
        <pt x="318" y="450" on="0"/>
        <pt x="444" y="285" on="1"/>
        <pt x="569" y="120" on="0"/>
        <pt x="792" y="120" on="1"/>
        <pt x="999" y="120" on="0"/>
        <pt x="1122" y="252" on="1"/>
        <pt x="1276" y="415" on="0"/>
        <pt x="1276" y="742" on="1"/>
        <pt x="1276" y="1034" on="0"/>
        <pt x="1149" y="1197" on="1"/>
        <pt x="1022" y="1360" on="0"/>
      </contour>
      <contour>
        <pt x="464" y="1925" on="1"/>
        <pt x="587" y="1925" on="1"/>
        <pt x="608" y="1831" on="0"/>
        <pt x="662" y="1791" on="1"/>
        <pt x="714" y="1752" on="0"/>
        <pt x="797" y="1752" on="1"/>
        <pt x="890" y="1752" on="0"/>
        <pt x="945" y="1801" on="1"/>
        <pt x="988" y="1841" on="0"/>
        <pt x="1007" y="1925" on="1"/>
        <pt x="1130" y="1925" on="1"/>
        <pt x="1114" y="1791" on="0"/>
        <pt x="1041" y="1710" on="1"/>
        <pt x="947" y="1604" on="0"/>
        <pt x="797" y="1604" on="1"/>
        <pt x="640" y="1604" on="0"/>
        <pt x="545" y="1719" on="1"/>
        <pt x="480" y="1797" on="0"/>
      </contour>
    </TTGlyph>
    <TTGlyph name="Ocircumflex" xMin="92" yMin="-37" xMax="1500" yMax="1925">
      <contour>
        <pt x="796" y="1517" on="1"/>
        <pt x="1115" y="1517" on="0"/>
        <pt x="1308" y="1306" on="1"/>
        <pt x="1500" y="1094" on="0"/>
        <pt x="1500" y="742" on="1"/>
        <pt x="1500" y="383" on="0"/>
        <pt x="1308" y="173" on="1"/>
        <pt x="1115" y="-37" on="0"/>
        <pt x="786" y="-37" on="1"/>
        <pt x="504" y="-37" on="0"/>
        <pt x="321" y="136" on="1"/>
        <pt x="92" y="353" on="0"/>
        <pt x="92" y="740" on="1"/>
        <pt x="92" y="1095" on="0"/>
        <pt x="284" y="1306" on="1"/>
        <pt x="476" y="1517" on="0"/>
      </contour>
      <contour>
        <pt x="796" y="1360" on="1"/>
        <pt x="569" y="1360" on="0"/>
        <pt x="443" y="1197" on="1"/>
        <pt x="317" y="1034" on="0"/>
        <pt x="317" y="741" on="1"/>
        <pt x="317" y="450" on="0"/>
        <pt x="443" y="285" on="1"/>
        <pt x="568" y="120" on="0"/>
        <pt x="791" y="120" on="1"/>
        <pt x="998" y="120" on="0"/>
        <pt x="1121" y="252" on="1"/>
        <pt x="1275" y="415" on="0"/>
        <pt x="1275" y="742" on="1"/>
        <pt x="1275" y="1034" on="0"/>
        <pt x="1148" y="1197" on="1"/>
        <pt x="1021" y="1360" on="0"/>
      </contour>
      <contour>
        <pt x="446" y="1604" on="1"/>
        <pt x="687" y="1925" on="1"/>
        <pt x="905" y="1925" on="1"/>
        <pt x="1146" y="1604" on="1"/>
        <pt x="998" y="1604" on="1"/>
        <pt x="797" y="1806" on="1"/>
        <pt x="795" y="1806" on="1"/>
        <pt x="594" y="1604" on="1"/>
      </contour>
    </TTGlyph>
    <TTGlyph name="Odieresis" xMin="92" yMin="-37" xMax="1500" yMax="1777">
      <contour>
        <pt x="796" y="1517" on="1"/>
        <pt x="1115" y="1517" on="0"/>
        <pt x="1308" y="1306" on="1"/>
        <pt x="1500" y="1094" on="0"/>
        <pt x="1500" y="742" on="1"/>
        <pt x="1500" y="383" on="0"/>
        <pt x="1308" y="173" on="1"/>
        <pt x="1115" y="-37" on="0"/>
        <pt x="786" y="-37" on="1"/>
        <pt x="504" y="-37" on="0"/>
        <pt x="321" y="136" on="1"/>
        <pt x="92" y="353" on="0"/>
        <pt x="92" y="740" on="1"/>
        <pt x="92" y="1095" on="0"/>
        <pt x="284" y="1306" on="1"/>
        <pt x="476" y="1517" on="0"/>
      </contour>
      <contour>
        <pt x="796" y="1360" on="1"/>
        <pt x="569" y="1360" on="0"/>
        <pt x="443" y="1197" on="1"/>
        <pt x="317" y="1034" on="0"/>
        <pt x="317" y="741" on="1"/>
        <pt x="317" y="450" on="0"/>
        <pt x="443" y="285" on="1"/>
        <pt x="568" y="120" on="0"/>
        <pt x="791" y="120" on="1"/>
        <pt x="998" y="120" on="0"/>
        <pt x="1121" y="252" on="1"/>
        <pt x="1275" y="415" on="0"/>
        <pt x="1275" y="742" on="1"/>
        <pt x="1275" y="1034" on="0"/>
        <pt x="1148" y="1197" on="1"/>
        <pt x="1021" y="1360" on="0"/>
      </contour>
      <contour>
        <pt x="512" y="1604" on="1"/>
        <pt x="512" y="1777" on="1"/>
        <pt x="685" y="1777" on="1"/>
        <pt x="685" y="1604" on="1"/>
      </contour>
      <contour>
        <pt x="907" y="1604" on="1"/>
        <pt x="907" y="1777" on="1"/>
        <pt x="1080" y="1777" on="1"/>
        <pt x="1080" y="1604" on="1"/>
      </contour>
    </TTGlyph>
    <TTGlyph name="Ograve" xMin="92" yMin="-37" xMax="1500" yMax="1925">
      <contour>
        <pt x="796" y="1517" on="1"/>
        <pt x="1115" y="1517" on="0"/>
        <pt x="1308" y="1306" on="1"/>
        <pt x="1500" y="1094" on="0"/>
        <pt x="1500" y="742" on="1"/>
        <pt x="1500" y="383" on="0"/>
        <pt x="1308" y="173" on="1"/>
        <pt x="1115" y="-37" on="0"/>
        <pt x="786" y="-37" on="1"/>
        <pt x="504" y="-37" on="0"/>
        <pt x="321" y="136" on="1"/>
        <pt x="92" y="353" on="0"/>
        <pt x="92" y="740" on="1"/>
        <pt x="92" y="1095" on="0"/>
        <pt x="284" y="1306" on="1"/>
        <pt x="476" y="1517" on="0"/>
      </contour>
      <contour>
        <pt x="796" y="1360" on="1"/>
        <pt x="569" y="1360" on="0"/>
        <pt x="443" y="1197" on="1"/>
        <pt x="317" y="1034" on="0"/>
        <pt x="317" y="741" on="1"/>
        <pt x="317" y="450" on="0"/>
        <pt x="443" y="285" on="1"/>
        <pt x="568" y="120" on="0"/>
        <pt x="791" y="120" on="1"/>
        <pt x="998" y="120" on="0"/>
        <pt x="1121" y="252" on="1"/>
        <pt x="1275" y="415" on="0"/>
        <pt x="1275" y="742" on="1"/>
        <pt x="1275" y="1034" on="0"/>
        <pt x="1148" y="1197" on="1"/>
        <pt x="1021" y="1360" on="0"/>
      </contour>
      <contour>
        <pt x="944" y="1604" on="1"/>
        <pt x="796" y="1604" on="1"/>
        <pt x="475" y="1925" on="1"/>
        <pt x="703" y="1925" on="1"/>
      </contour>
    </TTGlyph>
    <TTGlyph name="Ohungarumlaut" xMin="93" yMin="-37" xMax="1501" yMax="1925">
      <contour>
        <pt x="797" y="1517" on="1"/>
        <pt x="1116" y="1517" on="0"/>
        <pt x="1309" y="1306" on="1"/>
        <pt x="1501" y="1094" on="0"/>
        <pt x="1501" y="742" on="1"/>
        <pt x="1501" y="383" on="0"/>
        <pt x="1309" y="173" on="1"/>
        <pt x="1116" y="-37" on="0"/>
        <pt x="787" y="-37" on="1"/>
        <pt x="505" y="-37" on="0"/>
        <pt x="322" y="136" on="1"/>
        <pt x="93" y="353" on="0"/>
        <pt x="93" y="740" on="1"/>
        <pt x="93" y="1095" on="0"/>
        <pt x="285" y="1306" on="1"/>
        <pt x="477" y="1517" on="0"/>
      </contour>
      <contour>
        <pt x="797" y="1360" on="1"/>
        <pt x="570" y="1360" on="0"/>
        <pt x="444" y="1197" on="1"/>
        <pt x="318" y="1034" on="0"/>
        <pt x="318" y="741" on="1"/>
        <pt x="318" y="450" on="0"/>
        <pt x="444" y="285" on="1"/>
        <pt x="569" y="120" on="0"/>
        <pt x="792" y="120" on="1"/>
        <pt x="999" y="120" on="0"/>
        <pt x="1122" y="252" on="1"/>
        <pt x="1276" y="415" on="0"/>
        <pt x="1276" y="742" on="1"/>
        <pt x="1276" y="1034" on="0"/>
        <pt x="1149" y="1197" on="1"/>
        <pt x="1022" y="1360" on="0"/>
      </contour>
      <contour>
        <pt x="566" y="1604" on="1"/>
        <pt x="807" y="1925" on="1"/>
        <pt x="998" y="1925" on="1"/>
        <pt x="677" y="1604" on="1"/>
      </contour>
      <contour>
        <pt x="918" y="1604" on="1"/>
        <pt x="1158" y="1925" on="1"/>
        <pt x="1349" y="1925" on="1"/>
        <pt x="1029" y="1604" on="1"/>
      </contour>
    </TTGlyph>
    <TTGlyph name="Omacron" xMin="93" yMin="-37" xMax="1501" yMax="1752">
      <contour>
        <pt x="797" y="1517" on="1"/>
        <pt x="1116" y="1517" on="0"/>
        <pt x="1309" y="1306" on="1"/>
        <pt x="1501" y="1094" on="0"/>
        <pt x="1501" y="742" on="1"/>
        <pt x="1501" y="383" on="0"/>
        <pt x="1309" y="173" on="1"/>
        <pt x="1116" y="-37" on="0"/>
        <pt x="787" y="-37" on="1"/>
        <pt x="505" y="-37" on="0"/>
        <pt x="322" y="136" on="1"/>
        <pt x="93" y="353" on="0"/>
        <pt x="93" y="740" on="1"/>
        <pt x="93" y="1095" on="0"/>
        <pt x="285" y="1306" on="1"/>
        <pt x="477" y="1517" on="0"/>
      </contour>
      <contour>
        <pt x="797" y="1360" on="1"/>
        <pt x="570" y="1360" on="0"/>
        <pt x="444" y="1197" on="1"/>
        <pt x="318" y="1034" on="0"/>
        <pt x="318" y="741" on="1"/>
        <pt x="318" y="450" on="0"/>
        <pt x="444" y="285" on="1"/>
        <pt x="569" y="120" on="0"/>
        <pt x="792" y="120" on="1"/>
        <pt x="999" y="120" on="0"/>
        <pt x="1122" y="252" on="1"/>
        <pt x="1276" y="415" on="0"/>
        <pt x="1276" y="742" on="1"/>
        <pt x="1276" y="1034" on="0"/>
        <pt x="1149" y="1197" on="1"/>
        <pt x="1022" y="1360" on="0"/>
      </contour>
      <contour>
        <pt x="476" y="1604" on="1"/>
        <pt x="476" y="1752" on="1"/>
        <pt x="1118" y="1752" on="1"/>
        <pt x="1118" y="1604" on="1"/>
      </contour>
    </TTGlyph>
    <TTGlyph name="Oslash" xMin="93" yMin="-37" xMax="1501" yMax="1517">
      <contour>
        <pt x="104" y="-37" on="1"/>
        <pt x="278" y="184" on="1"/>
        <pt x="196" y="286" on="0"/>
        <pt x="154" y="390" on="1"/>
        <pt x="93" y="545" on="0"/>
        <pt x="93" y="742" on="1"/>
        <pt x="93" y="1094" on="0"/>
        <pt x="285" y="1306" on="1"/>
        <pt x="476" y="1517" on="0"/>
        <pt x="795" y="1517" on="1"/>
        <pt x="1038" y="1517" on="0"/>
        <pt x="1223" y="1384" on="1"/>
        <pt x="1329" y="1517" on="1"/>
        <pt x="1501" y="1517" on="1"/>
        <pt x="1322" y="1290" on="1"/>
        <pt x="1401" y="1188" on="0"/>
        <pt x="1442" y="1085" on="1"/>
        <pt x="1501" y="932" on="0"/>
        <pt x="1501" y="738" on="1"/>
        <pt x="1501" y="385" on="0"/>
        <pt x="1309" y="174" on="1"/>
        <pt x="1118" y="-37" on="0"/>
        <pt x="798" y="-37" on="1"/>
        <pt x="563" y="-37" on="0"/>
        <pt x="378" y="91" on="1"/>
        <pt x="276" y="-37" on="1"/>
      </contour>
      <contour>
        <pt x="491" y="235" on="1"/>
        <pt x="621" y="120" on="0"/>
        <pt x="798" y="120" on="1"/>
        <pt x="1023" y="120" on="0"/>
        <pt x="1149" y="283" on="1"/>
        <pt x="1276" y="446" on="0"/>
        <pt x="1276" y="737" on="1"/>
        <pt x="1276" y="969" on="0"/>
        <pt x="1194" y="1127" on="1"/>
      </contour>
      <contour>
        <pt x="1110" y="1240" on="1"/>
        <pt x="976" y="1360" on="0"/>
        <pt x="796" y="1360" on="1"/>
        <pt x="571" y="1360" on="0"/>
        <pt x="445" y="1197" on="1"/>
        <pt x="318" y="1034" on="0"/>
        <pt x="318" y="743" on="1"/>
        <pt x="318" y="507" on="0"/>
        <pt x="405" y="345" on="1"/>
      </contour>
    </TTGlyph>
    <TTGlyph name="Otilde" xMin="92" yMin="-37" xMax="1500" yMax="1838">
      <contour>
        <pt x="796" y="1517" on="1"/>
        <pt x="1115" y="1517" on="0"/>
        <pt x="1308" y="1306" on="1"/>
        <pt x="1500" y="1094" on="0"/>
        <pt x="1500" y="742" on="1"/>
        <pt x="1500" y="383" on="0"/>
        <pt x="1308" y="173" on="1"/>
        <pt x="1115" y="-37" on="0"/>
        <pt x="786" y="-37" on="1"/>
        <pt x="504" y="-37" on="0"/>
        <pt x="321" y="136" on="1"/>
        <pt x="92" y="353" on="0"/>
        <pt x="92" y="740" on="1"/>
        <pt x="92" y="1095" on="0"/>
        <pt x="284" y="1306" on="1"/>
        <pt x="476" y="1517" on="0"/>
      </contour>
      <contour>
        <pt x="796" y="1360" on="1"/>
        <pt x="569" y="1360" on="0"/>
        <pt x="443" y="1197" on="1"/>
        <pt x="317" y="1034" on="0"/>
        <pt x="317" y="741" on="1"/>
        <pt x="317" y="450" on="0"/>
        <pt x="443" y="285" on="1"/>
        <pt x="568" y="120" on="0"/>
        <pt x="791" y="120" on="1"/>
        <pt x="998" y="120" on="0"/>
        <pt x="1121" y="252" on="1"/>
        <pt x="1275" y="415" on="0"/>
        <pt x="1275" y="742" on="1"/>
        <pt x="1275" y="1034" on="0"/>
        <pt x="1148" y="1197" on="1"/>
        <pt x="1021" y="1360" on="0"/>
      </contour>
      <contour>
        <pt x="463" y="1604" on="1"/>
        <pt x="470" y="1697" on="0"/>
        <pt x="495" y="1748" on="1"/>
        <pt x="541" y="1838" on="0"/>
        <pt x="650" y="1838" on="1"/>
        <pt x="722" y="1838" on="0"/>
        <pt x="783" y="1800" on="1"/>
        <pt x="843" y="1763" on="1"/>
        <pt x="900" y="1728" on="0"/>
        <pt x="930" y="1728" on="1"/>
        <pt x="995" y="1728" on="0"/>
        <pt x="1006" y="1838" on="1"/>
        <pt x="1129" y="1838" on="1"/>
        <pt x="1122" y="1744" on="0"/>
        <pt x="1097" y="1694" on="1"/>
        <pt x="1052" y="1604" on="0"/>
        <pt x="944" y="1604" on="1"/>
        <pt x="872" y="1604" on="0"/>
        <pt x="809" y="1643" on="1"/>
        <pt x="749" y="1680" on="1"/>
        <pt x="694" y="1714" on="0"/>
        <pt x="662" y="1714" on="1"/>
        <pt x="597" y="1714" on="0"/>
        <pt x="586" y="1604" on="1"/>
      </contour>
    </TTGlyph>
    <TTGlyph name="P" xMin="167" yMin="0" xMax="1318" yMax="1480">
      <contour>
        <pt x="167" y="0" on="1"/>
        <pt x="167" y="1480" on="1"/>
        <pt x="747" y="1480" on="1"/>
        <pt x="976" y="1480" on="0"/>
        <pt x="1075" y="1454" on="1"/>
        <pt x="1176" y="1427" on="0"/>
        <pt x="1239" y="1351" on="1"/>
        <pt x="1318" y="1255" on="0"/>
        <pt x="1318" y="1089" on="1"/>
        <pt x="1318" y="588" on="0"/>
        <pt x="685" y="588" on="1"/>
        <pt x="377" y="588" on="1"/>
        <pt x="377" y="0" on="1"/>
      </contour>
      <contour>
        <pt x="377" y="747" on="1"/>
        <pt x="676" y="747" on="1"/>
        <pt x="1096" y="747" on="0"/>
        <pt x="1096" y="1076" on="1"/>
        <pt x="1096" y="1236" on="0"/>
        <pt x="987" y="1283" on="1"/>
        <pt x="894" y="1323" on="0"/>
        <pt x="681" y="1323" on="1"/>
        <pt x="377" y="1323" on="1"/>
      </contour>
    </TTGlyph>
    <TTGlyph name="Q" xMin="93" yMin="-296" xMax="1639" yMax="1517">
      <contour>
        <pt x="1639" y="-129" on="1"/>
        <pt x="1506" y="-296" on="1"/>
        <pt x="1156" y="-181" on="0"/>
        <pt x="922" y="-27" on="1"/>
        <pt x="819" y="-38" on="0"/>
        <pt x="765" y="-38" on="1"/>
        <pt x="471" y="-38" on="0"/>
        <pt x="282" y="180" on="1"/>
        <pt x="93" y="397" on="0"/>
        <pt x="93" y="741" on="1"/>
        <pt x="93" y="1093" on="0"/>
        <pt x="284" y="1305" on="1"/>
        <pt x="475" y="1517" on="0"/>
        <pt x="794" y="1517" on="1"/>
        <pt x="1116" y="1517" on="0"/>
        <pt x="1309" y="1305" on="1"/>
        <pt x="1502" y="1094" on="0"/>
        <pt x="1502" y="738" on="1"/>
        <pt x="1502" y="427" on="0"/>
        <pt x="1356" y="231" on="1"/>
        <pt x="1300" y="155" on="0"/>
        <pt x="1227" y="100" on="1"/>
        <pt x="1189" y="72" on="0"/>
        <pt x="1114" y="30" on="1"/>
        <pt x="1360" y="-80" on="0"/>
      </contour>
      <contour>
        <pt x="793" y="1360" on="1"/>
        <pt x="570" y="1360" on="0"/>
        <pt x="444" y="1195" on="1"/>
        <pt x="318" y="1031" on="0"/>
        <pt x="318" y="740" on="1"/>
        <pt x="318" y="450" on="0"/>
        <pt x="444" y="285" on="1"/>
        <pt x="570" y="120" on="0"/>
        <pt x="793" y="120" on="1"/>
        <pt x="1018" y="120" on="0"/>
        <pt x="1147" y="282" on="1"/>
        <pt x="1276" y="444" on="0"/>
        <pt x="1276" y="734" on="1"/>
        <pt x="1276" y="1003" on="0"/>
        <pt x="1173" y="1163" on="1"/>
        <pt x="1046" y="1360" on="0"/>
      </contour>
    </TTGlyph>
    <TTGlyph name="R" xMin="165" yMin="0" xMax="1434" yMax="1480">
      <contour>
        <pt x="165" y="0" on="1"/>
        <pt x="165" y="1480" on="1"/>
        <pt x="783" y="1480" on="1"/>
        <pt x="1239" y="1480" on="0"/>
        <pt x="1239" y="1113" on="1"/>
        <pt x="1239" y="933" on="0"/>
        <pt x="1128" y="817" on="1"/>
        <pt x="1063" y="748" on="0"/>
        <pt x="940" y="693" on="1"/>
        <pt x="1434" y="0" on="1"/>
        <pt x="1176" y="0" on="1"/>
        <pt x="755" y="626" on="1"/>
        <pt x="375" y="626" on="1"/>
        <pt x="375" y="0" on="1"/>
      </contour>
      <contour>
        <pt x="375" y="783" on="1"/>
        <pt x="610" y="783" on="1"/>
        <pt x="824" y="783" on="0"/>
        <pt x="923" y="857" on="1"/>
        <pt x="1023" y="932" on="0"/>
        <pt x="1023" y="1089" on="1"/>
        <pt x="1023" y="1216" on="0"/>
        <pt x="942" y="1269" on="1"/>
        <pt x="862" y="1323" on="0"/>
        <pt x="675" y="1323" on="1"/>
        <pt x="375" y="1323" on="1"/>
      </contour>
    </TTGlyph>
    <TTGlyph name="Racute" xMin="165" yMin="0" xMax="1434" yMax="1925">
      <contour>
        <pt x="165" y="0" on="1"/>
        <pt x="165" y="1480" on="1"/>
        <pt x="783" y="1480" on="1"/>
        <pt x="1239" y="1480" on="0"/>
        <pt x="1239" y="1113" on="1"/>
        <pt x="1239" y="933" on="0"/>
        <pt x="1128" y="817" on="1"/>
        <pt x="1063" y="748" on="0"/>
        <pt x="940" y="693" on="1"/>
        <pt x="1434" y="0" on="1"/>
        <pt x="1176" y="0" on="1"/>
        <pt x="755" y="626" on="1"/>
        <pt x="375" y="626" on="1"/>
        <pt x="375" y="0" on="1"/>
      </contour>
      <contour>
        <pt x="375" y="783" on="1"/>
        <pt x="610" y="783" on="1"/>
        <pt x="824" y="783" on="0"/>
        <pt x="923" y="857" on="1"/>
        <pt x="1023" y="932" on="0"/>
        <pt x="1023" y="1089" on="1"/>
        <pt x="1023" y="1216" on="0"/>
        <pt x="942" y="1269" on="1"/>
        <pt x="862" y="1323" on="0"/>
        <pt x="675" y="1323" on="1"/>
        <pt x="375" y="1323" on="1"/>
      </contour>
      <contour>
        <pt x="523" y="1604" on="1"/>
        <pt x="764" y="1925" on="1"/>
        <pt x="992" y="1925" on="1"/>
        <pt x="671" y="1604" on="1"/>
      </contour>
    </TTGlyph>
    <TTGlyph name="Rcaron" xMin="165" yMin="0" xMax="1434" yMax="1925">
      <contour>
        <pt x="165" y="0" on="1"/>
        <pt x="165" y="1480" on="1"/>
        <pt x="783" y="1480" on="1"/>
        <pt x="1239" y="1480" on="0"/>
        <pt x="1239" y="1113" on="1"/>
        <pt x="1239" y="933" on="0"/>
        <pt x="1128" y="817" on="1"/>
        <pt x="1063" y="748" on="0"/>
        <pt x="940" y="693" on="1"/>
        <pt x="1434" y="0" on="1"/>
        <pt x="1176" y="0" on="1"/>
        <pt x="755" y="626" on="1"/>
        <pt x="375" y="626" on="1"/>
        <pt x="375" y="0" on="1"/>
      </contour>
      <contour>
        <pt x="375" y="783" on="1"/>
        <pt x="610" y="783" on="1"/>
        <pt x="824" y="783" on="0"/>
        <pt x="923" y="857" on="1"/>
        <pt x="1023" y="932" on="0"/>
        <pt x="1023" y="1089" on="1"/>
        <pt x="1023" y="1216" on="0"/>
        <pt x="942" y="1269" on="1"/>
        <pt x="862" y="1323" on="0"/>
        <pt x="675" y="1323" on="1"/>
        <pt x="375" y="1323" on="1"/>
      </contour>
      <contour>
        <pt x="982" y="1925" on="1"/>
        <pt x="741" y="1604" on="1"/>
        <pt x="523" y="1604" on="1"/>
        <pt x="282" y="1925" on="1"/>
        <pt x="430" y="1925" on="1"/>
        <pt x="631" y="1723" on="1"/>
        <pt x="633" y="1723" on="1"/>
        <pt x="834" y="1925" on="1"/>
      </contour>
    </TTGlyph>
    <TTGlyph name="Rcommaaccent" xMin="165" yMin="-432" xMax="1434" yMax="1480">
      <contour>
        <pt x="165" y="0" on="1"/>
        <pt x="165" y="1480" on="1"/>
        <pt x="783" y="1480" on="1"/>
        <pt x="1239" y="1480" on="0"/>
        <pt x="1239" y="1113" on="1"/>
        <pt x="1239" y="933" on="0"/>
        <pt x="1128" y="817" on="1"/>
        <pt x="1063" y="748" on="0"/>
        <pt x="940" y="693" on="1"/>
        <pt x="1434" y="0" on="1"/>
        <pt x="1176" y="0" on="1"/>
        <pt x="755" y="626" on="1"/>
        <pt x="375" y="626" on="1"/>
        <pt x="375" y="0" on="1"/>
      </contour>
      <contour>
        <pt x="375" y="783" on="1"/>
        <pt x="610" y="783" on="1"/>
        <pt x="824" y="783" on="0"/>
        <pt x="923" y="857" on="1"/>
        <pt x="1023" y="932" on="0"/>
        <pt x="1023" y="1089" on="1"/>
        <pt x="1023" y="1216" on="0"/>
        <pt x="942" y="1269" on="1"/>
        <pt x="862" y="1323" on="0"/>
        <pt x="675" y="1323" on="1"/>
        <pt x="375" y="1323" on="1"/>
      </contour>
      <contour>
        <pt x="523" y="-421" on="1"/>
        <pt x="523" y="-336" on="1"/>
        <pt x="580" y="-345" on="0"/>
        <pt x="620" y="-345" on="1"/>
        <pt x="730" y="-345" on="0"/>
        <pt x="730" y="-278" on="1"/>
        <pt x="730" y="-204" on="0"/>
        <pt x="572" y="-188" on="1"/>
        <pt x="572" y="-111" on="1"/>
        <pt x="706" y="-114" on="0"/>
        <pt x="772" y="-143" on="1"/>
        <pt x="865" y="-185" on="0"/>
        <pt x="865" y="-280" on="1"/>
        <pt x="865" y="-432" on="0"/>
        <pt x="648" y="-432" on="1"/>
        <pt x="589" y="-432" on="0"/>
      </contour>
    </TTGlyph>
    <TTGlyph name="S" xMin="120" yMin="-37" xMax="1243" yMax="1517">
      <contour>
        <pt x="120" y="52" on="1"/>
        <pt x="120" y="260" on="1"/>
        <pt x="416" y="120" on="0"/>
        <pt x="704" y="120" on="1"/>
        <pt x="1027" y="120" on="0"/>
        <pt x="1027" y="359" on="1"/>
        <pt x="1027" y="483" on="0"/>
        <pt x="938" y="541" on="1"/>
        <pt x="869" y="587" on="0"/>
        <pt x="716" y="637" on="1"/>
        <pt x="515" y="703" on="1"/>
        <pt x="128" y="830" on="0"/>
        <pt x="128" y="1122" on="1"/>
        <pt x="128" y="1517" on="0"/>
        <pt x="670" y="1517" on="1"/>
        <pt x="902" y="1517" on="0"/>
        <pt x="1151" y="1454" on="1"/>
        <pt x="1151" y="1261" on="1"/>
        <pt x="891" y="1360" on="0"/>
        <pt x="657" y="1360" on="1"/>
        <pt x="331" y="1360" on="0"/>
        <pt x="331" y="1138" on="1"/>
        <pt x="331" y="1051" on="0"/>
        <pt x="392" y="998" on="1"/>
        <pt x="455" y="943" on="0"/>
        <pt x="614" y="891" on="1"/>
        <pt x="820" y="824" on="1"/>
        <pt x="1053" y="748" on="0"/>
        <pt x="1148" y="650" on="1"/>
        <pt x="1243" y="553" on="0"/>
        <pt x="1243" y="390" on="1"/>
        <pt x="1243" y="193" on="0"/>
        <pt x="1097" y="78" on="1"/>
        <pt x="952" y="-37" on="0"/>
        <pt x="696" y="-37" on="1"/>
        <pt x="444" y="-37" on="0"/>
      </contour>
    </TTGlyph>
    <TTGlyph name="Sacute" xMin="120" yMin="-37" xMax="1243" yMax="1925">
      <contour>
        <pt x="120" y="52" on="1"/>
        <pt x="120" y="260" on="1"/>
        <pt x="416" y="120" on="0"/>
        <pt x="704" y="120" on="1"/>
        <pt x="1027" y="120" on="0"/>
        <pt x="1027" y="359" on="1"/>
        <pt x="1027" y="483" on="0"/>
        <pt x="938" y="541" on="1"/>
        <pt x="869" y="587" on="0"/>
        <pt x="716" y="637" on="1"/>
        <pt x="515" y="703" on="1"/>
        <pt x="128" y="830" on="0"/>
        <pt x="128" y="1122" on="1"/>
        <pt x="128" y="1517" on="0"/>
        <pt x="670" y="1517" on="1"/>
        <pt x="902" y="1517" on="0"/>
        <pt x="1151" y="1454" on="1"/>
        <pt x="1151" y="1261" on="1"/>
        <pt x="891" y="1360" on="0"/>
        <pt x="657" y="1360" on="1"/>
        <pt x="331" y="1360" on="0"/>
        <pt x="331" y="1138" on="1"/>
        <pt x="331" y="1051" on="0"/>
        <pt x="392" y="998" on="1"/>
        <pt x="455" y="943" on="0"/>
        <pt x="614" y="891" on="1"/>
        <pt x="820" y="824" on="1"/>
        <pt x="1053" y="748" on="0"/>
        <pt x="1148" y="650" on="1"/>
        <pt x="1243" y="553" on="0"/>
        <pt x="1243" y="390" on="1"/>
        <pt x="1243" y="193" on="0"/>
        <pt x="1097" y="78" on="1"/>
        <pt x="952" y="-37" on="0"/>
        <pt x="696" y="-37" on="1"/>
        <pt x="444" y="-37" on="0"/>
      </contour>
      <contour>
        <pt x="523" y="1604" on="1"/>
        <pt x="764" y="1925" on="1"/>
        <pt x="992" y="1925" on="1"/>
        <pt x="671" y="1604" on="1"/>
      </contour>
    </TTGlyph>
    <TTGlyph name="Scaron" xMin="120" yMin="-37" xMax="1243" yMax="1925">
      <contour>
        <pt x="120" y="52" on="1"/>
        <pt x="120" y="260" on="1"/>
        <pt x="416" y="120" on="0"/>
        <pt x="704" y="120" on="1"/>
        <pt x="1027" y="120" on="0"/>
        <pt x="1027" y="359" on="1"/>
        <pt x="1027" y="483" on="0"/>
        <pt x="938" y="541" on="1"/>
        <pt x="869" y="587" on="0"/>
        <pt x="716" y="637" on="1"/>
        <pt x="515" y="703" on="1"/>
        <pt x="128" y="830" on="0"/>
        <pt x="128" y="1122" on="1"/>
        <pt x="128" y="1517" on="0"/>
        <pt x="670" y="1517" on="1"/>
        <pt x="902" y="1517" on="0"/>
        <pt x="1151" y="1454" on="1"/>
        <pt x="1151" y="1261" on="1"/>
        <pt x="891" y="1360" on="0"/>
        <pt x="657" y="1360" on="1"/>
        <pt x="331" y="1360" on="0"/>
        <pt x="331" y="1138" on="1"/>
        <pt x="331" y="1051" on="0"/>
        <pt x="392" y="998" on="1"/>
        <pt x="455" y="943" on="0"/>
        <pt x="614" y="891" on="1"/>
        <pt x="820" y="824" on="1"/>
        <pt x="1053" y="748" on="0"/>
        <pt x="1148" y="650" on="1"/>
        <pt x="1243" y="553" on="0"/>
        <pt x="1243" y="390" on="1"/>
        <pt x="1243" y="193" on="0"/>
        <pt x="1097" y="78" on="1"/>
        <pt x="952" y="-37" on="0"/>
        <pt x="696" y="-37" on="1"/>
        <pt x="444" y="-37" on="0"/>
      </contour>
      <contour>
        <pt x="1021" y="1925" on="1"/>
        <pt x="780" y="1604" on="1"/>
        <pt x="562" y="1604" on="1"/>
        <pt x="321" y="1925" on="1"/>
        <pt x="469" y="1925" on="1"/>
        <pt x="670" y="1723" on="1"/>
        <pt x="672" y="1723" on="1"/>
        <pt x="873" y="1925" on="1"/>
      </contour>
    </TTGlyph>
    <TTGlyph name="Scedilla" xMin="120" yMin="-432" xMax="1243" yMax="1517">
      <contour>
        <pt x="120" y="52" on="1"/>
        <pt x="120" y="260" on="1"/>
        <pt x="416" y="120" on="0"/>
        <pt x="704" y="120" on="1"/>
        <pt x="1027" y="120" on="0"/>
        <pt x="1027" y="359" on="1"/>
        <pt x="1027" y="483" on="0"/>
        <pt x="938" y="541" on="1"/>
        <pt x="870" y="587" on="0"/>
        <pt x="716" y="637" on="1"/>
        <pt x="515" y="703" on="1"/>
        <pt x="128" y="830" on="0"/>
        <pt x="128" y="1122" on="1"/>
        <pt x="128" y="1517" on="0"/>
        <pt x="670" y="1517" on="1"/>
        <pt x="902" y="1517" on="0"/>
        <pt x="1151" y="1454" on="1"/>
        <pt x="1151" y="1261" on="1"/>
        <pt x="891" y="1360" on="0"/>
        <pt x="657" y="1360" on="1"/>
        <pt x="331" y="1360" on="0"/>
        <pt x="331" y="1138" on="1"/>
        <pt x="331" y="1051" on="0"/>
        <pt x="392" y="998" on="1"/>
        <pt x="455" y="943" on="0"/>
        <pt x="614" y="891" on="1"/>
        <pt x="820" y="824" on="1"/>
        <pt x="1053" y="748" on="0"/>
        <pt x="1148" y="650" on="1"/>
        <pt x="1243" y="553" on="0"/>
        <pt x="1243" y="391" on="1"/>
        <pt x="1243" y="192" on="0"/>
        <pt x="1097" y="78" on="1"/>
        <pt x="951" y="-37" on="0"/>
        <pt x="696" y="-37" on="1"/>
        <pt x="444" y="-37" on="0"/>
      </contour>
      <contour>
        <pt x="601" y="0" on="1"/>
        <pt x="698" y="0" on="1"/>
        <pt x="638" y="-109" on="1"/>
        <pt x="710" y="-111" on="0"/>
        <pt x="762" y="-148" on="1"/>
        <pt x="832" y="-197" on="0"/>
        <pt x="832" y="-269" on="1"/>
        <pt x="832" y="-337" on="0"/>
        <pt x="773" y="-384" on="1"/>
        <pt x="714" y="-432" on="0"/>
        <pt x="629" y="-432" on="1"/>
        <pt x="562" y="-432" on="0"/>
        <pt x="485" y="-411" on="1"/>
        <pt x="485" y="-330" on="1"/>
        <pt x="535" y="-345" on="0"/>
        <pt x="589" y="-345" on="1"/>
        <pt x="693" y="-345" on="0"/>
        <pt x="693" y="-271" on="1"/>
        <pt x="693" y="-178" on="0"/>
        <pt x="506" y="-175" on="1"/>
      </contour>
    </TTGlyph>
    <TTGlyph name="Scircumflex" xMin="120" yMin="-37" xMax="1243" yMax="1925">
      <contour>
        <pt x="120" y="52" on="1"/>
        <pt x="120" y="260" on="1"/>
        <pt x="416" y="120" on="0"/>
        <pt x="704" y="120" on="1"/>
        <pt x="1027" y="120" on="0"/>
        <pt x="1027" y="359" on="1"/>
        <pt x="1027" y="483" on="0"/>
        <pt x="938" y="541" on="1"/>
        <pt x="869" y="587" on="0"/>
        <pt x="716" y="637" on="1"/>
        <pt x="515" y="703" on="1"/>
        <pt x="128" y="830" on="0"/>
        <pt x="128" y="1122" on="1"/>
        <pt x="128" y="1517" on="0"/>
        <pt x="670" y="1517" on="1"/>
        <pt x="902" y="1517" on="0"/>
        <pt x="1151" y="1454" on="1"/>
        <pt x="1151" y="1261" on="1"/>
        <pt x="891" y="1360" on="0"/>
        <pt x="657" y="1360" on="1"/>
        <pt x="331" y="1360" on="0"/>
        <pt x="331" y="1138" on="1"/>
        <pt x="331" y="1051" on="0"/>
        <pt x="392" y="998" on="1"/>
        <pt x="455" y="943" on="0"/>
        <pt x="614" y="891" on="1"/>
        <pt x="820" y="824" on="1"/>
        <pt x="1053" y="748" on="0"/>
        <pt x="1148" y="650" on="1"/>
        <pt x="1243" y="553" on="0"/>
        <pt x="1243" y="390" on="1"/>
        <pt x="1243" y="193" on="0"/>
        <pt x="1097" y="78" on="1"/>
        <pt x="952" y="-37" on="0"/>
        <pt x="696" y="-37" on="1"/>
        <pt x="444" y="-37" on="0"/>
      </contour>
      <contour>
        <pt x="321" y="1604" on="1"/>
        <pt x="562" y="1925" on="1"/>
        <pt x="780" y="1925" on="1"/>
        <pt x="1021" y="1604" on="1"/>
        <pt x="873" y="1604" on="1"/>
        <pt x="672" y="1806" on="1"/>
        <pt x="670" y="1806" on="1"/>
        <pt x="469" y="1604" on="1"/>
      </contour>
    </TTGlyph>
    <TTGlyph name="Scommaaccent" xMin="120" yMin="-432" xMax="1243" yMax="1517">
      <contour>
        <pt x="120" y="52" on="1"/>
        <pt x="120" y="260" on="1"/>
        <pt x="416" y="120" on="0"/>
        <pt x="704" y="120" on="1"/>
        <pt x="1027" y="120" on="0"/>
        <pt x="1027" y="359" on="1"/>
        <pt x="1027" y="483" on="0"/>
        <pt x="938" y="541" on="1"/>
        <pt x="870" y="587" on="0"/>
        <pt x="716" y="637" on="1"/>
        <pt x="515" y="703" on="1"/>
        <pt x="128" y="830" on="0"/>
        <pt x="128" y="1122" on="1"/>
        <pt x="128" y="1517" on="0"/>
        <pt x="670" y="1517" on="1"/>
        <pt x="902" y="1517" on="0"/>
        <pt x="1151" y="1454" on="1"/>
        <pt x="1151" y="1261" on="1"/>
        <pt x="891" y="1360" on="0"/>
        <pt x="657" y="1360" on="1"/>
        <pt x="331" y="1360" on="0"/>
        <pt x="331" y="1138" on="1"/>
        <pt x="331" y="1051" on="0"/>
        <pt x="392" y="998" on="1"/>
        <pt x="455" y="943" on="0"/>
        <pt x="614" y="891" on="1"/>
        <pt x="820" y="824" on="1"/>
        <pt x="1053" y="748" on="0"/>
        <pt x="1148" y="650" on="1"/>
        <pt x="1243" y="553" on="0"/>
        <pt x="1243" y="391" on="1"/>
        <pt x="1243" y="192" on="0"/>
        <pt x="1097" y="78" on="1"/>
        <pt x="951" y="-37" on="0"/>
        <pt x="696" y="-37" on="1"/>
        <pt x="444" y="-37" on="0"/>
      </contour>
      <contour>
        <pt x="524" y="-421" on="1"/>
        <pt x="524" y="-336" on="1"/>
        <pt x="581" y="-345" on="0"/>
        <pt x="621" y="-345" on="1"/>
        <pt x="731" y="-345" on="0"/>
        <pt x="731" y="-278" on="1"/>
        <pt x="731" y="-204" on="0"/>
        <pt x="573" y="-188" on="1"/>
        <pt x="573" y="-111" on="1"/>
        <pt x="707" y="-114" on="0"/>
        <pt x="773" y="-143" on="1"/>
        <pt x="866" y="-185" on="0"/>
        <pt x="866" y="-280" on="1"/>
        <pt x="866" y="-432" on="0"/>
        <pt x="649" y="-432" on="1"/>
        <pt x="590" y="-432" on="0"/>
      </contour>
    </TTGlyph>
    <TTGlyph name="T" xMin="20" yMin="0" xMax="1230" yMax="1480">
      <contour>
        <pt x="520" y="0" on="1"/>
        <pt x="520" y="1323" on="1"/>
        <pt x="20" y="1323" on="1"/>
        <pt x="20" y="1480" on="1"/>
        <pt x="1230" y="1480" on="1"/>
        <pt x="1230" y="1323" on="1"/>
        <pt x="730" y="1323" on="1"/>
        <pt x="730" y="0" on="1"/>
      </contour>
    </TTGlyph>
    <TTGlyph name="Tbar" xMin="20" yMin="0" xMax="1230" yMax="1480">
      <contour>
        <pt x="520" y="0" on="1"/>
        <pt x="520" y="715" on="1"/>
        <pt x="217" y="715" on="1"/>
        <pt x="217" y="863" on="1"/>
        <pt x="520" y="863" on="1"/>
        <pt x="520" y="1323" on="1"/>
        <pt x="20" y="1323" on="1"/>
        <pt x="20" y="1480" on="1"/>
        <pt x="1230" y="1480" on="1"/>
        <pt x="1230" y="1323" on="1"/>
        <pt x="730" y="1323" on="1"/>
        <pt x="730" y="863" on="1"/>
        <pt x="1033" y="863" on="1"/>
        <pt x="1033" y="715" on="1"/>
        <pt x="730" y="715" on="1"/>
        <pt x="730" y="0" on="1"/>
      </contour>
    </TTGlyph>
    <TTGlyph name="Tcaron" xMin="20" yMin="0" xMax="1230" yMax="1925">
      <contour>
        <pt x="520" y="0" on="1"/>
        <pt x="520" y="1323" on="1"/>
        <pt x="20" y="1323" on="1"/>
        <pt x="20" y="1480" on="1"/>
        <pt x="1230" y="1480" on="1"/>
        <pt x="1230" y="1323" on="1"/>
        <pt x="730" y="1323" on="1"/>
        <pt x="730" y="0" on="1"/>
      </contour>
      <contour>
        <pt x="975" y="1925" on="1"/>
        <pt x="734" y="1604" on="1"/>
        <pt x="516" y="1604" on="1"/>
        <pt x="275" y="1925" on="1"/>
        <pt x="423" y="1925" on="1"/>
        <pt x="624" y="1723" on="1"/>
        <pt x="626" y="1723" on="1"/>
        <pt x="827" y="1925" on="1"/>
      </contour>
    </TTGlyph>
    <TTGlyph name="Tcommaaccent" xMin="20" yMin="-432" xMax="1230" yMax="1480">
      <contour>
        <pt x="520" y="0" on="1"/>
        <pt x="520" y="1323" on="1"/>
        <pt x="20" y="1323" on="1"/>
        <pt x="20" y="1480" on="1"/>
        <pt x="1230" y="1480" on="1"/>
        <pt x="1230" y="1323" on="1"/>
        <pt x="730" y="1323" on="1"/>
        <pt x="730" y="0" on="1"/>
      </contour>
      <contour>
        <pt x="586" y="0" on="1"/>
        <pt x="683" y="0" on="1"/>
        <pt x="623" y="-109" on="1"/>
        <pt x="695" y="-111" on="0"/>
        <pt x="747" y="-148" on="1"/>
        <pt x="817" y="-197" on="0"/>
        <pt x="817" y="-268" on="1"/>
        <pt x="817" y="-337" on="0"/>
        <pt x="759" y="-384" on="1"/>
        <pt x="700" y="-432" on="0"/>
        <pt x="614" y="-432" on="1"/>
        <pt x="546" y="-432" on="0"/>
        <pt x="470" y="-411" on="1"/>
        <pt x="470" y="-330" on="1"/>
        <pt x="520" y="-345" on="0"/>
        <pt x="574" y="-345" on="1"/>
        <pt x="678" y="-345" on="0"/>
        <pt x="678" y="-271" on="1"/>
        <pt x="678" y="-178" on="0"/>
        <pt x="491" y="-175" on="1"/>
      </contour>
    </TTGlyph>
    <TTGlyph name="Tcommabelow" xMin="20" yMin="-432" xMax="1230" yMax="1480">
      <contour>
        <pt x="520" y="0" on="1"/>
        <pt x="520" y="1323" on="1"/>
        <pt x="20" y="1323" on="1"/>
        <pt x="20" y="1480" on="1"/>
        <pt x="1230" y="1480" on="1"/>
        <pt x="1230" y="1323" on="1"/>
        <pt x="730" y="1323" on="1"/>
        <pt x="730" y="0" on="1"/>
      </contour>
      <contour>
        <pt x="471" y="-421" on="1"/>
        <pt x="471" y="-336" on="1"/>
        <pt x="528" y="-345" on="0"/>
        <pt x="568" y="-345" on="1"/>
        <pt x="678" y="-345" on="0"/>
        <pt x="678" y="-278" on="1"/>
        <pt x="678" y="-204" on="0"/>
        <pt x="520" y="-188" on="1"/>
        <pt x="520" y="-111" on="1"/>
        <pt x="654" y="-114" on="0"/>
        <pt x="720" y="-143" on="1"/>
        <pt x="813" y="-185" on="0"/>
        <pt x="813" y="-280" on="1"/>
        <pt x="813" y="-432" on="0"/>
        <pt x="596" y="-432" on="1"/>
        <pt x="537" y="-432" on="0"/>
      </contour>
    </TTGlyph>
    <TTGlyph name="Thorn" xMin="167" yMin="0" xMax="1318" yMax="1480">
      <contour>
        <pt x="167" y="0" on="1"/>
        <pt x="167" y="1480" on="1"/>
        <pt x="377" y="1480" on="1"/>
        <pt x="377" y="1201" on="1"/>
        <pt x="747" y="1201" on="1"/>
        <pt x="975" y="1201" on="0"/>
        <pt x="1075" y="1174" on="1"/>
        <pt x="1175" y="1148" on="0"/>
        <pt x="1239" y="1071" on="1"/>
        <pt x="1318" y="976" on="0"/>
        <pt x="1318" y="810" on="1"/>
        <pt x="1318" y="308" on="0"/>
        <pt x="685" y="308" on="1"/>
        <pt x="375" y="308" on="1"/>
        <pt x="375" y="0" on="1"/>
      </contour>
      <contour>
        <pt x="375" y="467" on="1"/>
        <pt x="676" y="467" on="1"/>
        <pt x="1096" y="467" on="0"/>
        <pt x="1096" y="796" on="1"/>
        <pt x="1096" y="956" on="0"/>
        <pt x="987" y="1003" on="1"/>
        <pt x="894" y="1043" on="0"/>
        <pt x="681" y="1043" on="1"/>
        <pt x="375" y="1043" on="1"/>
      </contour>
    </TTGlyph>
    <TTGlyph name="U" xMin="166" yMin="-37" xMax="1312" yMax="1480">
      <contour>
        <pt x="166" y="1480" on="1"/>
        <pt x="376" y="1480" on="1"/>
        <pt x="376" y="546" on="1"/>
        <pt x="376" y="388" on="0"/>
        <pt x="402" y="314" on="1"/>
        <pt x="427" y="241" on="0"/>
        <pt x="499" y="190" on="1"/>
        <pt x="599" y="120" on="0"/>
        <pt x="768" y="120" on="1"/>
        <pt x="967" y="120" on="0"/>
        <pt x="1047" y="214" on="1"/>
        <pt x="1128" y="307" on="0"/>
        <pt x="1128" y="539" on="1"/>
        <pt x="1128" y="1480" on="1"/>
        <pt x="1312" y="1480" on="1"/>
        <pt x="1312" y="542" on="1"/>
        <pt x="1312" y="344" on="0"/>
        <pt x="1273" y="242" on="1"/>
        <pt x="1234" y="139" on="0"/>
        <pt x="1129" y="64" on="1"/>
        <pt x="987" y="-37" on="0"/>
        <pt x="750" y="-37" on="1"/>
        <pt x="448" y="-37" on="0"/>
        <pt x="307" y="103" on="1"/>
        <pt x="166" y="243" on="0"/>
        <pt x="166" y="548" on="1"/>
      </contour>
    </TTGlyph>
    <TTGlyph name="Uacute" xMin="166" yMin="-37" xMax="1312" yMax="1925">
      <contour>
        <pt x="166" y="1480" on="1"/>
        <pt x="376" y="1480" on="1"/>
        <pt x="376" y="546" on="1"/>
        <pt x="376" y="388" on="0"/>
        <pt x="402" y="314" on="1"/>
        <pt x="427" y="241" on="0"/>
        <pt x="499" y="190" on="1"/>
        <pt x="599" y="120" on="0"/>
        <pt x="768" y="120" on="1"/>
        <pt x="967" y="120" on="0"/>
        <pt x="1047" y="214" on="1"/>
        <pt x="1128" y="307" on="0"/>
        <pt x="1128" y="539" on="1"/>
        <pt x="1128" y="1480" on="1"/>
        <pt x="1312" y="1480" on="1"/>
        <pt x="1312" y="542" on="1"/>
        <pt x="1312" y="344" on="0"/>
        <pt x="1273" y="242" on="1"/>
        <pt x="1234" y="139" on="0"/>
        <pt x="1129" y="64" on="1"/>
        <pt x="987" y="-37" on="0"/>
        <pt x="750" y="-37" on="1"/>
        <pt x="448" y="-37" on="0"/>
        <pt x="307" y="103" on="1"/>
        <pt x="166" y="243" on="0"/>
        <pt x="166" y="548" on="1"/>
      </contour>
      <contour>
        <pt x="604" y="1604" on="1"/>
        <pt x="845" y="1925" on="1"/>
        <pt x="1073" y="1925" on="1"/>
        <pt x="752" y="1604" on="1"/>
      </contour>
    </TTGlyph>
    <TTGlyph name="Ubreve" xMin="166" yMin="-37" xMax="1312" yMax="1925">
      <contour>
        <pt x="166" y="1480" on="1"/>
        <pt x="376" y="1480" on="1"/>
        <pt x="376" y="546" on="1"/>
        <pt x="376" y="388" on="0"/>
        <pt x="402" y="314" on="1"/>
        <pt x="427" y="241" on="0"/>
        <pt x="499" y="190" on="1"/>
        <pt x="599" y="120" on="0"/>
        <pt x="768" y="120" on="1"/>
        <pt x="967" y="120" on="0"/>
        <pt x="1047" y="214" on="1"/>
        <pt x="1128" y="307" on="0"/>
        <pt x="1128" y="539" on="1"/>
        <pt x="1128" y="1480" on="1"/>
        <pt x="1312" y="1480" on="1"/>
        <pt x="1312" y="542" on="1"/>
        <pt x="1312" y="344" on="0"/>
        <pt x="1273" y="242" on="1"/>
        <pt x="1234" y="139" on="0"/>
        <pt x="1129" y="64" on="1"/>
        <pt x="987" y="-37" on="0"/>
        <pt x="750" y="-37" on="1"/>
        <pt x="448" y="-37" on="0"/>
        <pt x="307" y="103" on="1"/>
        <pt x="166" y="243" on="0"/>
        <pt x="166" y="548" on="1"/>
      </contour>
      <contour>
        <pt x="419" y="1925" on="1"/>
        <pt x="542" y="1925" on="1"/>
        <pt x="563" y="1831" on="0"/>
        <pt x="617" y="1791" on="1"/>
        <pt x="669" y="1752" on="0"/>
        <pt x="752" y="1752" on="1"/>
        <pt x="846" y="1752" on="0"/>
        <pt x="900" y="1801" on="1"/>
        <pt x="943" y="1841" on="0"/>
        <pt x="962" y="1925" on="1"/>
        <pt x="1085" y="1925" on="1"/>
        <pt x="1069" y="1791" on="0"/>
        <pt x="996" y="1710" on="1"/>
        <pt x="902" y="1604" on="0"/>
        <pt x="752" y="1604" on="1"/>
        <pt x="595" y="1604" on="0"/>
        <pt x="500" y="1719" on="1"/>
        <pt x="435" y="1797" on="0"/>
      </contour>
    </TTGlyph>
    <TTGlyph name="Ucircumflex" xMin="166" yMin="-37" xMax="1312" yMax="1925">
      <contour>
        <pt x="166" y="1480" on="1"/>
        <pt x="376" y="1480" on="1"/>
        <pt x="376" y="546" on="1"/>
        <pt x="376" y="388" on="0"/>
        <pt x="402" y="314" on="1"/>
        <pt x="427" y="241" on="0"/>
        <pt x="499" y="190" on="1"/>
        <pt x="599" y="120" on="0"/>
        <pt x="768" y="120" on="1"/>
        <pt x="967" y="120" on="0"/>
        <pt x="1047" y="214" on="1"/>
        <pt x="1128" y="307" on="0"/>
        <pt x="1128" y="539" on="1"/>
        <pt x="1128" y="1480" on="1"/>
        <pt x="1312" y="1480" on="1"/>
        <pt x="1312" y="542" on="1"/>
        <pt x="1312" y="344" on="0"/>
        <pt x="1273" y="242" on="1"/>
        <pt x="1234" y="139" on="0"/>
        <pt x="1129" y="64" on="1"/>
        <pt x="987" y="-37" on="0"/>
        <pt x="750" y="-37" on="1"/>
        <pt x="448" y="-37" on="0"/>
        <pt x="307" y="103" on="1"/>
        <pt x="166" y="243" on="0"/>
        <pt x="166" y="548" on="1"/>
      </contour>
      <contour>
        <pt x="402" y="1604" on="1"/>
        <pt x="643" y="1925" on="1"/>
        <pt x="861" y="1925" on="1"/>
        <pt x="1102" y="1604" on="1"/>
        <pt x="954" y="1604" on="1"/>
        <pt x="753" y="1806" on="1"/>
        <pt x="751" y="1806" on="1"/>
        <pt x="550" y="1604" on="1"/>
      </contour>
    </TTGlyph>
    <TTGlyph name="Udieresis" xMin="166" yMin="-37" xMax="1312" yMax="1777">
      <contour>
        <pt x="166" y="1480" on="1"/>
        <pt x="376" y="1480" on="1"/>
        <pt x="376" y="546" on="1"/>
        <pt x="376" y="388" on="0"/>
        <pt x="402" y="314" on="1"/>
        <pt x="427" y="241" on="0"/>
        <pt x="499" y="190" on="1"/>
        <pt x="599" y="120" on="0"/>
        <pt x="768" y="120" on="1"/>
        <pt x="967" y="120" on="0"/>
        <pt x="1047" y="214" on="1"/>
        <pt x="1128" y="307" on="0"/>
        <pt x="1128" y="539" on="1"/>
        <pt x="1128" y="1480" on="1"/>
        <pt x="1312" y="1480" on="1"/>
        <pt x="1312" y="542" on="1"/>
        <pt x="1312" y="344" on="0"/>
        <pt x="1273" y="242" on="1"/>
        <pt x="1234" y="139" on="0"/>
        <pt x="1129" y="64" on="1"/>
        <pt x="987" y="-37" on="0"/>
        <pt x="750" y="-37" on="1"/>
        <pt x="448" y="-37" on="0"/>
        <pt x="307" y="103" on="1"/>
        <pt x="166" y="243" on="0"/>
        <pt x="166" y="548" on="1"/>
      </contour>
      <contour>
        <pt x="468" y="1604" on="1"/>
        <pt x="468" y="1777" on="1"/>
        <pt x="641" y="1777" on="1"/>
        <pt x="641" y="1604" on="1"/>
      </contour>
      <contour>
        <pt x="863" y="1604" on="1"/>
        <pt x="863" y="1777" on="1"/>
        <pt x="1036" y="1777" on="1"/>
        <pt x="1036" y="1604" on="1"/>
      </contour>
    </TTGlyph>
    <TTGlyph name="Ugrave" xMin="166" yMin="-37" xMax="1312" yMax="1925">
      <contour>
        <pt x="166" y="1480" on="1"/>
        <pt x="376" y="1480" on="1"/>
        <pt x="376" y="546" on="1"/>
        <pt x="376" y="388" on="0"/>
        <pt x="402" y="314" on="1"/>
        <pt x="427" y="241" on="0"/>
        <pt x="499" y="190" on="1"/>
        <pt x="599" y="120" on="0"/>
        <pt x="768" y="120" on="1"/>
        <pt x="967" y="120" on="0"/>
        <pt x="1047" y="214" on="1"/>
        <pt x="1128" y="307" on="0"/>
        <pt x="1128" y="539" on="1"/>
        <pt x="1128" y="1480" on="1"/>
        <pt x="1312" y="1480" on="1"/>
        <pt x="1312" y="542" on="1"/>
        <pt x="1312" y="344" on="0"/>
        <pt x="1273" y="242" on="1"/>
        <pt x="1234" y="139" on="0"/>
        <pt x="1129" y="64" on="1"/>
        <pt x="987" y="-37" on="0"/>
        <pt x="750" y="-37" on="1"/>
        <pt x="448" y="-37" on="0"/>
        <pt x="307" y="103" on="1"/>
        <pt x="166" y="243" on="0"/>
        <pt x="166" y="548" on="1"/>
      </contour>
      <contour>
        <pt x="900" y="1604" on="1"/>
        <pt x="752" y="1604" on="1"/>
        <pt x="431" y="1925" on="1"/>
        <pt x="659" y="1925" on="1"/>
      </contour>
    </TTGlyph>
    <TTGlyph name="Uhungarumlaut" xMin="166" yMin="-37" xMax="1312" yMax="1925">
      <contour>
        <pt x="166" y="1480" on="1"/>
        <pt x="376" y="1480" on="1"/>
        <pt x="376" y="546" on="1"/>
        <pt x="376" y="388" on="0"/>
        <pt x="402" y="314" on="1"/>
        <pt x="427" y="241" on="0"/>
        <pt x="499" y="190" on="1"/>
        <pt x="599" y="120" on="0"/>
        <pt x="768" y="120" on="1"/>
        <pt x="967" y="120" on="0"/>
        <pt x="1047" y="214" on="1"/>
        <pt x="1128" y="307" on="0"/>
        <pt x="1128" y="539" on="1"/>
        <pt x="1128" y="1480" on="1"/>
        <pt x="1312" y="1480" on="1"/>
        <pt x="1312" y="542" on="1"/>
        <pt x="1312" y="344" on="0"/>
        <pt x="1273" y="242" on="1"/>
        <pt x="1234" y="139" on="0"/>
        <pt x="1129" y="64" on="1"/>
        <pt x="987" y="-37" on="0"/>
        <pt x="750" y="-37" on="1"/>
        <pt x="448" y="-37" on="0"/>
        <pt x="307" y="103" on="1"/>
        <pt x="166" y="243" on="0"/>
        <pt x="166" y="548" on="1"/>
      </contour>
      <contour>
        <pt x="499" y="1604" on="1"/>
        <pt x="740" y="1925" on="1"/>
        <pt x="931" y="1925" on="1"/>
        <pt x="610" y="1604" on="1"/>
      </contour>
      <contour>
        <pt x="851" y="1604" on="1"/>
        <pt x="1091" y="1925" on="1"/>
        <pt x="1282" y="1925" on="1"/>
        <pt x="962" y="1604" on="1"/>
      </contour>
    </TTGlyph>
    <TTGlyph name="Umacron" xMin="166" yMin="-37" xMax="1312" yMax="1752">
      <contour>
        <pt x="166" y="1480" on="1"/>
        <pt x="376" y="1480" on="1"/>
        <pt x="376" y="546" on="1"/>
        <pt x="376" y="388" on="0"/>
        <pt x="402" y="314" on="1"/>
        <pt x="427" y="241" on="0"/>
        <pt x="499" y="190" on="1"/>
        <pt x="599" y="120" on="0"/>
        <pt x="768" y="120" on="1"/>
        <pt x="967" y="120" on="0"/>
        <pt x="1047" y="214" on="1"/>
        <pt x="1128" y="307" on="0"/>
        <pt x="1128" y="539" on="1"/>
        <pt x="1128" y="1480" on="1"/>
        <pt x="1312" y="1480" on="1"/>
        <pt x="1312" y="542" on="1"/>
        <pt x="1312" y="344" on="0"/>
        <pt x="1273" y="242" on="1"/>
        <pt x="1234" y="139" on="0"/>
        <pt x="1129" y="64" on="1"/>
        <pt x="987" y="-37" on="0"/>
        <pt x="750" y="-37" on="1"/>
        <pt x="448" y="-37" on="0"/>
        <pt x="307" y="103" on="1"/>
        <pt x="166" y="243" on="0"/>
        <pt x="166" y="548" on="1"/>
      </contour>
      <contour>
        <pt x="431" y="1604" on="1"/>
        <pt x="431" y="1752" on="1"/>
        <pt x="1073" y="1752" on="1"/>
        <pt x="1073" y="1604" on="1"/>
      </contour>
    </TTGlyph>
    <TTGlyph name="Unterkomma" xMin="170" yMin="-432" xMax="512" yMax="-111">
      <contour>
        <pt x="170" y="-421" on="1"/>
        <pt x="170" y="-336" on="1"/>
        <pt x="227" y="-345" on="0"/>
        <pt x="267" y="-345" on="1"/>
        <pt x="377" y="-345" on="0"/>
        <pt x="377" y="-278" on="1"/>
        <pt x="377" y="-204" on="0"/>
        <pt x="219" y="-188" on="1"/>
        <pt x="219" y="-111" on="1"/>
        <pt x="353" y="-114" on="0"/>
        <pt x="419" y="-143" on="1"/>
        <pt x="512" y="-185" on="0"/>
        <pt x="512" y="-280" on="1"/>
        <pt x="512" y="-432" on="0"/>
        <pt x="295" y="-432" on="1"/>
        <pt x="236" y="-432" on="0"/>
      </contour>
    </TTGlyph>
    <TTGlyph name="Uogonek" xMin="166" yMin="-370" xMax="1312" yMax="1480">
      <contour>
        <pt x="166" y="1480" on="1"/>
        <pt x="376" y="1480" on="1"/>
        <pt x="376" y="546" on="1"/>
        <pt x="376" y="388" on="0"/>
        <pt x="402" y="314" on="1"/>
        <pt x="427" y="241" on="0"/>
        <pt x="499" y="190" on="1"/>
        <pt x="599" y="120" on="0"/>
        <pt x="768" y="120" on="1"/>
        <pt x="967" y="120" on="0"/>
        <pt x="1047" y="214" on="1"/>
        <pt x="1128" y="307" on="0"/>
        <pt x="1128" y="539" on="1"/>
        <pt x="1128" y="1480" on="1"/>
        <pt x="1312" y="1480" on="1"/>
        <pt x="1312" y="542" on="1"/>
        <pt x="1312" y="344" on="0"/>
        <pt x="1273" y="242" on="1"/>
        <pt x="1234" y="139" on="0"/>
        <pt x="1129" y="64" on="1"/>
        <pt x="987" y="-37" on="0"/>
        <pt x="750" y="-37" on="1"/>
        <pt x="448" y="-37" on="0"/>
        <pt x="307" y="103" on="1"/>
        <pt x="166" y="243" on="0"/>
        <pt x="166" y="548" on="1"/>
      </contour>
      <contour>
        <pt x="800" y="0" on="1"/>
        <pt x="907" y="0" on="1"/>
        <pt x="779" y="-81" on="0"/>
        <pt x="779" y="-179" on="1"/>
        <pt x="779" y="-275" on="0"/>
        <pt x="894" y="-275" on="1"/>
        <pt x="947" y="-275" on="0"/>
        <pt x="984" y="-260" on="1"/>
        <pt x="984" y="-341" on="1"/>
        <pt x="922" y="-370" on="0"/>
        <pt x="844" y="-370" on="1"/>
        <pt x="642" y="-370" on="0"/>
        <pt x="642" y="-212" on="1"/>
        <pt x="642" y="-90" on="0"/>
      </contour>
    </TTGlyph>
    <TTGlyph name="Uring" xMin="166" yMin="-37" xMax="1312" yMax="2033">
      <contour>
        <pt x="166" y="1480" on="1"/>
        <pt x="376" y="1480" on="1"/>
        <pt x="376" y="546" on="1"/>
        <pt x="376" y="388" on="0"/>
        <pt x="402" y="314" on="1"/>
        <pt x="427" y="241" on="0"/>
        <pt x="499" y="190" on="1"/>
        <pt x="599" y="120" on="0"/>
        <pt x="768" y="120" on="1"/>
        <pt x="967" y="120" on="0"/>
        <pt x="1047" y="214" on="1"/>
        <pt x="1128" y="307" on="0"/>
        <pt x="1128" y="539" on="1"/>
        <pt x="1128" y="1480" on="1"/>
        <pt x="1312" y="1480" on="1"/>
        <pt x="1312" y="542" on="1"/>
        <pt x="1312" y="344" on="0"/>
        <pt x="1273" y="242" on="1"/>
        <pt x="1234" y="139" on="0"/>
        <pt x="1129" y="64" on="1"/>
        <pt x="987" y="-37" on="0"/>
        <pt x="750" y="-37" on="1"/>
        <pt x="448" y="-37" on="0"/>
        <pt x="307" y="103" on="1"/>
        <pt x="166" y="243" on="0"/>
        <pt x="166" y="548" on="1"/>
      </contour>
      <contour>
        <pt x="752" y="2033" on="1"/>
        <pt x="846" y="2033" on="0"/>
        <pt x="912" y="1967" on="1"/>
        <pt x="979" y="1901" on="0"/>
        <pt x="979" y="1807" on="1"/>
        <pt x="979" y="1711" on="0"/>
        <pt x="912" y="1645" on="1"/>
        <pt x="846" y="1579" on="0"/>
        <pt x="750" y="1579" on="1"/>
        <pt x="667" y="1579" on="0"/>
        <pt x="605" y="1633" on="1"/>
        <pt x="525" y="1702" on="0"/>
        <pt x="525" y="1806" on="1"/>
        <pt x="525" y="1900" on="0"/>
        <pt x="591" y="1966" on="1"/>
        <pt x="658" y="2033" on="0"/>
      </contour>
      <contour>
        <pt x="752" y="1946" on="1"/>
        <pt x="693" y="1946" on="0"/>
        <pt x="652" y="1905" on="1"/>
        <pt x="611" y="1864" on="0"/>
        <pt x="611" y="1806" on="1"/>
        <pt x="611" y="1748" on="0"/>
        <pt x="652" y="1707" on="1"/>
        <pt x="694" y="1665" on="0"/>
        <pt x="750" y="1665" on="1"/>
        <pt x="804" y="1665" on="0"/>
        <pt x="843" y="1698" on="1"/>
        <pt x="893" y="1741" on="0"/>
        <pt x="893" y="1807" on="1"/>
        <pt x="893" y="1865" on="0"/>
        <pt x="851" y="1905" on="1"/>
        <pt x="810" y="1946" on="0"/>
      </contour>
    </TTGlyph>
    <TTGlyph name="Utilde" xMin="166" yMin="-37" xMax="1312" yMax="1838">
      <contour>
        <pt x="166" y="1480" on="1"/>
        <pt x="376" y="1480" on="1"/>
        <pt x="376" y="546" on="1"/>
        <pt x="376" y="388" on="0"/>
        <pt x="402" y="314" on="1"/>
        <pt x="427" y="241" on="0"/>
        <pt x="499" y="190" on="1"/>
        <pt x="599" y="120" on="0"/>
        <pt x="768" y="120" on="1"/>
        <pt x="967" y="120" on="0"/>
        <pt x="1047" y="214" on="1"/>
        <pt x="1128" y="307" on="0"/>
        <pt x="1128" y="539" on="1"/>
        <pt x="1128" y="1480" on="1"/>
        <pt x="1312" y="1480" on="1"/>
        <pt x="1312" y="542" on="1"/>
        <pt x="1312" y="344" on="0"/>
        <pt x="1273" y="242" on="1"/>
        <pt x="1234" y="139" on="0"/>
        <pt x="1129" y="64" on="1"/>
        <pt x="987" y="-37" on="0"/>
        <pt x="750" y="-37" on="1"/>
        <pt x="448" y="-37" on="0"/>
        <pt x="307" y="103" on="1"/>
        <pt x="166" y="243" on="0"/>
        <pt x="166" y="548" on="1"/>
      </contour>
      <contour>
        <pt x="419" y="1604" on="1"/>
        <pt x="426" y="1697" on="0"/>
        <pt x="451" y="1748" on="1"/>
        <pt x="497" y="1838" on="0"/>
        <pt x="606" y="1838" on="1"/>
        <pt x="678" y="1838" on="0"/>
        <pt x="739" y="1800" on="1"/>
        <pt x="799" y="1763" on="1"/>
        <pt x="856" y="1728" on="0"/>
        <pt x="886" y="1728" on="1"/>
        <pt x="951" y="1728" on="0"/>
        <pt x="962" y="1838" on="1"/>
        <pt x="1085" y="1838" on="1"/>
        <pt x="1078" y="1744" on="0"/>
        <pt x="1053" y="1694" on="1"/>
        <pt x="1008" y="1604" on="0"/>
        <pt x="900" y="1604" on="1"/>
        <pt x="828" y="1604" on="0"/>
        <pt x="765" y="1643" on="1"/>
        <pt x="705" y="1680" on="1"/>
        <pt x="650" y="1714" on="0"/>
        <pt x="618" y="1714" on="1"/>
        <pt x="553" y="1714" on="0"/>
        <pt x="542" y="1604" on="1"/>
      </contour>
    </TTGlyph>
    <TTGlyph name="V" xMin="36" yMin="0" xMax="1355" yMax="1480">
      <contour>
        <pt x="607" y="0" on="1"/>
        <pt x="36" y="1480" on="1"/>
        <pt x="252" y="1480" on="1"/>
        <pt x="724" y="265" on="1"/>
        <pt x="1176" y="1480" on="1"/>
        <pt x="1355" y="1480" on="1"/>
        <pt x="805" y="0" on="1"/>
      </contour>
    </TTGlyph>
    <TTGlyph name="W" xMin="25" yMin="0" xMax="1908" yMax="1480">
      <contour>
        <pt x="406" y="0" on="1"/>
        <pt x="25" y="1480" on="1"/>
        <pt x="227" y="1480" on="1"/>
        <pt x="530" y="311" on="1"/>
        <pt x="877" y="1480" on="1"/>
        <pt x="1079" y="1480" on="1"/>
        <pt x="1412" y="322" on="1"/>
        <pt x="1737" y="1480" on="1"/>
        <pt x="1908" y="1480" on="1"/>
        <pt x="1492" y="0" on="1"/>
        <pt x="1284" y="0" on="1"/>
        <pt x="955" y="1141" on="1"/>
        <pt x="614" y="0" on="1"/>
      </contour>
    </TTGlyph>
    <TTGlyph name="Wcircumflex" xMin="25" yMin="0" xMax="1908" yMax="1925">
      <contour>
        <pt x="406" y="0" on="1"/>
        <pt x="25" y="1480" on="1"/>
        <pt x="227" y="1480" on="1"/>
        <pt x="530" y="311" on="1"/>
        <pt x="877" y="1480" on="1"/>
        <pt x="1079" y="1480" on="1"/>
        <pt x="1412" y="322" on="1"/>
        <pt x="1737" y="1480" on="1"/>
        <pt x="1908" y="1480" on="1"/>
        <pt x="1492" y="0" on="1"/>
        <pt x="1284" y="0" on="1"/>
        <pt x="955" y="1141" on="1"/>
        <pt x="614" y="0" on="1"/>
      </contour>
      <contour>
        <pt x="628" y="1604" on="1"/>
        <pt x="869" y="1925" on="1"/>
        <pt x="1087" y="1925" on="1"/>
        <pt x="1328" y="1604" on="1"/>
        <pt x="1180" y="1604" on="1"/>
        <pt x="979" y="1806" on="1"/>
        <pt x="977" y="1806" on="1"/>
        <pt x="776" y="1604" on="1"/>
      </contour>
    </TTGlyph>
    <TTGlyph name="X" xMin="28" yMin="0" xMax="1338" yMax="1480">
      <contour>
        <pt x="28" y="0" on="1"/>
        <pt x="573" y="735" on="1"/>
        <pt x="52" y="1480" on="1"/>
        <pt x="300" y="1480" on="1"/>
        <pt x="701" y="905" on="1"/>
        <pt x="1128" y="1480" on="1"/>
        <pt x="1327" y="1480" on="1"/>
        <pt x="798" y="770" on="1"/>
        <pt x="1338" y="0" on="1"/>
        <pt x="1090" y="0" on="1"/>
        <pt x="670" y="598" on="1"/>
        <pt x="226" y="0" on="1"/>
      </contour>
    </TTGlyph>
    <TTGlyph name="Y" xMin="30" yMin="0" xMax="1337" yMax="1480">
      <contour>
        <pt x="561" y="0" on="1"/>
        <pt x="561" y="617" on="1"/>
        <pt x="30" y="1480" on="1"/>
        <pt x="270" y="1480" on="1"/>
        <pt x="691" y="795" on="1"/>
        <pt x="1142" y="1480" on="1"/>
        <pt x="1337" y="1480" on="1"/>
        <pt x="771" y="622" on="1"/>
        <pt x="771" y="0" on="1"/>
      </contour>
    </TTGlyph>
    <TTGlyph name="Yacute" xMin="30" yMin="0" xMax="1337" yMax="1925">
      <contour>
        <pt x="561" y="0" on="1"/>
        <pt x="561" y="617" on="1"/>
        <pt x="30" y="1480" on="1"/>
        <pt x="270" y="1480" on="1"/>
        <pt x="691" y="795" on="1"/>
        <pt x="1142" y="1480" on="1"/>
        <pt x="1337" y="1480" on="1"/>
        <pt x="771" y="622" on="1"/>
        <pt x="771" y="0" on="1"/>
      </contour>
      <contour>
        <pt x="543" y="1604" on="1"/>
        <pt x="784" y="1925" on="1"/>
        <pt x="1012" y="1925" on="1"/>
        <pt x="691" y="1604" on="1"/>
      </contour>
    </TTGlyph>
    <TTGlyph name="Ycircumflex" xMin="30" yMin="0" xMax="1337" yMax="1925">
      <contour>
        <pt x="561" y="0" on="1"/>
        <pt x="561" y="617" on="1"/>
        <pt x="30" y="1480" on="1"/>
        <pt x="270" y="1480" on="1"/>
        <pt x="691" y="795" on="1"/>
        <pt x="1142" y="1480" on="1"/>
        <pt x="1337" y="1480" on="1"/>
        <pt x="771" y="622" on="1"/>
        <pt x="771" y="0" on="1"/>
      </contour>
      <contour>
        <pt x="356" y="1604" on="1"/>
        <pt x="597" y="1925" on="1"/>
        <pt x="815" y="1925" on="1"/>
        <pt x="1056" y="1604" on="1"/>
        <pt x="908" y="1604" on="1"/>
        <pt x="707" y="1806" on="1"/>
        <pt x="705" y="1806" on="1"/>
        <pt x="504" y="1604" on="1"/>
      </contour>
    </TTGlyph>
    <TTGlyph name="Ydieresis" xMin="30" yMin="0" xMax="1337" yMax="1777">
      <contour>
        <pt x="561" y="0" on="1"/>
        <pt x="561" y="617" on="1"/>
        <pt x="30" y="1480" on="1"/>
        <pt x="270" y="1480" on="1"/>
        <pt x="691" y="795" on="1"/>
        <pt x="1142" y="1480" on="1"/>
        <pt x="1337" y="1480" on="1"/>
        <pt x="771" y="622" on="1"/>
        <pt x="771" y="0" on="1"/>
      </contour>
      <contour>
        <pt x="422" y="1604" on="1"/>
        <pt x="422" y="1777" on="1"/>
        <pt x="595" y="1777" on="1"/>
        <pt x="595" y="1604" on="1"/>
      </contour>
      <contour>
        <pt x="817" y="1604" on="1"/>
        <pt x="817" y="1777" on="1"/>
        <pt x="990" y="1777" on="1"/>
        <pt x="990" y="1604" on="1"/>
      </contour>
    </TTGlyph>
    <TTGlyph name="Z" xMin="101" yMin="0" xMax="1148" yMax="1480">
      <contour>
        <pt x="101" y="0" on="1"/>
        <pt x="101" y="169" on="1"/>
        <pt x="896" y="1323" on="1"/>
        <pt x="150" y="1323" on="1"/>
        <pt x="150" y="1480" on="1"/>
        <pt x="1148" y="1480" on="1"/>
        <pt x="1148" y="1323" on="1"/>
        <pt x="353" y="169" on="1"/>
        <pt x="1148" y="169" on="1"/>
        <pt x="1148" y="0" on="1"/>
      </contour>
    </TTGlyph>
    <TTGlyph name="Zacute" xMin="101" yMin="0" xMax="1148" yMax="1925">
      <contour>
        <pt x="101" y="0" on="1"/>
        <pt x="101" y="169" on="1"/>
        <pt x="896" y="1323" on="1"/>
        <pt x="150" y="1323" on="1"/>
        <pt x="150" y="1480" on="1"/>
        <pt x="1148" y="1480" on="1"/>
        <pt x="1148" y="1323" on="1"/>
        <pt x="353" y="169" on="1"/>
        <pt x="1148" y="169" on="1"/>
        <pt x="1148" y="0" on="1"/>
      </contour>
      <contour>
        <pt x="477" y="1604" on="1"/>
        <pt x="718" y="1925" on="1"/>
        <pt x="946" y="1925" on="1"/>
        <pt x="625" y="1604" on="1"/>
      </contour>
    </TTGlyph>
    <TTGlyph name="Zcaron" xMin="101" yMin="0" xMax="1148" yMax="1925">
      <contour>
        <pt x="101" y="0" on="1"/>
        <pt x="101" y="169" on="1"/>
        <pt x="896" y="1323" on="1"/>
        <pt x="150" y="1323" on="1"/>
        <pt x="150" y="1480" on="1"/>
        <pt x="1148" y="1480" on="1"/>
        <pt x="1148" y="1323" on="1"/>
        <pt x="353" y="169" on="1"/>
        <pt x="1148" y="169" on="1"/>
        <pt x="1148" y="0" on="1"/>
      </contour>
      <contour>
        <pt x="987" y="1925" on="1"/>
        <pt x="746" y="1604" on="1"/>
        <pt x="528" y="1604" on="1"/>
        <pt x="287" y="1925" on="1"/>
        <pt x="435" y="1925" on="1"/>
        <pt x="636" y="1723" on="1"/>
        <pt x="638" y="1723" on="1"/>
        <pt x="839" y="1925" on="1"/>
      </contour>
    </TTGlyph>
    <TTGlyph name="Zdotaccent" xMin="101" yMin="0" xMax="1148" yMax="1801">
      <contour>
        <pt x="101" y="0" on="1"/>
        <pt x="101" y="169" on="1"/>
        <pt x="896" y="1323" on="1"/>
        <pt x="150" y="1323" on="1"/>
        <pt x="150" y="1480" on="1"/>
        <pt x="1148" y="1480" on="1"/>
        <pt x="1148" y="1323" on="1"/>
        <pt x="353" y="169" on="1"/>
        <pt x="1148" y="169" on="1"/>
        <pt x="1148" y="0" on="1"/>
      </contour>
      <contour>
        <pt x="538" y="1604" on="1"/>
        <pt x="538" y="1801" on="1"/>
        <pt x="735" y="1801" on="1"/>
        <pt x="735" y="1604" on="1"/>
      </contour>
    </TTGlyph>
    <TTGlyph name="a" xMin="95" yMin="-25" xMax="1098" yMax="1110">
      <contour>
        <pt x="774" y="138" on="1"/>
        <pt x="589" y="-25" on="0"/>
        <pt x="414" y="-25" on="1"/>
        <pt x="273" y="-25" on="0"/>
        <pt x="184" y="58" on="1"/>
        <pt x="95" y="142" on="0"/>
        <pt x="95" y="273" on="1"/>
        <pt x="95" y="642" on="0"/>
        <pt x="699" y="642" on="1"/>
        <pt x="745" y="642" on="1"/>
        <pt x="745" y="773" on="1"/>
        <pt x="745" y="962" on="0"/>
        <pt x="536" y="962" on="1"/>
        <pt x="374" y="962" on="0"/>
        <pt x="189" y="866" on="1"/>
        <pt x="189" y="1029" on="1"/>
        <pt x="394" y="1110" on="0"/>
        <pt x="574" y="1110" on="1"/>
        <pt x="766" y="1110" on="0"/>
        <pt x="854" y="1029" on="1"/>
        <pt x="942" y="949" on="0"/>
        <pt x="942" y="773" on="1"/>
        <pt x="942" y="281" on="1"/>
        <pt x="942" y="112" on="0"/>
        <pt x="1046" y="112" on="1"/>
        <pt x="1060" y="112" on="0"/>
        <pt x="1084" y="116" on="1"/>
        <pt x="1098" y="7" on="1"/>
        <pt x="1025" y="-25" on="0"/>
        <pt x="952" y="-25" on="1"/>
        <pt x="884" y="-25" on="0"/>
        <pt x="840" y="13" on="1"/>
        <pt x="797" y="50" on="0"/>
      </contour>
      <contour>
        <pt x="745" y="245" on="1"/>
        <pt x="745" y="526" on="1"/>
        <pt x="680" y="528" on="1"/>
        <pt x="620" y="530" on="0"/>
        <pt x="547" y="519" on="1"/>
        <pt x="299" y="484" on="0"/>
        <pt x="299" y="303" on="1"/>
        <pt x="299" y="136" on="0"/>
        <pt x="480" y="136" on="1"/>
        <pt x="606" y="136" on="0"/>
      </contour>
    </TTGlyph>
    <TTGlyph name="aacute" xMin="95" yMin="-25" xMax="1098" yMax="1604">
      <component glyphName="a" x="0" y="0" flags="0x4"/>
      <component glyphName="acute" x="323" y="0" flags="0x4"/>
    </TTGlyph>
    <TTGlyph name="abreve" xMin="105" yMin="-25" xMax="1108" yMax="1604">
      <component glyphName="a" x="10" y="0" flags="0x4"/>
      <component glyphName="breve" x="248" y="0" flags="0x4"/>
    </TTGlyph>
    <TTGlyph name="acircumflex" xMin="95" yMin="-25" xMax="1098" yMax="1604">
      <component glyphName="a" x="0" y="0" flags="0x4"/>
      <component glyphName="circumflex" x="238" y="0" flags="0x4"/>
    </TTGlyph>
    <TTGlyph name="acute" xMin="107" yMin="1283" xMax="576" yMax="1604">
      <contour>
        <pt x="107" y="1283" on="1"/>
        <pt x="348" y="1604" on="1"/>
        <pt x="576" y="1604" on="1"/>
        <pt x="255" y="1283" on="1"/>
      </contour>
    </TTGlyph>
    <TTGlyph name="adieresis" xMin="95" yMin="-25" xMax="1098" yMax="1456">
      <component glyphName="a" x="0" y="0" flags="0x4"/>
      <component glyphName="dieresis" x="219" y="0" flags="0x4"/>
    </TTGlyph>
    <TTGlyph name="ae" xMin="95" yMin="-25" xMax="1701" yMax="1110">
      <contour>
        <pt x="767" y="245" on="1"/>
        <pt x="767" y="526" on="1"/>
        <pt x="692" y="528" on="1"/>
        <pt x="627" y="530" on="0"/>
        <pt x="551" y="519" on="1"/>
        <pt x="292" y="483" on="0"/>
        <pt x="292" y="303" on="1"/>
        <pt x="292" y="136" on="0"/>
        <pt x="491" y="136" on="1"/>
        <pt x="628" y="136" on="0"/>
      </contour>
      <contour>
        <pt x="916" y="983" on="1"/>
        <pt x="1067" y="1110" on="0"/>
        <pt x="1259" y="1110" on="1"/>
        <pt x="1701" y="1110" on="0"/>
        <pt x="1701" y="573" on="1"/>
        <pt x="1701" y="512" on="1"/>
        <pt x="961" y="512" on="1"/>
        <pt x="973" y="395" on="0"/>
        <pt x="999" y="334" on="1"/>
        <pt x="1089" y="125" on="0"/>
        <pt x="1364" y="125" on="1"/>
        <pt x="1515" y="125" on="0"/>
        <pt x="1696" y="191" on="1"/>
        <pt x="1696" y="35" on="1"/>
        <pt x="1491" y="-25" on="0"/>
        <pt x="1318" y="-25" on="1"/>
        <pt x="1127" y="-25" on="0"/>
        <pt x="997" y="62" on="1"/>
        <pt x="925" y="110" on="0"/>
        <pt x="858" y="205" on="1"/>
        <pt x="743" y="82" on="0"/>
        <pt x="661" y="33" on="1"/>
        <pt x="562" y="-25" on="0"/>
        <pt x="427" y="-25" on="1"/>
        <pt x="277" y="-25" on="0"/>
        <pt x="186" y="57" on="1"/>
        <pt x="95" y="140" on="0"/>
        <pt x="95" y="272" on="1"/>
        <pt x="95" y="642" on="0"/>
        <pt x="721" y="642" on="1"/>
        <pt x="767" y="642" on="1"/>
        <pt x="767" y="773" on="1"/>
        <pt x="767" y="878" on="0"/>
        <pt x="718" y="920" on="1"/>
        <pt x="669" y="962" on="0"/>
        <pt x="547" y="962" on="1"/>
        <pt x="376" y="962" on="0"/>
        <pt x="189" y="866" on="1"/>
        <pt x="189" y="1029" on="1"/>
        <pt x="395" y="1110" on="0"/>
        <pt x="581" y="1110" on="1"/>
        <pt x="807" y="1110" on="0"/>
      </contour>
      <contour>
        <pt x="971" y="660" on="1"/>
        <pt x="1503" y="660" on="1"/>
        <pt x="1500" y="756" on="0"/>
        <pt x="1483" y="806" on="1"/>
        <pt x="1430" y="962" on="0"/>
        <pt x="1251" y="962" on="1"/>
        <pt x="1126" y="962" on="0"/>
        <pt x="1056" y="889" on="1"/>
        <pt x="989" y="820" on="0"/>
      </contour>
    </TTGlyph>
    <TTGlyph name="afii00208" xMin="99" yMin="543" xMax="1950" yMax="642">
      <contour>
        <pt x="99" y="543" on="1"/>
        <pt x="99" y="642" on="1"/>
        <pt x="1950" y="642" on="1"/>
        <pt x="1950" y="543" on="1"/>
      </contour>
    </TTGlyph>
    <TTGlyph name="agrave" xMin="95" yMin="-25" xMax="1098" yMax="1604">
      <component glyphName="a" x="0" y="0" flags="0x4"/>
      <component glyphName="grave" x="152" y="0" flags="0x4"/>
    </TTGlyph>
    <TTGlyph name="amacron" xMin="105" yMin="-25" xMax="1108" yMax="1431">
      <component glyphName="a" x="10" y="0" flags="0x4"/>
      <component glyphName="macron" x="217" y="0" flags="0x4"/>
    </TTGlyph>
    <TTGlyph name="ampersand" xMin="56" yMin="-37" xMax="1293" yMax="1517">
      <contour>
        <pt x="1025" y="0" on="1"/>
        <pt x="952" y="87" on="1"/>
        <pt x="752" y="-37" on="0"/>
        <pt x="570" y="-37" on="1"/>
        <pt x="352" y="-37" on="0"/>
        <pt x="204" y="99" on="1"/>
        <pt x="56" y="235" on="0"/>
        <pt x="56" y="442" on="1"/>
        <pt x="56" y="647" on="0"/>
        <pt x="185" y="774" on="1"/>
        <pt x="261" y="848" on="0"/>
        <pt x="405" y="904" on="1"/>
        <pt x="317" y="1067" on="0"/>
        <pt x="317" y="1187" on="1"/>
        <pt x="317" y="1337" on="0"/>
        <pt x="409" y="1427" on="1"/>
        <pt x="502" y="1517" on="0"/>
        <pt x="659" y="1517" on="1"/>
        <pt x="808" y="1517" on="0"/>
        <pt x="895" y="1436" on="1"/>
        <pt x="982" y="1355" on="0"/>
        <pt x="982" y="1219" on="1"/>
        <pt x="982" y="1068" on="0"/>
        <pt x="866" y="959" on="1"/>
        <pt x="795" y="893" on="0"/>
        <pt x="661" y="832" on="1"/>
        <pt x="829" y="527" on="0"/>
        <pt x="995" y="328" on="1"/>
        <pt x="1094" y="455" on="0"/>
        <pt x="1094" y="707" on="1"/>
        <pt x="1094" y="787" on="1"/>
        <pt x="1289" y="787" on="1"/>
        <pt x="1289" y="441" on="0"/>
        <pt x="1087" y="221" on="1"/>
        <pt x="1175" y="109" on="0"/>
        <pt x="1293" y="0" on="1"/>
      </contour>
      <contour>
        <pt x="866" y="202" on="1"/>
        <pt x="669" y="427" on="0"/>
        <pt x="475" y="790" on="1"/>
        <pt x="377" y="743" on="0"/>
        <pt x="327" y="684" on="1"/>
        <pt x="254" y="600" on="0"/>
        <pt x="254" y="477" on="1"/>
        <pt x="254" y="324" on="0"/>
        <pt x="356" y="218" on="1"/>
        <pt x="459" y="111" on="0"/>
        <pt x="602" y="111" on="1"/>
        <pt x="714" y="111" on="0"/>
      </contour>
      <contour>
        <pt x="587" y="956" on="1"/>
        <pt x="683" y="998" on="0"/>
        <pt x="729" y="1046" on="1"/>
        <pt x="797" y="1116" on="0"/>
        <pt x="797" y="1215" on="1"/>
        <pt x="797" y="1369" on="0"/>
        <pt x="657" y="1369" on="1"/>
        <pt x="509" y="1369" on="0"/>
        <pt x="509" y="1207" on="1"/>
        <pt x="509" y="1109" on="0"/>
        <pt x="579" y="972" on="1"/>
      </contour>
    </TTGlyph>
    <TTGlyph name="anoteleia" xMin="161" yMin="491" xMax="408" yMax="738">
      <contour>
        <pt x="161" y="491" on="1"/>
        <pt x="161" y="738" on="1"/>
        <pt x="408" y="738" on="1"/>
        <pt x="408" y="491" on="1"/>
      </contour>
    </TTGlyph>
    <TTGlyph name="aogonek" xMin="95" yMin="-370" xMax="1098" yMax="1110">
      <component glyphName="a" x="0" y="0" flags="0x4"/>
      <component glyphName="ogonek" x="537" y="0" flags="0x4"/>
    </TTGlyph>
    <TTGlyph name="aring" xMin="95" yMin="-25" xMax="1098" yMax="1737">
      <component glyphName="a" x="0" y="0" flags="0x4"/>
      <component glyphName="ring" x="238" y="0" flags="0x4"/>
    </TTGlyph>
    <TTGlyph name="asciicircum" xMin="36" yMin="592" xMax="924" yMax="1480">
      <contour>
        <pt x="480" y="1149" on="1"/>
        <pt x="201" y="592" on="1"/>
        <pt x="36" y="592" on="1"/>
        <pt x="480" y="1480" on="1"/>
        <pt x="924" y="592" on="1"/>
        <pt x="758" y="592" on="1"/>
      </contour>
    </TTGlyph>
    <TTGlyph name="asciitilde" xMin="104" yMin="412" xMax="1091" yMax="772">
      <contour>
        <pt x="252" y="444" on="1"/>
        <pt x="104" y="444" on="1"/>
        <pt x="107" y="550" on="0"/>
        <pt x="126" y="605" on="1"/>
        <pt x="184" y="772" on="0"/>
        <pt x="370" y="772" on="1"/>
        <pt x="469" y="772" on="0"/>
        <pt x="569" y="703" on="1"/>
        <pt x="681" y="626" on="1"/>
        <pt x="747" y="580" on="1"/>
        <pt x="776" y="560" on="0"/>
        <pt x="824" y="560" on="1"/>
        <pt x="939" y="560" on="0"/>
        <pt x="943" y="740" on="1"/>
        <pt x="1091" y="740" on="1"/>
        <pt x="1088" y="634" on="0"/>
        <pt x="1069" y="579" on="1"/>
        <pt x="1011" y="412" on="0"/>
        <pt x="826" y="412" on="1"/>
        <pt x="727" y="412" on="0"/>
        <pt x="627" y="481" on="1"/>
        <pt x="515" y="558" on="1"/>
        <pt x="448" y="604" on="1"/>
        <pt x="419" y="624" on="0"/>
        <pt x="372" y="624" on="1"/>
        <pt x="256" y="624" on="0"/>
      </contour>
    </TTGlyph>
    <TTGlyph name="asterisk" xMin="39" yMin="751" xMax="757" yMax="1480">
      <contour>
        <pt x="711" y="1289" on="1"/>
        <pt x="757" y="1148" on="1"/>
        <pt x="479" y="1082" on="1"/>
        <pt x="479" y="1084" on="1"/>
        <pt x="481" y="1095" on="0"/>
        <pt x="481" y="1096" on="1"/>
        <pt x="481" y="1097" on="1"/>
        <pt x="479" y="1139" on="0"/>
        <pt x="452" y="1164" on="1"/>
      </contour>
      <contour>
        <pt x="681" y="838" on="1"/>
        <pt x="561" y="751" on="1"/>
        <pt x="404" y="1018" on="1"/>
        <pt x="454" y="1024" on="0"/>
        <pt x="474" y="1069" on="1"/>
      </contour>
      <contour>
        <pt x="235" y="751" on="1"/>
        <pt x="115" y="838" on="1"/>
        <pt x="321" y="1069" on="1"/>
        <pt x="341" y="1024" on="0"/>
        <pt x="391" y="1018" on="1"/>
      </contour>
      <contour>
        <pt x="39" y="1148" on="1"/>
        <pt x="84" y="1289" on="1"/>
        <pt x="344" y="1164" on="1"/>
        <pt x="315" y="1138" on="0"/>
        <pt x="315" y="1097" on="1"/>
        <pt x="315" y="1096" on="1"/>
        <pt x="315" y="1095" on="0"/>
        <pt x="315" y="1091" on="1"/>
        <pt x="316" y="1088" on="1"/>
        <pt x="317" y="1084" on="0"/>
        <pt x="317" y="1082" on="1"/>
      </contour>
      <contour>
        <pt x="324" y="1480" on="1"/>
        <pt x="472" y="1480" on="1"/>
        <pt x="441" y="1172" on="1"/>
        <pt x="419" y="1183" on="0"/>
        <pt x="398" y="1183" on="1"/>
        <pt x="375" y="1183" on="0"/>
        <pt x="355" y="1172" on="1"/>
      </contour>
    </TTGlyph>
    <TTGlyph name="at" xMin="253" yMin="-37" xMax="1844" yMax="1517">
      <contour>
        <pt x="1253" y="44" on="1"/>
        <pt x="1067" y="-37" on="0"/>
        <pt x="897" y="-37" on="1"/>
        <pt x="619" y="-37" on="0"/>
        <pt x="436" y="137" on="1"/>
        <pt x="253" y="310" on="0"/>
        <pt x="253" y="582" on="1"/>
        <pt x="253" y="949" on="0"/>
        <pt x="535" y="1233" on="1"/>
        <pt x="817" y="1517" on="0"/>
        <pt x="1186" y="1517" on="1"/>
        <pt x="1468" y="1517" on="0"/>
        <pt x="1656" y="1337" on="1"/>
        <pt x="1844" y="1157" on="0"/>
        <pt x="1844" y="889" on="1"/>
        <pt x="1844" y="643" on="0"/>
        <pt x="1693" y="469" on="1"/>
        <pt x="1542" y="296" on="0"/>
        <pt x="1327" y="296" on="1"/>
        <pt x="1160" y="296" on="0"/>
        <pt x="1160" y="411" on="1"/>
        <pt x="1160" y="450" on="0"/>
        <pt x="1181" y="516" on="1"/>
        <pt x="1221" y="642" on="1"/>
        <pt x="1209" y="642" on="1"/>
        <pt x="1124" y="486" on="0"/>
        <pt x="1048" y="408" on="1"/>
        <pt x="939" y="296" on="0"/>
        <pt x="818" y="296" on="1"/>
        <pt x="629" y="296" on="0"/>
        <pt x="629" y="523" on="1"/>
        <pt x="629" y="772" on="0"/>
        <pt x="791" y="975" on="1"/>
        <pt x="952" y="1178" on="0"/>
        <pt x="1157" y="1178" on="1"/>
        <pt x="1182" y="1178" on="0"/>
        <pt x="1222" y="1176" on="1"/>
        <pt x="1232" y="1175" on="0"/>
        <pt x="1245" y="1174" on="1"/>
        <pt x="1284" y="1172" on="0"/>
        <pt x="1311" y="1172" on="1"/>
        <pt x="1448" y="1172" on="1"/>
        <pt x="1322" y="536" on="1"/>
        <pt x="1316" y="506" on="0"/>
        <pt x="1316" y="475" on="1"/>
        <pt x="1316" y="407" on="0"/>
        <pt x="1393" y="407" on="1"/>
        <pt x="1525" y="407" on="0"/>
        <pt x="1629" y="549" on="1"/>
        <pt x="1733" y="692" on="0"/>
        <pt x="1733" y="874" on="1"/>
        <pt x="1733" y="1103" on="0"/>
        <pt x="1574" y="1255" on="1"/>
        <pt x="1415" y="1407" on="0"/>
        <pt x="1172" y="1407" on="1"/>
        <pt x="856" y="1407" on="0"/>
        <pt x="610" y="1158" on="1"/>
        <pt x="364" y="908" on="0"/>
        <pt x="364" y="591" on="1"/>
        <pt x="364" y="361" on="0"/>
        <pt x="519" y="218" on="1"/>
        <pt x="673" y="74" on="0"/>
        <pt x="913" y="74" on="1"/>
        <pt x="1067" y="74" on="0"/>
        <pt x="1217" y="146" on="1"/>
      </contour>
      <contour>
        <pt x="1233" y="833" on="1"/>
        <pt x="1272" y="1028" on="1"/>
        <pt x="1178" y="1061" on="0"/>
        <pt x="1112" y="1061" on="1"/>
        <pt x="971" y="1061" on="0"/>
        <pt x="877" y="918" on="1"/>
        <pt x="783" y="775" on="0"/>
        <pt x="783" y="568" on="1"/>
        <pt x="783" y="419" on="0"/>
        <pt x="863" y="419" on="1"/>
        <pt x="996" y="419" on="0"/>
      </contour>
    </TTGlyph>
    <TTGlyph name="atilde" xMin="95" yMin="-25" xMax="1098" yMax="1517">
      <component glyphName="a" x="0" y="0" flags="0x4"/>
      <component glyphName="tilde" x="206" y="0" flags="0x4"/>
    </TTGlyph>
    <TTGlyph name="b" xMin="154" yMin="-25" xMax="1052" yMax="1579">
      <contour>
        <pt x="351" y="703" on="1"/>
        <pt x="351" y="149" on="1"/>
        <pt x="488" y="123" on="0"/>
        <pt x="557" y="123" on="1"/>
        <pt x="839" y="123" on="0"/>
        <pt x="839" y="552" on="1"/>
        <pt x="839" y="733" on="0"/>
        <pt x="783" y="835" on="1"/>
        <pt x="728" y="938" on="0"/>
        <pt x="634" y="938" on="1"/>
        <pt x="508" y="938" on="0"/>
      </contour>
      <contour>
        <pt x="351" y="882" on="1"/>
        <pt x="407" y="984" on="0"/>
        <pt x="469" y="1036" on="1"/>
        <pt x="558" y="1110" on="0"/>
        <pt x="676" y="1110" on="1"/>
        <pt x="845" y="1110" on="0"/>
        <pt x="948" y="963" on="1"/>
        <pt x="1052" y="816" on="0"/>
        <pt x="1052" y="572" on="1"/>
        <pt x="1052" y="287" on="0"/>
        <pt x="918" y="131" on="1"/>
        <pt x="785" y="-25" on="0"/>
        <pt x="540" y="-25" on="1"/>
        <pt x="449" y="-25" on="0"/>
        <pt x="351" y="0" on="1"/>
        <pt x="154" y="-12" on="1"/>
        <pt x="154" y="1579" on="1"/>
        <pt x="351" y="1579" on="1"/>
      </contour>
    </TTGlyph>
    <TTGlyph name="backslash" xMin="-59" yMin="-296" xMax="629" yMax="1480">
      <contour>
        <pt x="629" y="-296" on="1"/>
        <pt x="474" y="-296" on="1"/>
        <pt x="-59" y="1480" on="1"/>
        <pt x="96" y="1480" on="1"/>
      </contour>
    </TTGlyph>
    <TTGlyph name="bar" xMin="192" yMin="-296" xMax="340" yMax="1579">
      <contour>
        <pt x="192" y="-296" on="1"/>
        <pt x="192" y="1579" on="1"/>
        <pt x="340" y="1579" on="1"/>
        <pt x="340" y="-296" on="1"/>
      </contour>
    </TTGlyph>
    <TTGlyph name="braceleft" xMin="25" yMin="-296" xMax="568" yMax="1579">
      <contour>
        <pt x="25" y="716" on="1"/>
        <pt x="86" y="716" on="1"/>
        <pt x="239" y="716" on="0"/>
        <pt x="239" y="880" on="1"/>
        <pt x="239" y="944" on="0"/>
        <pt x="223" y="1017" on="1"/>
        <pt x="204" y="1104" on="1"/>
        <pt x="185" y="1191" on="0"/>
        <pt x="185" y="1268" on="1"/>
        <pt x="185" y="1431" on="0"/>
        <pt x="321" y="1517" on="1"/>
        <pt x="416" y="1576" on="0"/>
        <pt x="568" y="1579" on="1"/>
        <pt x="568" y="1431" on="1"/>
        <pt x="515" y="1431" on="1"/>
        <pt x="446" y="1431" on="0"/>
        <pt x="402" y="1396" on="1"/>
        <pt x="357" y="1360" on="0"/>
        <pt x="357" y="1306" on="1"/>
        <pt x="357" y="1286" on="0"/>
        <pt x="370" y="1212" on="1"/>
        <pt x="387" y="1110" on="1"/>
        <pt x="398" y="1043" on="0"/>
        <pt x="398" y="962" on="1"/>
        <pt x="398" y="773" on="0"/>
        <pt x="251" y="642" on="1"/>
        <pt x="398" y="511" on="0"/>
        <pt x="398" y="320" on="1"/>
        <pt x="398" y="240" on="0"/>
        <pt x="387" y="173" on="1"/>
        <pt x="370" y="71" on="1"/>
        <pt x="357" y="-3" on="0"/>
        <pt x="357" y="-24" on="1"/>
        <pt x="357" y="-77" on="0"/>
        <pt x="403" y="-113" on="1"/>
        <pt x="447" y="-148" on="0"/>
        <pt x="515" y="-148" on="1"/>
        <pt x="568" y="-148" on="1"/>
        <pt x="568" y="-296" on="1"/>
        <pt x="408" y="-293" on="0"/>
        <pt x="311" y="-227" on="1"/>
        <pt x="185" y="-140" on="0"/>
        <pt x="185" y="17" on="1"/>
        <pt x="185" y="92" on="0"/>
        <pt x="204" y="179" on="1"/>
        <pt x="223" y="266" on="1"/>
        <pt x="239" y="339" on="0"/>
        <pt x="239" y="406" on="1"/>
        <pt x="239" y="568" on="0"/>
        <pt x="86" y="568" on="1"/>
        <pt x="25" y="568" on="1"/>
      </contour>
    </TTGlyph>
    <TTGlyph name="braceright" xMin="116" yMin="-296" xMax="659" yMax="1579">
      <contour>
        <pt x="659" y="568" on="1"/>
        <pt x="597" y="568" on="1"/>
        <pt x="445" y="568" on="0"/>
        <pt x="445" y="404" on="1"/>
        <pt x="445" y="331" on="0"/>
        <pt x="460" y="266" on="1"/>
        <pt x="480" y="179" on="1"/>
        <pt x="499" y="96" on="0"/>
        <pt x="499" y="15" on="1"/>
        <pt x="499" y="-148" on="0"/>
        <pt x="361" y="-234" on="1"/>
        <pt x="267" y="-293" on="0"/>
        <pt x="116" y="-296" on="1"/>
        <pt x="116" y="-148" on="1"/>
        <pt x="168" y="-148" on="1"/>
        <pt x="236" y="-148" on="0"/>
        <pt x="281" y="-113" on="1"/>
        <pt x="326" y="-77" on="0"/>
        <pt x="326" y="-23" on="1"/>
        <pt x="326" y="3" on="0"/>
        <pt x="314" y="71" on="1"/>
        <pt x="296" y="173" on="1"/>
        <pt x="285" y="235" on="0"/>
        <pt x="285" y="321" on="1"/>
        <pt x="285" y="511" on="0"/>
        <pt x="432" y="642" on="1"/>
        <pt x="366" y="701" on="0"/>
        <pt x="333" y="760" on="1"/>
        <pt x="285" y="848" on="0"/>
        <pt x="285" y="963" on="1"/>
        <pt x="285" y="1048" on="0"/>
        <pt x="296" y="1110" on="1"/>
        <pt x="314" y="1212" on="1"/>
        <pt x="326" y="1280" on="0"/>
        <pt x="326" y="1308" on="1"/>
        <pt x="326" y="1360" on="0"/>
        <pt x="280" y="1396" on="1"/>
        <pt x="235" y="1431" on="0"/>
        <pt x="168" y="1431" on="1"/>
        <pt x="116" y="1431" on="1"/>
        <pt x="116" y="1579" on="1"/>
        <pt x="276" y="1576" on="0"/>
        <pt x="372" y="1510" on="1"/>
        <pt x="499" y="1423" on="0"/>
        <pt x="499" y="1266" on="1"/>
        <pt x="499" y="1187" on="0"/>
        <pt x="480" y="1104" on="1"/>
        <pt x="460" y="1017" on="1"/>
        <pt x="445" y="952" on="0"/>
        <pt x="445" y="877" on="1"/>
        <pt x="445" y="716" on="0"/>
        <pt x="597" y="716" on="1"/>
        <pt x="659" y="716" on="1"/>
      </contour>
    </TTGlyph>
    <TTGlyph name="bracketleft" xMin="149" yMin="-296" xMax="544" yMax="1579">
      <contour>
        <pt x="149" y="-296" on="1"/>
        <pt x="149" y="1579" on="1"/>
        <pt x="544" y="1579" on="1"/>
        <pt x="544" y="1431" on="1"/>
        <pt x="322" y="1431" on="1"/>
        <pt x="322" y="-148" on="1"/>
        <pt x="544" y="-148" on="1"/>
        <pt x="544" y="-296" on="1"/>
      </contour>
    </TTGlyph>
    <TTGlyph name="bracketright" xMin="26" yMin="-296" xMax="421" yMax="1579">
      <contour>
        <pt x="421" y="1579" on="1"/>
        <pt x="421" y="-296" on="1"/>
        <pt x="26" y="-296" on="1"/>
        <pt x="26" y="-148" on="1"/>
        <pt x="248" y="-148" on="1"/>
        <pt x="248" y="1431" on="1"/>
        <pt x="26" y="1431" on="1"/>
        <pt x="26" y="1579" on="1"/>
      </contour>
    </TTGlyph>
    <TTGlyph name="breve" xMin="8" yMin="1283" xMax="674" yMax="1604">
      <contour>
        <pt x="8" y="1604" on="1"/>
        <pt x="131" y="1604" on="1"/>
        <pt x="152" y="1510" on="0"/>
        <pt x="206" y="1470" on="1"/>
        <pt x="258" y="1431" on="0"/>
        <pt x="341" y="1431" on="1"/>
        <pt x="435" y="1431" on="0"/>
        <pt x="489" y="1480" on="1"/>
        <pt x="532" y="1520" on="0"/>
        <pt x="551" y="1604" on="1"/>
        <pt x="674" y="1604" on="1"/>
        <pt x="658" y="1470" on="0"/>
        <pt x="585" y="1389" on="1"/>
        <pt x="491" y="1283" on="0"/>
        <pt x="341" y="1283" on="1"/>
        <pt x="184" y="1283" on="0"/>
        <pt x="89" y="1398" on="1"/>
        <pt x="24" y="1476" on="0"/>
      </contour>
    </TTGlyph>
    <TTGlyph name="brokenbar" xMin="192" yMin="-296" xMax="340" yMax="1579">
      <contour>
        <pt x="192" y="-296" on="1"/>
        <pt x="192" y="444" on="1"/>
        <pt x="340" y="444" on="1"/>
        <pt x="340" y="-296" on="1"/>
      </contour>
      <contour>
        <pt x="192" y="839" on="1"/>
        <pt x="192" y="1579" on="1"/>
        <pt x="340" y="1579" on="1"/>
        <pt x="340" y="839" on="1"/>
      </contour>
    </TTGlyph>
    <TTGlyph name="bullet" xMin="81" yMin="555" xMax="636" yMax="1110">
      <contour>
        <pt x="359" y="1110" on="1"/>
        <pt x="474" y="1110" on="0"/>
        <pt x="555" y="1028" on="1"/>
        <pt x="636" y="946" on="0"/>
        <pt x="636" y="831" on="1"/>
        <pt x="636" y="717" on="0"/>
        <pt x="554" y="636" on="1"/>
        <pt x="472" y="555" on="0"/>
        <pt x="354" y="555" on="1"/>
        <pt x="255" y="555" on="0"/>
        <pt x="179" y="621" on="1"/>
        <pt x="81" y="707" on="0"/>
        <pt x="81" y="833" on="1"/>
        <pt x="81" y="948" on="0"/>
        <pt x="163" y="1029" on="1"/>
        <pt x="244" y="1110" on="0"/>
      </contour>
    </TTGlyph>
    <TTGlyph name="c" xMin="86" yMin="-25" xMax="926" yMax="1110">
      <contour>
        <pt x="926" y="33" on="1"/>
        <pt x="745" y="-25" on="0"/>
        <pt x="585" y="-25" on="1"/>
        <pt x="360" y="-25" on="0"/>
        <pt x="223" y="133" on="1"/>
        <pt x="86" y="290" on="0"/>
        <pt x="86" y="543" on="1"/>
        <pt x="86" y="809" on="0"/>
        <pt x="226" y="959" on="1"/>
        <pt x="365" y="1110" on="0"/>
        <pt x="616" y="1110" on="1"/>
        <pt x="742" y="1110" on="0"/>
        <pt x="914" y="1074" on="1"/>
        <pt x="914" y="910" on="1"/>
        <pt x="750" y="959" on="0"/>
        <pt x="652" y="959" on="1"/>
        <pt x="308" y="959" on="0"/>
        <pt x="308" y="543" on="1"/>
        <pt x="308" y="347" on="0"/>
        <pt x="397" y="241" on="1"/>
        <pt x="485" y="134" on="0"/>
        <pt x="644" y="134" on="1"/>
        <pt x="765" y="134" on="0"/>
        <pt x="926" y="203" on="1"/>
      </contour>
    </TTGlyph>
    <TTGlyph name="cacute" xMin="86" yMin="-25" xMax="928" yMax="1604">
      <component glyphName="c" x="0" y="0" flags="0x4"/>
      <component glyphName="acute" x="352" y="0" flags="0x4"/>
    </TTGlyph>
    <TTGlyph name="caron" xMin="-9" yMin="1283" xMax="691" yMax="1604">
      <contour>
        <pt x="691" y="1604" on="1"/>
        <pt x="450" y="1283" on="1"/>
        <pt x="232" y="1283" on="1"/>
        <pt x="-9" y="1604" on="1"/>
        <pt x="139" y="1604" on="1"/>
        <pt x="340" y="1402" on="1"/>
        <pt x="342" y="1402" on="1"/>
        <pt x="543" y="1604" on="1"/>
      </contour>
    </TTGlyph>
    <TTGlyph name="ccaron" xMin="86" yMin="-25" xMax="957" yMax="1604">
      <component glyphName="c" x="0" y="0" flags="0x4"/>
      <component glyphName="caron" x="266" y="0" flags="0x4"/>
    </TTGlyph>
    <TTGlyph name="ccedilla" xMin="86" yMin="-432" xMax="926" yMax="1110">
      <component glyphName="c" x="0" y="0" flags="0x4"/>
      <component glyphName="cedilla" x="260" y="0" flags="0x4"/>
    </TTGlyph>
    <TTGlyph name="ccircumflex" xMin="86" yMin="-25" xMax="957" yMax="1604">
      <contour>
        <pt x="926" y="33" on="1"/>
        <pt x="745" y="-25" on="0"/>
        <pt x="585" y="-25" on="1"/>
        <pt x="360" y="-25" on="0"/>
        <pt x="223" y="133" on="1"/>
        <pt x="86" y="290" on="0"/>
        <pt x="86" y="543" on="1"/>
        <pt x="86" y="809" on="0"/>
        <pt x="226" y="959" on="1"/>
        <pt x="365" y="1110" on="0"/>
        <pt x="616" y="1110" on="1"/>
        <pt x="742" y="1110" on="0"/>
        <pt x="914" y="1074" on="1"/>
        <pt x="914" y="910" on="1"/>
        <pt x="750" y="959" on="0"/>
        <pt x="652" y="959" on="1"/>
        <pt x="308" y="959" on="0"/>
        <pt x="308" y="543" on="1"/>
        <pt x="308" y="347" on="0"/>
        <pt x="397" y="241" on="1"/>
        <pt x="485" y="134" on="0"/>
        <pt x="644" y="134" on="1"/>
        <pt x="765" y="134" on="0"/>
        <pt x="926" y="203" on="1"/>
      </contour>
      <contour>
        <pt x="257" y="1283" on="1"/>
        <pt x="498" y="1604" on="1"/>
        <pt x="716" y="1604" on="1"/>
        <pt x="957" y="1283" on="1"/>
        <pt x="809" y="1283" on="1"/>
        <pt x="608" y="1485" on="1"/>
        <pt x="606" y="1485" on="1"/>
        <pt x="405" y="1283" on="1"/>
      </contour>
    </TTGlyph>
    <TTGlyph name="cdotaccent" xMin="86" yMin="-25" xMax="926" yMax="1480">
      <contour>
        <pt x="926" y="33" on="1"/>
        <pt x="745" y="-25" on="0"/>
        <pt x="585" y="-25" on="1"/>
        <pt x="360" y="-25" on="0"/>
        <pt x="223" y="133" on="1"/>
        <pt x="86" y="290" on="0"/>
        <pt x="86" y="543" on="1"/>
        <pt x="86" y="809" on="0"/>
        <pt x="226" y="959" on="1"/>
        <pt x="365" y="1110" on="0"/>
        <pt x="616" y="1110" on="1"/>
        <pt x="742" y="1110" on="0"/>
        <pt x="914" y="1074" on="1"/>
        <pt x="914" y="910" on="1"/>
        <pt x="750" y="959" on="0"/>
        <pt x="652" y="959" on="1"/>
        <pt x="308" y="959" on="0"/>
        <pt x="308" y="543" on="1"/>
        <pt x="308" y="347" on="0"/>
        <pt x="397" y="241" on="1"/>
        <pt x="485" y="134" on="0"/>
        <pt x="644" y="134" on="1"/>
        <pt x="765" y="134" on="0"/>
        <pt x="926" y="203" on="1"/>
      </contour>
      <contour>
        <pt x="508" y="1283" on="1"/>
        <pt x="508" y="1480" on="1"/>
        <pt x="705" y="1480" on="1"/>
        <pt x="705" y="1283" on="1"/>
      </contour>
    </TTGlyph>
    <TTGlyph name="cedilla" xMin="168" yMin="-432" xMax="515" yMax="0">
      <contour>
        <pt x="284" y="0" on="1"/>
        <pt x="381" y="0" on="1"/>
        <pt x="321" y="-109" on="1"/>
        <pt x="393" y="-111" on="0"/>
        <pt x="445" y="-148" on="1"/>
        <pt x="515" y="-197" on="0"/>
        <pt x="515" y="-269" on="1"/>
        <pt x="515" y="-337" on="0"/>
        <pt x="456" y="-384" on="1"/>
        <pt x="398" y="-432" on="0"/>
        <pt x="311" y="-432" on="1"/>
        <pt x="244" y="-432" on="0"/>
        <pt x="168" y="-411" on="1"/>
        <pt x="168" y="-330" on="1"/>
        <pt x="218" y="-345" on="0"/>
        <pt x="272" y="-345" on="1"/>
        <pt x="376" y="-345" on="0"/>
        <pt x="376" y="-271" on="1"/>
        <pt x="376" y="-178" on="0"/>
        <pt x="189" y="-175" on="1"/>
      </contour>
    </TTGlyph>
    <TTGlyph name="cent" xMin="173" yMin="0" xMax="1014" yMax="1480">
      <contour>
        <pt x="631" y="0" on="1"/>
        <pt x="631" y="173" on="1"/>
        <pt x="443" y="197" on="0"/>
        <pt x="327" y="320" on="1"/>
        <pt x="173" y="483" on="0"/>
        <pt x="173" y="740" on="1"/>
        <pt x="173" y="1010" on="0"/>
        <pt x="331" y="1161" on="1"/>
        <pt x="441" y="1266" on="0"/>
        <pt x="631" y="1295" on="1"/>
        <pt x="631" y="1480" on="1"/>
        <pt x="730" y="1480" on="1"/>
        <pt x="730" y="1295" on="1"/>
        <pt x="863" y="1289" on="0"/>
        <pt x="1014" y="1249" on="1"/>
        <pt x="1014" y="1083" on="1"/>
        <pt x="836" y="1143" on="0"/>
        <pt x="730" y="1153" on="1"/>
        <pt x="730" y="313" on="1"/>
        <pt x="866" y="313" on="0"/>
        <pt x="1014" y="380" on="1"/>
        <pt x="1014" y="231" on="1"/>
        <pt x="865" y="173" on="0"/>
        <pt x="730" y="173" on="1"/>
        <pt x="730" y="0" on="1"/>
      </contour>
      <contour>
        <pt x="631" y="1144" on="1"/>
        <pt x="572" y="1135" on="0"/>
        <pt x="542" y="1120" on="1"/>
        <pt x="389" y="1041" on="0"/>
        <pt x="389" y="739" on="1"/>
        <pt x="389" y="530" on="0"/>
        <pt x="480" y="422" on="1"/>
        <pt x="532" y="361" on="0"/>
        <pt x="631" y="324" on="1"/>
      </contour>
    </TTGlyph>
    <TTGlyph name="circumflex" xMin="-9" yMin="1283" xMax="691" yMax="1604">
      <contour>
        <pt x="-9" y="1283" on="1"/>
        <pt x="232" y="1604" on="1"/>
        <pt x="450" y="1604" on="1"/>
        <pt x="691" y="1283" on="1"/>
        <pt x="543" y="1283" on="1"/>
        <pt x="342" y="1485" on="1"/>
        <pt x="340" y="1485" on="1"/>
        <pt x="139" y="1283" on="1"/>
      </contour>
    </TTGlyph>
    <TTGlyph name="colon" xMin="186" yMin="0" xMax="383" yMax="1086">
      <contour>
        <pt x="186" y="0" on="1"/>
        <pt x="186" y="197" on="1"/>
        <pt x="383" y="197" on="1"/>
        <pt x="383" y="0" on="1"/>
      </contour>
      <contour>
        <pt x="186" y="888" on="1"/>
        <pt x="186" y="1086" on="1"/>
        <pt x="383" y="1086" on="1"/>
        <pt x="383" y="888" on="1"/>
      </contour>
    </TTGlyph>
    <TTGlyph name="comma" xMin="161" yMin="-321" xMax="408" yMax="247">
      <contour>
        <pt x="161" y="-321" on="1"/>
        <pt x="161" y="-247" on="1"/>
        <pt x="257" y="-220" on="0"/>
        <pt x="257" y="-20" on="1"/>
        <pt x="257" y="0" on="1"/>
        <pt x="161" y="0" on="1"/>
        <pt x="161" y="247" on="1"/>
        <pt x="408" y="247" on="1"/>
        <pt x="408" y="33" on="1"/>
        <pt x="407" y="-294" on="0"/>
      </contour>
    </TTGlyph>
    <TTGlyph name="copyright" xMin="15" yMin="0" xMax="1495" yMax="1480">
      <contour>
        <pt x="755" y="1480" on="1"/>
        <pt x="1060" y="1480" on="0"/>
        <pt x="1278" y="1263" on="1"/>
        <pt x="1495" y="1047" on="0"/>
        <pt x="1495" y="741" on="1"/>
        <pt x="1495" y="431" on="0"/>
        <pt x="1277" y="216" on="1"/>
        <pt x="1060" y="0" on="0"/>
        <pt x="746" y="0" on="1"/>
        <pt x="478" y="0" on="0"/>
        <pt x="277" y="176" on="1"/>
        <pt x="15" y="404" on="0"/>
        <pt x="15" y="741" on="1"/>
        <pt x="15" y="1047" on="0"/>
        <pt x="232" y="1263" on="1"/>
        <pt x="450" y="1480" on="0"/>
      </contour>
      <contour>
        <pt x="755" y="1375" on="1"/>
        <pt x="494" y="1375" on="0"/>
        <pt x="307" y="1188" on="1"/>
        <pt x="121" y="1002" on="0"/>
        <pt x="121" y="740" on="1"/>
        <pt x="121" y="482" on="0"/>
        <pt x="306" y="294" on="1"/>
        <pt x="491" y="106" on="0"/>
        <pt x="748" y="106" on="1"/>
        <pt x="987" y="106" on="0"/>
        <pt x="1164" y="256" on="1"/>
        <pt x="1390" y="448" on="0"/>
        <pt x="1390" y="741" on="1"/>
        <pt x="1390" y="1003" on="0"/>
        <pt x="1203" y="1188" on="1"/>
        <pt x="1016" y="1375" on="0"/>
      </contour>
      <contour>
        <pt x="1025" y="364" on="1"/>
        <pt x="887" y="317" on="0"/>
        <pt x="781" y="317" on="1"/>
        <pt x="603" y="317" on="0"/>
        <pt x="488" y="434" on="1"/>
        <pt x="373" y="551" on="0"/>
        <pt x="373" y="736" on="1"/>
        <pt x="373" y="927" on="0"/>
        <pt x="485" y="1042" on="1"/>
        <pt x="597" y="1157" on="0"/>
        <pt x="787" y="1157" on="1"/>
        <pt x="884" y="1157" on="0"/>
        <pt x="1001" y="1133" on="1"/>
        <pt x="1025" y="1128" on="1"/>
        <pt x="1025" y="1010" on="1"/>
        <pt x="895" y="1063" on="0"/>
        <pt x="794" y="1063" on="1"/>
        <pt x="668" y="1063" on="0"/>
        <pt x="591" y="974" on="1"/>
        <pt x="514" y="884" on="0"/>
        <pt x="514" y="739" on="1"/>
        <pt x="514" y="593" on="0"/>
        <pt x="594" y="508" on="1"/>
        <pt x="674" y="423" on="0"/>
        <pt x="809" y="423" on="1"/>
        <pt x="914" y="423" on="0"/>
        <pt x="1025" y="482" on="1"/>
      </contour>
    </TTGlyph>
    <TTGlyph name="currency" xMin="122" yMin="293" xMax="1016" yMax="1188">
      <contour>
        <pt x="365" y="449" on="1"/>
        <pt x="209" y="293" on="1"/>
        <pt x="122" y="380" on="1"/>
        <pt x="277" y="536" on="1"/>
        <pt x="214" y="640" on="0"/>
        <pt x="214" y="740" on="1"/>
        <pt x="214" y="841" on="0"/>
        <pt x="278" y="944" on="1"/>
        <pt x="122" y="1100" on="1"/>
        <pt x="209" y="1188" on="1"/>
        <pt x="365" y="1032" on="1"/>
        <pt x="463" y="1095" on="0"/>
        <pt x="569" y="1095" on="1"/>
        <pt x="675" y="1095" on="0"/>
        <pt x="773" y="1032" on="1"/>
        <pt x="929" y="1188" on="1"/>
        <pt x="1016" y="1100" on="1"/>
        <pt x="860" y="944" on="1"/>
        <pt x="924" y="841" on="0"/>
        <pt x="924" y="740" on="1"/>
        <pt x="924" y="639" on="0"/>
        <pt x="861" y="536" on="1"/>
        <pt x="1016" y="380" on="1"/>
        <pt x="929" y="293" on="1"/>
        <pt x="773" y="449" on="1"/>
        <pt x="674" y="385" on="0"/>
        <pt x="569" y="385" on="1"/>
        <pt x="464" y="385" on="0"/>
      </contour>
      <contour>
        <pt x="569" y="972" on="1"/>
        <pt x="471" y="972" on="0"/>
        <pt x="404" y="905" on="1"/>
        <pt x="337" y="838" on="0"/>
        <pt x="337" y="739" on="1"/>
        <pt x="337" y="643" on="0"/>
        <pt x="404" y="576" on="1"/>
        <pt x="470" y="508" on="0"/>
        <pt x="566" y="508" on="1"/>
        <pt x="655" y="508" on="0"/>
        <pt x="719" y="562" on="1"/>
        <pt x="801" y="631" on="0"/>
        <pt x="801" y="741" on="1"/>
        <pt x="801" y="838" on="0"/>
        <pt x="734" y="905" on="1"/>
        <pt x="666" y="972" on="0"/>
      </contour>
    </TTGlyph>
    <TTGlyph name="d" xMin="86" yMin="-25" xMax="984" yMax="1579">
      <contour>
        <pt x="787" y="382" on="1"/>
        <pt x="787" y="937" on="1"/>
        <pt x="648" y="962" on="0"/>
        <pt x="582" y="962" on="1"/>
        <pt x="299" y="962" on="0"/>
        <pt x="299" y="532" on="1"/>
        <pt x="299" y="354" on="0"/>
        <pt x="355" y="251" on="1"/>
        <pt x="410" y="148" on="0"/>
        <pt x="504" y="148" on="1"/>
        <pt x="630" y="148" on="0"/>
      </contour>
      <contour>
        <pt x="787" y="203" on="1"/>
        <pt x="731" y="101" on="0"/>
        <pt x="669" y="49" on="1"/>
        <pt x="581" y="-25" on="0"/>
        <pt x="462" y="-25" on="1"/>
        <pt x="293" y="-25" on="0"/>
        <pt x="190" y="123" on="1"/>
        <pt x="86" y="270" on="0"/>
        <pt x="86" y="514" on="1"/>
        <pt x="86" y="798" on="0"/>
        <pt x="220" y="954" on="1"/>
        <pt x="354" y="1110" on="0"/>
        <pt x="597" y="1110" on="1"/>
        <pt x="691" y="1110" on="0"/>
        <pt x="787" y="1086" on="1"/>
        <pt x="787" y="1579" on="1"/>
        <pt x="984" y="1579" on="1"/>
        <pt x="984" y="0" on="1"/>
        <pt x="787" y="0" on="1"/>
      </contour>
    </TTGlyph>
    <TTGlyph name="dagger" xMin="150" yMin="-296" xMax="989" yMax="1480">
      <contour>
        <pt x="471" y="-296" on="1"/>
        <pt x="495" y="839" on="1"/>
        <pt x="150" y="814" on="1"/>
        <pt x="150" y="962" on="1"/>
        <pt x="495" y="938" on="1"/>
        <pt x="471" y="1480" on="1"/>
        <pt x="668" y="1480" on="1"/>
        <pt x="643" y="938" on="1"/>
        <pt x="989" y="962" on="1"/>
        <pt x="989" y="814" on="1"/>
        <pt x="643" y="839" on="1"/>
        <pt x="668" y="-296" on="1"/>
      </contour>
    </TTGlyph>
    <TTGlyph name="daggerdbl" xMin="150" yMin="-296" xMax="989" yMax="1480">
      <contour>
        <pt x="471" y="-296" on="1"/>
        <pt x="495" y="247" on="1"/>
        <pt x="150" y="222" on="1"/>
        <pt x="150" y="370" on="1"/>
        <pt x="495" y="345" on="1"/>
        <pt x="495" y="839" on="1"/>
        <pt x="150" y="814" on="1"/>
        <pt x="150" y="962" on="1"/>
        <pt x="495" y="938" on="1"/>
        <pt x="471" y="1480" on="1"/>
        <pt x="668" y="1480" on="1"/>
        <pt x="643" y="938" on="1"/>
        <pt x="989" y="962" on="1"/>
        <pt x="989" y="814" on="1"/>
        <pt x="643" y="839" on="1"/>
        <pt x="643" y="345" on="1"/>
        <pt x="989" y="370" on="1"/>
        <pt x="989" y="222" on="1"/>
        <pt x="643" y="247" on="1"/>
        <pt x="668" y="-296" on="1"/>
      </contour>
    </TTGlyph>
    <TTGlyph name="dcaron" xMin="86" yMin="-25" xMax="1259" yMax="1579">
      <contour>
        <pt x="787" y="382" on="1"/>
        <pt x="787" y="937" on="1"/>
        <pt x="648" y="962" on="0"/>
        <pt x="582" y="962" on="1"/>
        <pt x="299" y="962" on="0"/>
        <pt x="299" y="532" on="1"/>
        <pt x="299" y="354" on="0"/>
        <pt x="355" y="251" on="1"/>
        <pt x="410" y="148" on="0"/>
        <pt x="504" y="148" on="1"/>
        <pt x="630" y="148" on="0"/>
      </contour>
      <contour>
        <pt x="787" y="203" on="1"/>
        <pt x="731" y="101" on="0"/>
        <pt x="669" y="49" on="1"/>
        <pt x="581" y="-25" on="0"/>
        <pt x="462" y="-25" on="1"/>
        <pt x="293" y="-25" on="0"/>
        <pt x="190" y="123" on="1"/>
        <pt x="86" y="270" on="0"/>
        <pt x="86" y="514" on="1"/>
        <pt x="86" y="798" on="0"/>
        <pt x="220" y="954" on="1"/>
        <pt x="354" y="1110" on="0"/>
        <pt x="597" y="1110" on="1"/>
        <pt x="691" y="1110" on="0"/>
        <pt x="787" y="1086" on="1"/>
        <pt x="787" y="1579" on="1"/>
        <pt x="984" y="1579" on="1"/>
        <pt x="984" y="0" on="1"/>
        <pt x="787" y="0" on="1"/>
      </contour>
      <contour>
        <pt x="1061" y="1125" on="1"/>
        <pt x="1061" y="1184" on="1"/>
        <pt x="1138" y="1205" on="0"/>
        <pt x="1138" y="1365" on="1"/>
        <pt x="1138" y="1382" on="1"/>
        <pt x="1061" y="1382" on="1"/>
        <pt x="1061" y="1579" on="1"/>
        <pt x="1259" y="1579" on="1"/>
        <pt x="1259" y="1408" on="1"/>
        <pt x="1258" y="1146" on="0"/>
      </contour>
    </TTGlyph>
    <TTGlyph name="dcroat" xMin="86" yMin="-25" xMax="1132" yMax="1579">
      <contour>
        <pt x="787" y="1258" on="1"/>
        <pt x="466" y="1258" on="1"/>
        <pt x="466" y="1382" on="1"/>
        <pt x="787" y="1382" on="1"/>
        <pt x="787" y="1579" on="1"/>
        <pt x="984" y="1579" on="1"/>
        <pt x="984" y="1382" on="1"/>
        <pt x="1132" y="1382" on="1"/>
        <pt x="1132" y="1258" on="1"/>
        <pt x="984" y="1258" on="1"/>
        <pt x="984" y="0" on="1"/>
        <pt x="787" y="0" on="1"/>
        <pt x="787" y="203" on="1"/>
        <pt x="731" y="101" on="0"/>
        <pt x="669" y="49" on="1"/>
        <pt x="581" y="-25" on="0"/>
        <pt x="462" y="-25" on="1"/>
        <pt x="293" y="-25" on="0"/>
        <pt x="190" y="123" on="1"/>
        <pt x="86" y="270" on="0"/>
        <pt x="86" y="514" on="1"/>
        <pt x="86" y="798" on="0"/>
        <pt x="220" y="954" on="1"/>
        <pt x="354" y="1110" on="0"/>
        <pt x="597" y="1110" on="1"/>
        <pt x="691" y="1110" on="0"/>
        <pt x="787" y="1086" on="1"/>
      </contour>
      <contour>
        <pt x="787" y="382" on="1"/>
        <pt x="787" y="937" on="1"/>
        <pt x="648" y="962" on="0"/>
        <pt x="582" y="962" on="1"/>
        <pt x="299" y="962" on="0"/>
        <pt x="299" y="532" on="1"/>
        <pt x="299" y="354" on="0"/>
        <pt x="355" y="251" on="1"/>
        <pt x="410" y="148" on="0"/>
        <pt x="504" y="148" on="1"/>
        <pt x="630" y="148" on="0"/>
      </contour>
    </TTGlyph>
    <TTGlyph name="degree" xMin="114" yMin="925" xMax="706" yMax="1517">
      <contour>
        <pt x="410" y="1517" on="1"/>
        <pt x="531" y="1517" on="0"/>
        <pt x="619" y="1430" on="1"/>
        <pt x="706" y="1344" on="0"/>
        <pt x="706" y="1222" on="1"/>
        <pt x="706" y="1098" on="0"/>
        <pt x="619" y="1012" on="1"/>
        <pt x="531" y="925" on="0"/>
        <pt x="406" y="925" on="1"/>
        <pt x="300" y="925" on="0"/>
        <pt x="219" y="995" on="1"/>
        <pt x="114" y="1087" on="0"/>
        <pt x="114" y="1221" on="1"/>
        <pt x="114" y="1344" on="0"/>
        <pt x="201" y="1430" on="1"/>
        <pt x="289" y="1517" on="0"/>
      </contour>
      <contour>
        <pt x="410" y="1394" on="1"/>
        <pt x="339" y="1394" on="0"/>
        <pt x="288" y="1343" on="1"/>
        <pt x="237" y="1293" on="0"/>
        <pt x="237" y="1222" on="1"/>
        <pt x="237" y="1151" on="0"/>
        <pt x="288" y="1100" on="1"/>
        <pt x="338" y="1049" on="0"/>
        <pt x="408" y="1049" on="1"/>
        <pt x="473" y="1049" on="0"/>
        <pt x="521" y="1090" on="1"/>
        <pt x="583" y="1142" on="0"/>
        <pt x="583" y="1222" on="1"/>
        <pt x="583" y="1293" on="0"/>
        <pt x="532" y="1343" on="1"/>
        <pt x="481" y="1394" on="0"/>
      </contour>
    </TTGlyph>
    <TTGlyph name="dieresis" xMin="57" yMin="1283" xMax="625" yMax="1456">
      <contour>
        <pt x="57" y="1283" on="1"/>
        <pt x="57" y="1456" on="1"/>
        <pt x="230" y="1456" on="1"/>
        <pt x="230" y="1283" on="1"/>
      </contour>
      <contour>
        <pt x="452" y="1283" on="1"/>
        <pt x="452" y="1456" on="1"/>
        <pt x="625" y="1456" on="1"/>
        <pt x="625" y="1283" on="1"/>
      </contour>
    </TTGlyph>
    <TTGlyph name="divide" xMin="104" yMin="0" xMax="1091" yMax="1184">
      <contour>
        <pt x="104" y="518" on="1"/>
        <pt x="104" y="666" on="1"/>
        <pt x="1091" y="666" on="1"/>
        <pt x="1091" y="518" on="1"/>
      </contour>
      <contour>
        <pt x="474" y="938" on="1"/>
        <pt x="474" y="1184" on="1"/>
        <pt x="721" y="1184" on="1"/>
        <pt x="721" y="938" on="1"/>
      </contour>
      <contour>
        <pt x="474" y="0" on="1"/>
        <pt x="474" y="247" on="1"/>
        <pt x="721" y="247" on="1"/>
        <pt x="721" y="0" on="1"/>
      </contour>
    </TTGlyph>
    <TTGlyph name="dollar" xMin="103" yMin="-123" xMax="942" yMax="1604">
      <contour>
        <pt x="498" y="-123" on="1"/>
        <pt x="498" y="0" on="1"/>
        <pt x="322" y="0" on="0"/>
        <pt x="103" y="83" on="1"/>
        <pt x="103" y="253" on="1"/>
        <pt x="328" y="148" on="0"/>
        <pt x="498" y="148" on="1"/>
        <pt x="498" y="679" on="1"/>
        <pt x="312" y="795" on="0"/>
        <pt x="235" y="881" on="1"/>
        <pt x="147" y="981" on="0"/>
        <pt x="147" y="1125" on="1"/>
        <pt x="147" y="1296" on="0"/>
        <pt x="274" y="1398" on="1"/>
        <pt x="360" y="1467" on="0"/>
        <pt x="498" y="1480" on="1"/>
        <pt x="498" y="1604" on="1"/>
        <pt x="597" y="1604" on="1"/>
        <pt x="597" y="1480" on="1"/>
        <pt x="741" y="1480" on="0"/>
        <pt x="918" y="1413" on="1"/>
        <pt x="918" y="1252" on="1"/>
        <pt x="727" y="1335" on="0"/>
        <pt x="597" y="1345" on="1"/>
        <pt x="597" y="818" on="1"/>
        <pt x="609" y="810" on="1"/>
        <pt x="635" y="794" on="0"/>
        <pt x="658" y="781" on="1"/>
        <pt x="670" y="773" on="1"/>
        <pt x="796" y="698" on="0"/>
        <pt x="859" y="632" on="1"/>
        <pt x="942" y="546" on="0"/>
        <pt x="942" y="413" on="1"/>
        <pt x="942" y="232" on="0"/>
        <pt x="820" y="113" on="1"/>
        <pt x="735" y="31" on="0"/>
        <pt x="597" y="0" on="1"/>
        <pt x="597" y="-123" on="1"/>
      </contour>
      <contour>
        <pt x="597" y="160" on="1"/>
        <pt x="769" y="227" on="0"/>
        <pt x="769" y="385" on="1"/>
        <pt x="769" y="467" on="0"/>
        <pt x="721" y="520" on="1"/>
        <pt x="684" y="560" on="0"/>
        <pt x="597" y="621" on="1"/>
      </contour>
      <contour>
        <pt x="498" y="883" on="1"/>
        <pt x="498" y="1339" on="1"/>
        <pt x="319" y="1278" on="0"/>
        <pt x="319" y="1133" on="1"/>
        <pt x="319" y="1002" on="0"/>
      </contour>
    </TTGlyph>
    <TTGlyph name="dotaccent" xMin="242" yMin="1283" xMax="439" yMax="1480">
      <contour>
        <pt x="242" y="1283" on="1"/>
        <pt x="242" y="1480" on="1"/>
        <pt x="439" y="1480" on="1"/>
        <pt x="439" y="1283" on="1"/>
      </contour>
    </TTGlyph>
    <TTGlyph name="dotlessi" xMin="129" yMin="0" xMax="326" yMax="1086">
      <contour>
        <pt x="129" y="0" on="1"/>
        <pt x="129" y="1086" on="1"/>
        <pt x="326" y="1086" on="1"/>
        <pt x="326" y="0" on="1"/>
      </contour>
    </TTGlyph>
    <TTGlyph name="dotlessj" xMin="-155" yMin="-419" xMax="331" yMax="1086">
      <contour>
        <pt x="-155" y="-387" on="1"/>
        <pt x="-155" y="-231" on="1"/>
        <pt x="-75" y="-271" on="0"/>
        <pt x="-5" y="-271" on="1"/>
        <pt x="92" y="-271" on="0"/>
        <pt x="115" y="-197" on="1"/>
        <pt x="133" y="-136" on="0"/>
        <pt x="133" y="0" on="1"/>
        <pt x="133" y="1086" on="1"/>
        <pt x="331" y="1086" on="1"/>
        <pt x="331" y="0" on="1"/>
        <pt x="331" y="-419" on="0"/>
        <pt x="11" y="-419" on="1"/>
        <pt x="-77" y="-419" on="0"/>
      </contour>
    </TTGlyph>
    <TTGlyph name="dotmath" xMin="161" yMin="491" xMax="408" yMax="738">
      <contour>
        <pt x="161" y="491" on="1"/>
        <pt x="161" y="738" on="1"/>
        <pt x="408" y="738" on="1"/>
        <pt x="408" y="491" on="1"/>
      </contour>
    </TTGlyph>
    <TTGlyph name="e" xMin="86" yMin="-25" xMax="1022" yMax="1110">
      <contour>
        <pt x="818" y="660" on="1"/>
        <pt x="815" y="758" on="0"/>
        <pt x="798" y="809" on="1"/>
        <pt x="746" y="963" on="0"/>
        <pt x="572" y="963" on="1"/>
        <pt x="451" y="963" on="0"/>
        <pt x="381" y="891" on="1"/>
        <pt x="313" y="822" on="0"/>
        <pt x="296" y="660" on="1"/>
      </contour>
      <contour>
        <pt x="1013" y="191" on="1"/>
        <pt x="1013" y="35" on="1"/>
        <pt x="810" y="-25" on="0"/>
        <pt x="641" y="-25" on="1"/>
        <pt x="386" y="-25" on="0"/>
        <pt x="236" y="133" on="1"/>
        <pt x="86" y="291" on="0"/>
        <pt x="86" y="557" on="1"/>
        <pt x="86" y="810" on="0"/>
        <pt x="219" y="960" on="1"/>
        <pt x="351" y="1110" on="0"/>
        <pt x="577" y="1110" on="1"/>
        <pt x="836" y="1110" on="0"/>
        <pt x="943" y="926" on="1"/>
        <pt x="1022" y="789" on="0"/>
        <pt x="1019" y="573" on="1"/>
        <pt x="1018" y="512" on="1"/>
        <pt x="293" y="512" on="1"/>
        <pt x="305" y="393" on="0"/>
        <pt x="332" y="331" on="1"/>
        <pt x="420" y="125" on="0"/>
        <pt x="683" y="125" on="1"/>
        <pt x="832" y="125" on="0"/>
      </contour>
    </TTGlyph>
    <TTGlyph name="eacute" xMin="86" yMin="-25" xMax="1022" yMax="1604">
      <component glyphName="e" x="0" y="0" flags="0x4"/>
      <component glyphName="acute" x="315" y="0" flags="0x4"/>
    </TTGlyph>
    <TTGlyph name="ebreve" xMin="86" yMin="-25" xMax="1022" yMax="1604">
      <contour>
        <pt x="818" y="660" on="1"/>
        <pt x="815" y="758" on="0"/>
        <pt x="798" y="809" on="1"/>
        <pt x="746" y="963" on="0"/>
        <pt x="572" y="963" on="1"/>
        <pt x="451" y="963" on="0"/>
        <pt x="381" y="891" on="1"/>
        <pt x="313" y="822" on="0"/>
        <pt x="296" y="660" on="1"/>
      </contour>
      <contour>
        <pt x="1013" y="191" on="1"/>
        <pt x="1013" y="35" on="1"/>
        <pt x="810" y="-25" on="0"/>
        <pt x="641" y="-25" on="1"/>
        <pt x="386" y="-25" on="0"/>
        <pt x="236" y="133" on="1"/>
        <pt x="86" y="291" on="0"/>
        <pt x="86" y="557" on="1"/>
        <pt x="86" y="810" on="0"/>
        <pt x="219" y="960" on="1"/>
        <pt x="351" y="1110" on="0"/>
        <pt x="577" y="1110" on="1"/>
        <pt x="836" y="1110" on="0"/>
        <pt x="943" y="926" on="1"/>
        <pt x="1022" y="789" on="0"/>
        <pt x="1019" y="573" on="1"/>
        <pt x="1018" y="512" on="1"/>
        <pt x="293" y="512" on="1"/>
        <pt x="305" y="393" on="0"/>
        <pt x="332" y="331" on="1"/>
        <pt x="420" y="125" on="0"/>
        <pt x="683" y="125" on="1"/>
        <pt x="832" y="125" on="0"/>
      </contour>
      <contour>
        <pt x="236" y="1604" on="1"/>
        <pt x="359" y="1604" on="1"/>
        <pt x="380" y="1511" on="0"/>
        <pt x="434" y="1470" on="1"/>
        <pt x="486" y="1431" on="0"/>
        <pt x="569" y="1431" on="1"/>
        <pt x="663" y="1431" on="0"/>
        <pt x="717" y="1480" on="1"/>
        <pt x="760" y="1520" on="0"/>
        <pt x="779" y="1604" on="1"/>
        <pt x="902" y="1604" on="1"/>
        <pt x="885" y="1469" on="0"/>
        <pt x="813" y="1389" on="1"/>
        <pt x="718" y="1283" on="0"/>
        <pt x="569" y="1283" on="1"/>
        <pt x="412" y="1283" on="0"/>
        <pt x="317" y="1398" on="1"/>
        <pt x="253" y="1475" on="0"/>
      </contour>
    </TTGlyph>
    <TTGlyph name="ecaron" xMin="86" yMin="-25" xMax="1022" yMax="1604">
      <component glyphName="e" x="0" y="0" flags="0x4"/>
      <component glyphName="caron" x="228" y="0" flags="0x4"/>
    </TTGlyph>
    <TTGlyph name="ecircumflex" xMin="86" yMin="-25" xMax="1022" yMax="1604">
      <component glyphName="e" x="0" y="0" flags="0x4"/>
      <component glyphName="circumflex" x="240" y="0" flags="0x4"/>
    </TTGlyph>
    <TTGlyph name="edieresis" xMin="86" yMin="-25" xMax="1022" yMax="1456">
      <component glyphName="e" x="0" y="0" flags="0x4"/>
      <component glyphName="dieresis" x="241" y="0" flags="0x4"/>
    </TTGlyph>
    <TTGlyph name="edotaccent" xMin="86" yMin="-25" xMax="1022" yMax="1480">
      <component glyphName="e" x="0" y="0" flags="0x4"/>
      <component glyphName="dotaccent" x="228" y="0" flags="0x4"/>
    </TTGlyph>
    <TTGlyph name="egrave" xMin="86" yMin="-25" xMax="1022" yMax="1604">
      <component glyphName="e" x="0" y="0" flags="0x4"/>
      <component glyphName="grave" x="143" y="0" flags="0x4"/>
    </TTGlyph>
    <TTGlyph name="eight" xMin="99" yMin="-37" xMax="1089" yMax="1517">
      <contour>
        <pt x="393" y="806" on="1"/>
        <pt x="295" y="877" on="0"/>
        <pt x="246" y="942" on="1"/>
        <pt x="176" y="1036" on="0"/>
        <pt x="176" y="1145" on="1"/>
        <pt x="176" y="1308" on="0"/>
        <pt x="299" y="1412" on="1"/>
        <pt x="422" y="1517" on="0"/>
        <pt x="620" y="1517" on="1"/>
        <pt x="804" y="1517" on="0"/>
        <pt x="917" y="1428" on="1"/>
        <pt x="1030" y="1340" on="0"/>
        <pt x="1030" y="1196" on="1"/>
        <pt x="1030" y="1067" on="0"/>
        <pt x="930" y="952" on="1"/>
        <pt x="869" y="883" on="0"/>
        <pt x="754" y="806" on="1"/>
        <pt x="904" y="729" on="0"/>
        <pt x="981" y="647" on="1"/>
        <pt x="1089" y="531" on="0"/>
        <pt x="1089" y="380" on="1"/>
        <pt x="1089" y="197" on="0"/>
        <pt x="948" y="80" on="1"/>
        <pt x="808" y="-37" on="0"/>
        <pt x="585" y="-37" on="1"/>
        <pt x="366" y="-37" on="0"/>
        <pt x="233" y="74" on="1"/>
        <pt x="99" y="185" on="0"/>
        <pt x="99" y="368" on="1"/>
        <pt x="99" y="528" on="0"/>
        <pt x="207" y="654" on="1"/>
        <pt x="271" y="730" on="0"/>
      </contour>
      <contour>
        <pt x="644" y="868" on="1"/>
        <pt x="851" y="1010" on="0"/>
        <pt x="851" y="1164" on="1"/>
        <pt x="851" y="1258" on="0"/>
        <pt x="783" y="1313" on="1"/>
        <pt x="715" y="1369" on="0"/>
        <pt x="599" y="1369" on="1"/>
        <pt x="489" y="1369" on="0"/>
        <pt x="422" y="1316" on="1"/>
        <pt x="355" y="1264" on="0"/>
        <pt x="355" y="1176" on="1"/>
        <pt x="355" y="1071" on="0"/>
        <pt x="468" y="982" on="1"/>
        <pt x="526" y="936" on="0"/>
      </contour>
      <contour>
        <pt x="500" y="726" on="1"/>
        <pt x="390" y="640" on="0"/>
        <pt x="346" y="577" on="1"/>
        <pt x="296" y="505" on="0"/>
        <pt x="296" y="397" on="1"/>
        <pt x="296" y="268" on="0"/>
        <pt x="378" y="190" on="1"/>
        <pt x="460" y="111" on="0"/>
        <pt x="595" y="111" on="1"/>
        <pt x="723" y="111" on="0"/>
        <pt x="804" y="178" on="1"/>
        <pt x="886" y="245" on="0"/>
        <pt x="886" y="352" on="1"/>
        <pt x="886" y="447" on="0"/>
        <pt x="823" y="512" on="1"/>
        <pt x="770" y="566" on="0"/>
        <pt x="640" y="643" on="1"/>
      </contour>
    </TTGlyph>
    <TTGlyph name="ellipsis" xMin="247" yMin="0" xMax="1802" yMax="197">
      <contour>
        <pt x="247" y="0" on="1"/>
        <pt x="247" y="197" on="1"/>
        <pt x="444" y="197" on="1"/>
        <pt x="444" y="0" on="1"/>
      </contour>
      <contour>
        <pt x="926" y="0" on="1"/>
        <pt x="926" y="197" on="1"/>
        <pt x="1123" y="197" on="1"/>
        <pt x="1123" y="0" on="1"/>
      </contour>
      <contour>
        <pt x="1604" y="0" on="1"/>
        <pt x="1604" y="197" on="1"/>
        <pt x="1802" y="197" on="1"/>
        <pt x="1802" y="0" on="1"/>
      </contour>
    </TTGlyph>
    <TTGlyph name="emacron" xMin="86" yMin="-25" xMax="1022" yMax="1431">
      <component glyphName="e" x="0" y="0" flags="0x4"/>
      <component glyphName="macron" x="228" y="0" flags="0x4"/>
    </TTGlyph>
    <TTGlyph name="emdash" xMin="99" yMin="543" xMax="1950" yMax="642">
      <contour>
        <pt x="99" y="543" on="1"/>
        <pt x="99" y="642" on="1"/>
        <pt x="1950" y="642" on="1"/>
        <pt x="1950" y="543" on="1"/>
      </contour>
    </TTGlyph>
    <TTGlyph name="endash" xMin="101" yMin="543" xMax="1039" yMax="666">
      <contour>
        <pt x="101" y="543" on="1"/>
        <pt x="101" y="666" on="1"/>
        <pt x="1039" y="666" on="1"/>
        <pt x="1039" y="543" on="1"/>
      </contour>
    </TTGlyph>
    <TTGlyph name="eng" xMin="154" yMin="-420" xMax="997" yMax="1110">
      <contour>
        <pt x="154" y="0" on="1"/>
        <pt x="154" y="1086" on="1"/>
        <pt x="351" y="1086" on="1"/>
        <pt x="351" y="882" on="1"/>
        <pt x="424" y="984" on="0"/>
        <pt x="495" y="1035" on="1"/>
        <pt x="598" y="1110" on="0"/>
        <pt x="721" y="1110" on="1"/>
        <pt x="997" y="1110" on="0"/>
        <pt x="997" y="780" on="1"/>
        <pt x="997" y="-92" on="1"/>
        <pt x="997" y="-420" on="0"/>
        <pt x="679" y="-420" on="1"/>
        <pt x="605" y="-420" on="0"/>
        <pt x="528" y="-399" on="1"/>
        <pt x="528" y="-245" on="1"/>
        <pt x="593" y="-272" on="0"/>
        <pt x="651" y="-272" on="1"/>
        <pt x="799" y="-272" on="0"/>
        <pt x="799" y="-55" on="1"/>
        <pt x="799" y="716" on="1"/>
        <pt x="799" y="847" on="0"/>
        <pt x="772" y="894" on="1"/>
        <pt x="744" y="941" on="0"/>
        <pt x="668" y="941" on="1"/>
        <pt x="506" y="941" on="0"/>
        <pt x="351" y="703" on="1"/>
        <pt x="351" y="0" on="1"/>
      </contour>
    </TTGlyph>
    <TTGlyph name="eogonek" xMin="86" yMin="-370" xMax="1022" yMax="1110">
      <component glyphName="e" x="0" y="0" flags="0x4"/>
      <component glyphName="ogonek" x="356" y="0" flags="0x4"/>
    </TTGlyph>
    <TTGlyph name="equal" xMin="104" yMin="333" xMax="1091" yMax="851">
      <contour>
        <pt x="104" y="333" on="1"/>
        <pt x="104" y="481" on="1"/>
        <pt x="1091" y="481" on="1"/>
        <pt x="1091" y="333" on="1"/>
      </contour>
      <contour>
        <pt x="104" y="703" on="1"/>
        <pt x="104" y="851" on="1"/>
        <pt x="1091" y="851" on="1"/>
        <pt x="1091" y="703" on="1"/>
      </contour>
    </TTGlyph>
    <TTGlyph name="estimated" xMin="86" yMin="-25" xMax="1022" yMax="1110">
      <contour>
        <pt x="818" y="660" on="1"/>
        <pt x="815" y="758" on="0"/>
        <pt x="798" y="809" on="1"/>
        <pt x="746" y="963" on="0"/>
        <pt x="572" y="963" on="1"/>
        <pt x="451" y="963" on="0"/>
        <pt x="381" y="891" on="1"/>
        <pt x="313" y="822" on="0"/>
        <pt x="296" y="660" on="1"/>
      </contour>
      <contour>
        <pt x="1013" y="191" on="1"/>
        <pt x="1013" y="35" on="1"/>
        <pt x="810" y="-25" on="0"/>
        <pt x="641" y="-25" on="1"/>
        <pt x="386" y="-25" on="0"/>
        <pt x="236" y="133" on="1"/>
        <pt x="86" y="291" on="0"/>
        <pt x="86" y="557" on="1"/>
        <pt x="86" y="810" on="0"/>
        <pt x="219" y="960" on="1"/>
        <pt x="351" y="1110" on="0"/>
        <pt x="577" y="1110" on="1"/>
        <pt x="836" y="1110" on="0"/>
        <pt x="943" y="926" on="1"/>
        <pt x="1022" y="789" on="0"/>
        <pt x="1019" y="573" on="1"/>
        <pt x="1018" y="512" on="1"/>
        <pt x="293" y="512" on="1"/>
        <pt x="305" y="393" on="0"/>
        <pt x="332" y="331" on="1"/>
        <pt x="420" y="125" on="0"/>
        <pt x="683" y="125" on="1"/>
        <pt x="832" y="125" on="0"/>
      </contour>
    </TTGlyph>
</ttFont>
